<?xml version="1.0" encoding="UTF-8"?>
<svg width="247px" height="58px" viewBox="0 0 247 58" version="1.1" xmlns="http://www.w3.org/2000/svg" xmlns:xlink="http://www.w3.org/1999/xlink">
    <!-- Generator: sketchtool 49 (51002) - http://www.bohemiancoding.com/sketch -->
    <title>E93F51F3-631D-4B44-BD1A-9E3EAFF33FC7</title>
    <desc>Created with sketchtool.</desc>
    <defs></defs>
    <g id="Symbols" stroke="none" stroke-width="1" fill="none" fill-rule="evenodd">
        <g id="Logo-Copy">
            <g id="Layer_1-2">
                <path d="M63.4872549,40.9013725 C62.9641176,40.9013725 62.3954902,40.8881046 61.7813725,40.8615686 C61.1672549,40.8350327 60.5588235,40.7971242 59.9560784,40.7478431 C59.3457516,40.6985621 58.7430065,40.6360131 58.1478431,40.5601961 C57.5945707,40.4950862 57.045777,40.3963413 56.5045098,40.2645098 L56.5045098,15.205098 C57.0458887,15.0737952 57.5946503,14.9750561 58.1478431,14.9094118 C58.7430065,14.8335948 59.3457516,14.7710458 59.9560784,14.7217647 C60.5664052,14.6724837 61.1691503,14.6345752 61.7643137,14.6080392 C62.3594771,14.5852941 62.9281046,14.5720261 63.4701961,14.5682353 C64.8759923,14.5611307 66.2798549,14.6733636 67.6666667,14.9037255 C68.8603739,15.0858076 70.0142163,15.4704218 71.0784314,16.0409804 C72.0042015,16.5385672 72.7872158,17.264813 73.3529412,18.1505882 C73.9252903,19.1199963 74.2093374,20.2325143 74.1717647,21.3576471 C74.2258879,22.5982719 73.8723973,23.8225079 73.1652941,24.8433333 C72.4806251,25.7601937 71.5499818,26.4640913 70.4813725,26.8733333 C71.8381327,27.2478886 73.0681805,27.9827734 74.0409804,29 C74.9356209,29.9704575 75.3829412,31.3370588 75.3829412,33.0998039 C75.3829412,35.6851634 74.4352288,37.6317647 72.5398039,38.9396078 C70.6443791,40.247451 67.6268627,40.9013725 63.4872549,40.9013725 L63.4872549,40.9013725 Z M60.0754902,25.7190196 L63.8796078,25.7190196 C64.7285556,25.7223689 65.5764762,25.6596304 66.4156863,25.5313725 C67.1397085,25.4311617 67.8403783,25.2040215 68.4854902,24.8603922 C69.0453935,24.560649 69.520642,24.1245156 69.8672549,23.5923529 C70.2240928,22.9957032 70.3999105,22.3082365 70.3733333,21.6135294 C70.3951965,20.9474487 70.2126386,20.2906372 69.8501961,19.7313725 C69.4829926,19.2047757 68.9879469,18.7801713 68.4115686,18.497451 C67.7342006,18.1652105 67.0120411,17.9334299 66.2678431,17.8094118 C65.4062673,17.6572674 64.5327372,17.5830459 63.6578431,17.5876471 C62.7366667,17.5876471 62.0164052,17.600915 61.4970588,17.627451 C60.9777124,17.6539869 60.5057516,17.6918954 60.0811765,17.7411765 L60.0754902,25.7190196 Z M60.0754902,28.6303922 L60.0754902,37.7284314 L61.0478431,37.8023529 C61.3700654,37.8288889 61.7491503,37.8478431 62.185098,37.8592157 C62.6210458,37.8705882 63.1252288,37.8705882 63.6976471,37.8592157 C64.7152715,37.8632345 65.7318918,37.7948264 66.7398039,37.6545098 C67.6139992,37.555159 68.4675597,37.3211492 69.2701961,36.9607843 C69.9546947,36.6305579 70.5422988,36.1291358 70.9760784,35.505098 C71.4426199,34.8087632 71.6774374,33.9829219 71.6470588,33.1452941 C71.6705549,32.4012737 71.5042184,31.6635225 71.1637255,31.0015686 C70.8367619,30.4141668 70.3523038,29.9297087 69.764902,29.6027451 C69.0852032,29.2309701 68.3465723,28.9789893 67.5813725,28.8578431 C66.6419152,28.7013599 65.6905942,28.6271569 64.7382353,28.6360784 L60.0754902,28.6303922 Z" id="Shape" fill="#333333"></path>
                <path d="M81.9847059,17.7809804 C81.3953809,17.7946837 80.824736,17.5737889 80.3982353,17.1668627 C79.9524813,16.7326225 79.7143805,16.1280534 79.7443137,15.5064706 C79.7143805,14.8848878 79.9524813,14.2803187 80.3982353,13.8460784 C81.2959671,13.0235605 82.6734447,13.0235605 83.5711765,13.8460784 C84.0169305,14.2803187 84.2550313,14.8848878 84.225098,15.5064706 C84.2578307,16.1235164 84.0262168,16.725299 83.5882353,17.1611765 C83.1581045,17.5738806 82.5805895,17.7971045 81.9847059,17.7809804 L81.9847059,17.7809804 Z M83.7360784,40.6796078 L80.267451,40.6796078 L80.267451,21.2837255 L83.7360784,21.2837255 L83.7360784,40.6796078 Z" id="Shape" fill="#333333"></path>
                <path d="M92.9535294,21.2837255 L100.300196,21.2837255 L100.300196,24.195098 L92.9535294,24.195098 L92.9535294,33.1452941 C92.9368763,33.9528432 93.0112672,34.7596975 93.1752941,35.5505882 C93.2745648,36.0919765 93.4962918,36.6035047 93.8235294,37.0460784 C94.1210327,37.4046103 94.5160423,37.6692667 94.9607843,37.8080392 C95.4668083,37.9651289 95.9947613,38.0400022 96.5245098,38.0298039 C97.3782822,38.0594107 98.2306888,37.9401122 99.0435294,37.6772549 L100.368431,37.1711765 L101.039412,40.0427451 C100.448235,40.3061717 99.8380827,40.5247621 99.2141176,40.6966667 C98.2433197,40.9715669 97.2376853,41.103736 96.2288235,41.0890196 C95.1189964,41.1223032 94.0125397,40.9507446 92.964902,40.5829412 C92.1493335,40.2780736 91.4332979,39.7548168 90.895098,39.0703922 C90.3460957,38.3378513 89.9708214,37.4900815 89.7976471,36.5911765 C89.5721565,35.4682346 89.4654254,34.3246865 89.4792157,33.1794118 L89.4792157,15.8760784 L92.9478431,15.307451 L92.9535294,21.2837255 Z" id="Shape" fill="#333333"></path>
                <path d="M112.645098,41.1288235 C111.234186,41.1547313 109.832393,40.8975748 108.522549,40.372549 C107.385058,39.9068245 106.365353,39.1940024 105.537255,38.2856863 C104.713723,37.3636106 104.097159,36.2758986 103.72902,35.0956863 C103.327356,33.7728332 103.135486,32.395205 103.160392,31.0129412 C103.144716,29.6173181 103.365824,28.2291419 103.814314,26.907451 C104.216008,25.7233369 104.843616,24.6284016 105.662353,23.6833333 C106.469459,22.7668728 107.469561,22.0405852 108.590784,21.5566667 C109.810251,21.0352088 111.125623,20.7756214 112.451765,20.7947059 C113.326482,20.7944169 114.199636,20.8686064 115.061765,21.0164706 C115.918926,21.1625583 116.757785,21.4008706 117.563725,21.7272549 L116.77902,24.6727451 C116.199803,24.4152061 115.593153,24.2244357 114.970784,24.1041176 C114.243702,23.9501069 113.502008,23.8757468 112.758824,23.8823529 C110.817908,23.8823529 109.331895,24.4907843 108.300784,25.7076471 C107.269673,26.9245098 106.754118,28.7024183 106.754118,31.0413725 C106.743794,32.0099596 106.86235,32.9756169 107.106667,33.9129412 C107.320902,34.7325766 107.708739,35.4966155 108.243922,36.1533333 C108.767459,36.7867145 109.439403,37.2809057 110.2,37.5919608 C111.127608,37.9504069 112.117317,38.1205132 113.111373,38.0923529 C113.950717,38.100666 114.788257,38.0129056 115.607647,37.8307843 C116.209166,37.7009589 116.795961,37.5104409 117.35902,37.2621569 L117.842353,40.1735294 C117.57231,40.3271006 117.283769,40.4455743 116.983725,40.5260784 C116.566634,40.6472313 116.143347,40.7459351 115.715686,40.8217647 C115.24183,40.9089542 114.737647,40.9828758 114.203137,41.0435294 C113.685862,41.1018894 113.165652,41.130368 112.645098,41.1288235 L112.645098,41.1288235 Z" id="Shape" fill="#333333"></path>
                <path d="M127.827451,20.8003922 C129.027123,20.7781507 130.221097,20.9707272 131.352941,21.3690196 C132.238198,21.6812768 133.033006,22.2065924 133.667255,22.8986275 C134.260604,23.5739169 134.688866,24.3778821 134.918235,25.2470588 C135.176501,26.2266603 135.302716,27.2363789 135.293529,28.2494118 L135.293529,40.372549 L134.042549,40.5772549 C133.508039,40.6644444 132.905294,40.7459477 132.234314,40.8217647 C131.563333,40.8975817 130.83549,40.965817 130.050784,41.0264706 C129.266078,41.0871242 128.488954,41.117451 127.719412,41.117451 C126.703178,41.1261528 125.689538,41.0135261 124.7,40.7819608 C123.842278,40.5864059 123.031011,40.2251989 122.311765,39.7186275 C121.633281,39.2237768 121.094543,38.5616196 120.748039,37.7966667 C120.35,36.8928242 120.155861,35.9124237 120.179412,34.925098 C120.153967,33.9646048 120.379352,33.0140697 120.833333,32.1672549 C121.259153,31.4067712 121.869195,30.7654449 122.607451,30.3021569 C123.410817,29.8059165 124.293762,29.4519694 125.217451,29.2558824 C126.246171,29.0282917 127.297004,28.9157706 128.350588,28.9203922 C128.699346,28.9203922 129.059477,28.9393464 129.43098,28.9772549 C129.802484,29.0151634 130.156928,29.0644444 130.494314,29.125098 L131.37,29.29 L131.893137,29.4037255 L131.893137,28.4313725 C131.893512,27.8575747 131.830582,27.2854868 131.70549,26.7254902 C131.589675,26.1870355 131.360984,25.679264 131.03451,25.2356863 C130.687498,24.781445 130.231917,24.421673 129.709608,24.1894118 C129.018537,23.9028249 128.27369,23.7689851 127.526078,23.7970588 C126.51991,23.7862158 125.514881,23.8680647 124.523725,24.0415686 C123.868586,24.1494609 123.225083,24.318904 122.601765,24.5476471 L122.192353,21.6760784 C122.91643,21.4062051 123.667608,21.2155508 124.432745,21.107451 C125.553067,20.9053525 126.689049,20.8026003 127.827451,20.8003922 L127.827451,20.8003922 Z M128.123137,38.1833333 C128.945752,38.1833333 129.673595,38.1643791 130.306667,38.1264706 C130.840292,38.1028152 131.370985,38.0343388 131.893137,37.9217647 L131.893137,32.1388235 C131.50643,31.9761473 131.098672,31.8689433 130.681961,31.8203922 C130.009531,31.7259533 129.33095,31.6822352 128.651961,31.6896078 C128.096651,31.6924411 127.542078,31.7304256 126.991569,31.8033333 C126.435135,31.8699133 125.893414,32.0274349 125.388039,32.2696078 C124.914925,32.4962951 124.500461,32.8290342 124.176863,33.2419608 C123.835916,33.71136 123.665404,34.2830757 123.693529,34.862549 C123.693529,36.1059477 124.091569,36.9702614 124.887647,37.4554902 C125.880313,37.9866778 126.998624,38.2382487 128.123137,38.1833333 L128.123137,38.1833333 Z" id="Shape" fill="#333333"></path>
                <path d="M145.568627,38.1833333 C146.648926,38.246264 147.728702,38.0513587 148.718824,37.6147059 C149.375024,37.2657854 149.766433,36.5652516 149.719608,35.8235294 C149.74316,35.0261683 149.365157,34.2701636 148.713137,33.8105882 C147.676536,33.1143798 146.56203,32.5418593 145.392353,32.1047059 C144.634183,31.8052288 143.919608,31.5000654 143.248627,31.1892157 C142.611501,30.9221981 142.014449,30.5681775 141.47451,30.1372549 C140.976351,29.7141276 140.569987,29.193594 140.280392,28.6076471 C139.961753,27.9189691 139.807949,27.1655235 139.831176,26.4070588 C139.772708,24.8190122 140.481555,23.2997527 141.736078,22.3243137 C143.002222,21.3159477 144.73085,20.8117647 146.921961,20.8117647 C147.47101,20.8112807 148.019653,20.8416554 148.565294,20.9027451 C149.111176,20.9633987 149.621046,21.0373203 150.094902,21.1245098 C150.568758,21.2116993 150.985752,21.3045752 151.345882,21.4031373 C151.706013,21.5016993 151.986536,21.5888889 152.187451,21.6647059 L151.556275,24.65 C150.995788,24.384071 150.408726,24.1782182 149.804902,24.0358824 C148.865229,23.807599 147.900191,23.7005849 146.933333,23.717451 C146.053903,23.6937896 145.182393,23.8891956 144.397255,24.2860784 C143.708436,24.6190965 143.283721,25.3299359 143.316863,26.0943137 C143.306583,26.4874662 143.390415,26.8773823 143.561373,27.2315686 C143.740695,27.5757443 143.995309,27.875061 144.306275,28.1072549 C144.693062,28.398419 145.112982,28.6427359 145.557255,28.835098 C146.053856,29.0587582 146.650915,29.2956863 147.348431,29.5458824 C148.269608,29.8946405 149.090327,30.235817 149.810588,30.5694118 C150.479417,30.8719313 151.101692,31.268273 151.658627,31.7464706 C152.167366,32.1917261 152.569617,32.7455488 152.835686,33.3670588 C153.12864,34.1084359 153.267927,34.9015998 153.245098,35.6984314 C153.329902,37.3020392 152.57645,38.8347758 151.254902,39.7470588 C149.924314,40.6682353 148.028889,41.1288235 145.568627,41.1288235 C144.213508,41.1706534 142.859025,41.0271701 141.542745,40.7023529 C140.572288,40.4180392 139.91268,40.2000654 139.563922,40.0484314 L140.200784,37.0631373 C140.579869,37.2109804 141.214837,37.4346405 142.105686,37.7341176 C143.228647,38.0676219 144.397741,38.2192778 145.568627,38.1833333 L145.568627,38.1833333 Z" id="Shape" fill="#333333"></path>
                <path d="M159.380588,17.7809804 C158.791263,17.7946837 158.220618,17.5737889 157.794118,17.1668627 C157.348364,16.7326225 157.110263,16.1280534 157.140196,15.5064706 C157.110263,14.8848878 157.348364,14.2803187 157.794118,13.8460784 C158.691849,13.0235605 160.069327,13.0235605 160.967059,13.8460784 C161.412813,14.2803187 161.650914,14.8848878 161.62098,15.5064706 C161.650914,16.1280534 161.412813,16.7326225 160.967059,17.1668627 C160.540218,17.573253 159.969804,17.7940586 159.380588,17.7809804 L159.380588,17.7809804 Z M161.131961,40.6796078 L157.663333,40.6796078 L157.663333,21.2837255 L161.131961,21.2837255 L161.131961,40.6796078 Z" id="Shape" fill="#333333"></path>
                <path d="M167.096863,21.8466667 C167.892941,21.6495425 168.950588,21.4372549 170.269804,21.2098039 C171.774197,20.9718485 173.295798,20.8596304 174.818824,20.8743137 C176.130927,20.8336277 177.437904,21.0559684 178.662745,21.5282353 C179.620966,21.9166615 180.463031,22.5452728 181.107843,23.3535294 C181.742484,24.1937796 182.181528,25.1651176 182.392941,26.1966667 C182.652261,27.3844298 182.778139,28.5974358 182.768235,29.8131373 L182.768235,40.6796078 L179.299608,40.6796078 L179.299608,30.5352941 C179.312984,29.5101851 179.231129,28.4860489 179.055098,27.4760784 C178.938341,26.7421973 178.664885,26.0420731 178.253333,25.4233333 C177.882323,24.9031275 177.363147,24.50681 176.763529,24.2860784 C176.019459,24.0307925 175.235549,23.9113762 174.449216,23.9335294 C174.070131,23.9335294 173.691046,23.9467974 173.311961,23.9733333 C172.932876,23.9998693 172.553791,24.0301961 172.174706,24.0643137 C171.795621,24.1022222 171.471503,24.145817 171.202353,24.195098 L170.588235,24.3088235 L170.588235,40.6796078 L167.119608,40.6796078 L167.096863,21.8466667 Z" id="Shape" fill="#333333"></path>
                <path d="M205.627059,30.9845098 C205.647301,32.406005 205.420261,33.820198 204.956078,35.1639216 C204.545091,36.3460322 203.905562,37.4357424 203.073922,38.3709804 C202.263175,39.2628871 201.267701,39.9672871 200.156863,40.435098 C197.815944,41.4055776 195.185233,41.4055776 192.844314,40.435098 C191.743064,39.9622175 190.75752,39.2560404 189.955686,38.3652941 C189.124286,37.4298812 188.484787,36.3402212 188.073529,35.1582353 C187.609347,33.8145117 187.382306,32.4003188 187.402549,30.9788235 C187.385851,29.5650171 187.61283,28.1589005 188.073529,26.8221569 C188.482085,25.6338128 189.121757,24.5380613 189.955686,23.5980392 C190.75752,22.7072929 191.743064,22.0011158 192.844314,21.5282353 C195.185233,20.5577558 197.815944,20.5577558 200.156863,21.5282353 C201.258023,22.0012739 202.243535,22.7074282 203.04549,23.5980392 C203.879664,24.5378843 204.519365,25.6336871 204.927647,26.8221569 C205.398661,28.1589993 205.635275,29.5671412 205.627059,30.9845098 L205.627059,30.9845098 Z M202.010588,30.9845098 C202.010588,28.7971895 201.519673,27.0628758 200.537843,25.7815686 C199.567052,24.5581928 198.090776,23.8450606 196.52902,23.8450606 C194.967263,23.8450606 193.490987,24.5581928 192.520196,25.7815686 C191.545948,27.0628758 191.058824,28.7971895 191.058824,30.9845098 C191.058824,33.1718301 191.549739,34.9061438 192.531569,36.187451 C193.502359,37.4108268 194.978636,38.123959 196.540392,38.123959 C198.102149,38.123959 199.578425,37.4108268 200.549216,36.187451 C201.523464,34.9061438 202.010588,33.1718301 202.010588,30.9845098 L202.010588,30.9845098 Z" id="Shape" fill="#333333"></path>
                <path d="M214.617059,38.6666667 C214.625412,39.3147495 214.385318,39.9414365 213.946078,40.4180392 C212.93092,41.4143093 211.304963,41.4143093 210.289804,40.4180392 C209.394455,39.4199312 209.394455,37.9077158 210.289804,36.9096078 C211.304963,35.9133377 212.93092,35.9133377 213.946078,36.9096078 C214.386678,37.3876436 214.626873,38.016628 214.617059,38.6666667 L214.617059,38.6666667 Z" id="Shape" fill="#333333"></path>
                <path d="M221.406471,17.7809804 C220.817146,17.7946837 220.246501,17.5737889 219.82,17.1668627 C219.374246,16.7326225 219.136145,16.1280534 219.166078,15.5064706 C219.136145,14.8848878 219.374246,14.2803187 219.82,13.8460784 C220.717732,13.0235605 222.095209,13.0235605 222.992941,13.8460784 C223.438695,14.2803187 223.676796,14.8848878 223.646863,15.5064706 C223.676796,16.1280534 223.438695,16.7326225 222.992941,17.1668627 C222.566101,17.573253 221.995686,17.7940586 221.406471,17.7809804 L221.406471,17.7809804 Z M223.157843,40.6796078 L219.689216,40.6796078 L219.689216,21.2837255 L223.157843,21.2837255 L223.157843,40.6796078 Z" id="Shape" fill="#333333"></path>
                <path d="M246.215686,30.9845098 C246.235929,32.406005 246.008888,33.820198 245.544706,35.1639216 C245.133448,36.3459075 244.493949,37.4355675 243.662549,38.3709804 C242.860715,39.2617267 241.875171,39.9679038 240.773922,40.4407843 C238.433003,41.4112638 235.802292,41.4112638 233.461373,40.4407843 C232.360123,39.9679038 231.374579,39.2617267 230.572745,38.3709804 C229.741345,37.4355675 229.101846,36.3459075 228.690588,35.1639216 C228.226406,33.820198 227.999365,32.406005 228.019608,30.9845098 C228.00291,29.5707034 228.229889,28.1645868 228.690588,26.8278431 C229.099144,25.639499 229.738816,24.5437476 230.572745,23.6037255 C231.374579,22.7129792 232.360123,22.0068021 233.461373,21.5339216 C235.802292,20.5634421 238.433003,20.5634421 240.773922,21.5339216 C241.875171,22.0068021 242.860715,22.7129792 243.662549,23.6037255 C244.496478,24.5437476 245.13615,25.639499 245.544706,26.8278431 C246.005405,28.1645868 246.232384,29.5707034 246.215686,30.9845098 L246.215686,30.9845098 Z M242.599216,30.9845098 C242.599216,28.7971895 242.108301,27.0628758 241.126471,25.7815686 C240.15568,24.5581928 238.679403,23.8450606 237.117647,23.8450606 C235.555891,23.8450606 234.079614,24.5581928 233.108824,25.7815686 C232.126993,27.0628758 231.636078,28.7971895 231.636078,30.9845098 C231.636078,33.1718301 232.136471,34.9061438 233.137255,36.187451 C234.108046,37.4108268 235.584322,38.123959 237.146078,38.123959 C238.707835,38.123959 240.184111,37.4108268 241.154902,36.187451 C242.136732,34.9061438 242.627647,33.1718301 242.627647,30.9845098 L242.599216,30.9845098 Z" id="Shape" fill="#333333"></path>
                <path d="M0.136470588,50.9319608 C0.136470588,50.6179165 0.39105377,50.3633333 0.705098039,50.3633333 L0.705098039,50.3633333 C1.01914231,50.3633333 1.27372549,50.6179165 1.27372549,50.9319608 L1.27372549,50.9319608 C1.27372549,51.2460051 1.01914231,51.5005882 0.705098039,51.5005882 L0.705098039,51.5005882 C0.39105377,51.5005882 0.136470588,51.2460051 0.136470588,50.9319608 L0.136470588,50.9319608 Z M0.136470588,44.6770588 C0.136470588,44.3630146 0.39105377,44.1084314 0.705098039,44.1084314 L0.705098039,44.1084314 C1.01914231,44.1084314 1.27372549,44.3630146 1.27372549,44.6770588 L1.27372549,44.6770588 C1.27372549,44.9911031 1.01914231,45.2456863 0.705098039,45.2456863 L0.705098039,45.2456863 C0.39105377,45.2456863 0.136470588,44.9911031 0.136470588,44.6770588 L0.136470588,44.6770588 Z M0.136470588,38.4221569 C0.136470588,38.1081126 0.39105377,37.8535294 0.705098039,37.8535294 L0.705098039,37.8535294 C1.01914231,37.8535294 1.27372549,38.1081126 1.27372549,38.4221569 L1.27372549,38.4221569 C1.27372549,38.7362011 1.01914231,38.9907843 0.705098039,38.9907843 L0.705098039,38.9907843 C0.39105377,38.9907843 0.136470588,38.7362011 0.136470588,38.4221569 L0.136470588,38.4221569 Z M0.136470588,32.1672549 C0.136470588,31.8532106 0.39105377,31.5986275 0.705098039,31.5986275 L0.705098039,31.5986275 C1.01914231,31.5986275 1.27372549,31.8532106 1.27372549,32.1672549 L1.27372549,32.1672549 C1.27372549,32.4812992 1.01914231,32.7358824 0.705098039,32.7358824 L0.705098039,32.7358824 C0.39105377,32.7358824 0.136470588,32.4812992 0.136470588,32.1672549 L0.136470588,32.1672549 Z M0.136470588,25.9123529 C0.136470588,25.5983087 0.39105377,25.3437255 0.705098039,25.3437255 L0.705098039,25.3437255 C1.01914231,25.3437255 1.27372549,25.5983087 1.27372549,25.9123529 L1.27372549,25.9123529 C1.27372549,26.2263972 1.01914231,26.4809804 0.705098039,26.4809804 L0.705098039,26.4809804 C0.39105377,26.4809804 0.136470588,26.2263972 0.136470588,25.9123529 L0.136470588,25.9123529 Z M0.136470588,19.657451 C0.136470588,19.3434067 0.39105377,19.0888235 0.705098039,19.0888235 L0.705098039,19.0888235 C1.01914231,19.0888235 1.27372549,19.3434067 1.27372549,19.657451 L1.27372549,19.657451 C1.27372549,19.9714952 1.01914231,20.2260784 0.705098039,20.2260784 L0.705098039,20.2260784 C0.39105377,20.2260784 0.136470588,19.9714952 0.136470588,19.657451 L0.136470588,19.657451 Z M0.136470588,13.402549 C0.136470588,13.0885048 0.39105377,12.8339216 0.705098039,12.8339216 L0.705098039,12.8339216 C1.01914231,12.8339216 1.27372549,13.0885048 1.27372549,13.402549 L1.27372549,13.402549 C1.27372549,13.7165933 1.01914231,13.9711765 0.705098039,13.9711765 L0.705098039,13.9711765 C0.39105377,13.9711765 0.136470588,13.7165933 0.136470588,13.402549 L0.136470588,13.402549 Z M0.136470588,7.14764706 C0.136470588,6.83360279 0.39105377,6.57901961 0.705098039,6.57901961 L0.705098039,6.57901961 C1.01914231,6.57901961 1.27372549,6.83360279 1.27372549,7.14764706 L1.27372549,7.14764706 C1.27372549,7.46169133 1.01914231,7.71627451 0.705098039,7.71627451 L0.705098039,7.71627451 C0.39105377,7.71627451 0.136470588,7.46169133 0.136470588,7.14764706 L0.136470588,7.14764706 Z" id="Shape" fill="#FF5111"></path>
                <path d="M5.64647059,53.775098 C5.64647059,53.4610538 5.90105377,53.2064706 6.21509804,53.2064706 L6.21509804,53.2064706 C6.52914231,53.2064706 6.78372549,53.4610538 6.78372549,53.775098 L6.78372549,53.775098 C6.78372549,54.0891423 6.52914231,54.3437255 6.21509804,54.3437255 L6.21509804,54.3437255 C5.90105377,54.3437255 5.64647059,54.0891423 5.64647059,53.775098 L5.64647059,53.775098 Z M5.64647059,47.5201961 C5.64647059,47.2061518 5.90105377,46.9515686 6.21509804,46.9515686 L6.21509804,46.9515686 C6.52914231,46.9515686 6.78372549,47.2061518 6.78372549,47.5201961 L6.78372549,47.5201961 C6.78372549,47.8342403 6.52914231,48.0888235 6.21509804,48.0888235 L6.21509804,48.0888235 C5.90105377,48.0888235 5.64647059,47.8342403 5.64647059,47.5201961 L5.64647059,47.5201961 Z M5.64647059,41.2652941 C5.64647059,40.9512498 5.90105377,40.6966667 6.21509804,40.6966667 L6.21509804,40.6966667 C6.52914231,40.6966667 6.78372549,40.9512498 6.78372549,41.2652941 L6.78372549,41.2652941 C6.78372549,41.5793384 6.52914231,41.8339216 6.21509804,41.8339216 L6.21509804,41.8339216 C5.90105377,41.8339216 5.64647059,41.5793384 5.64647059,41.2652941 L5.64647059,41.2652941 Z M5.64647059,35.0103922 C5.64647059,34.6963479 5.90105377,34.4417647 6.21509804,34.4417647 L6.21509804,34.4417647 C6.52914231,34.4417647 6.78372549,34.6963479 6.78372549,35.0103922 L6.78372549,35.0103922 C6.78372549,35.3244364 6.52914231,35.5790196 6.21509804,35.5790196 L6.21509804,35.5790196 C5.90105377,35.5790196 5.64647059,35.3244364 5.64647059,35.0103922 L5.64647059,35.0103922 Z M5.64647059,28.7554902 C5.64647059,28.4414459 5.90105377,28.1868627 6.21509804,28.1868627 L6.21509804,28.1868627 C6.52914231,28.1868627 6.78372549,28.4414459 6.78372549,28.7554902 L6.78372549,28.7554902 C6.78372549,29.0695345 6.52914231,29.3241176 6.21509804,29.3241176 L6.21509804,29.3241176 C5.90105377,29.3241176 5.64647059,29.0695345 5.64647059,28.7554902 L5.64647059,28.7554902 Z M5.64647059,22.5005882 C5.64647059,22.186544 5.90105377,21.9319608 6.21509804,21.9319608 L6.21509804,21.9319608 C6.52914231,21.9319608 6.78372549,22.186544 6.78372549,22.5005882 L6.78372549,22.5005882 C6.78372549,22.8146325 6.52914231,23.0692157 6.21509804,23.0692157 L6.21509804,23.0692157 C5.90105377,23.0692157 5.64647059,22.8146325 5.64647059,22.5005882 L5.64647059,22.5005882 Z M5.64647059,16.2456863 C5.64647059,15.931642 5.90105377,15.6770588 6.21509804,15.6770588 L6.21509804,15.6770588 C6.52914231,15.6770588 6.78372549,15.931642 6.78372549,16.2456863 L6.78372549,16.2456863 C6.78372549,16.5597305 6.52914231,16.8143137 6.21509804,16.8143137 L6.21509804,16.8143137 C5.90105377,16.8143137 5.64647059,16.5597305 5.64647059,16.2456863 L5.64647059,16.2456863 Z M5.64647059,9.99078431 C5.64647059,9.67674004 5.90105377,9.42215686 6.21509804,9.42215686 L6.21509804,9.42215686 C6.52914231,9.42215686 6.78372549,9.67674004 6.78372549,9.99078431 L6.78372549,9.99078431 C6.78372549,10.3048286 6.52914231,10.5594118 6.21509804,10.5594118 L6.21509804,10.5594118 C5.90105377,10.5594118 5.64647059,10.3048286 5.64647059,9.99078431 L5.64647059,9.99078431 Z M5.64647059,3.73588235 C5.64647059,3.42183808 5.90105377,3.1672549 6.21509804,3.1672549 L6.21509804,3.1672549 C6.52914231,3.1672549 6.78372549,3.42183808 6.78372549,3.73588235 L6.78372549,3.73588235 C6.78372549,4.04992662 6.52914231,4.3045098 6.21509804,4.3045098 L6.21509804,4.3045098 C5.90105377,4.3045098 5.64647059,4.04992662 5.64647059,3.73588235 L5.64647059,3.73588235 Z" id="Shape" fill="#FF5111"></path>
                <path d="M10.9801961,57.067451 C10.9801961,56.7534067 11.2347793,56.4988235 11.5488235,56.4988235 L11.5488235,56.4988235 C11.8628678,56.4988235 12.117451,56.7534067 12.117451,57.067451 L12.117451,57.067451 C12.117451,57.3814952 11.8628678,57.6360784 11.5488235,57.6360784 L11.5488235,57.6360784 C11.2347793,57.6360784 10.9801961,57.3814952 10.9801961,57.067451 L10.9801961,57.067451 Z M10.9801961,50.812549 C10.9801961,50.4985048 11.2347793,50.2439216 11.5488235,50.2439216 L11.5488235,50.2439216 C11.8628678,50.2439216 12.117451,50.4985048 12.117451,50.812549 L12.117451,50.812549 C12.117451,51.1265933 11.8628678,51.3811765 11.5488235,51.3811765 L11.5488235,51.3811765 C11.2347793,51.3811765 10.9801961,51.1265933 10.9801961,50.812549 L10.9801961,50.812549 Z M10.9801961,44.5576471 C10.9801961,44.2436028 11.2347793,43.9890196 11.5488235,43.9890196 L11.5488235,43.9890196 C11.8628678,43.9890196 12.117451,44.2436028 12.117451,44.5576471 L12.117451,44.5576471 C12.117451,44.8716913 11.8628678,45.1262745 11.5488235,45.1262745 L11.5488235,45.1262745 C11.2347793,45.1262745 10.9801961,44.8716913 10.9801961,44.5576471 L10.9801961,44.5576471 Z M10.9801961,38.3027451 C10.9801961,37.9887008 11.2347793,37.7341176 11.5488235,37.7341176 L11.5488235,37.7341176 C11.8628678,37.7341176 12.117451,37.9887008 12.117451,38.3027451 L12.117451,38.3027451 C12.117451,38.6167894 11.8628678,38.8713725 11.5488235,38.8713725 L11.5488235,38.8713725 C11.2347793,38.8713725 10.9801961,38.6167894 10.9801961,38.3027451 L10.9801961,38.3027451 Z M10.9801961,32.0478431 C10.9801961,31.7337989 11.2347793,31.4792157 11.5488235,31.4792157 L11.5488235,31.4792157 C11.8628678,31.4792157 12.117451,31.7337989 12.117451,32.0478431 L12.117451,32.0478431 C12.117451,32.3618874 11.8628678,32.6164706 11.5488235,32.6164706 L11.5488235,32.6164706 C11.2347793,32.6164706 10.9801961,32.3618874 10.9801961,32.0478431 L10.9801961,32.0478431 Z M10.9801961,25.7929412 C10.9801961,25.4788969 11.2347793,25.2243137 11.5488235,25.2243137 L11.5488235,25.2243137 C11.8628678,25.2243137 12.117451,25.4788969 12.117451,25.7929412 L12.117451,25.7929412 C12.117451,26.1069854 11.8628678,26.3615686 11.5488235,26.3615686 L11.5488235,26.3615686 C11.2347793,26.3615686 10.9801961,26.1069854 10.9801961,25.7929412 L10.9801961,25.7929412 Z M10.9801961,19.5380392 C10.9801961,19.2239949 11.2347793,18.9694118 11.5488235,18.9694118 L11.5488235,18.9694118 C11.8628678,18.9694118 12.117451,19.2239949 12.117451,19.5380392 L12.117451,19.5380392 C12.117451,19.8520835 11.8628678,20.1066667 11.5488235,20.1066667 L11.5488235,20.1066667 C11.2347793,20.1066667 10.9801961,19.8520835 10.9801961,19.5380392 L10.9801961,19.5380392 Z M10.9801961,13.2831373 C10.9801961,12.969093 11.2347793,12.7145098 11.5488235,12.7145098 L11.5488235,12.7145098 C11.8628678,12.7145098 12.117451,12.969093 12.117451,13.2831373 L12.117451,13.2831373 C12.117451,13.5971815 11.8628678,13.8517647 11.5488235,13.8517647 L11.5488235,13.8517647 C11.2347793,13.8517647 10.9801961,13.5971815 10.9801961,13.2831373 L10.9801961,13.2831373 Z M10.9801961,7.02823529 C10.9801961,6.71419102 11.2347793,6.45960784 11.5488235,6.45960784 L11.5488235,6.45960784 C11.8628678,6.45960784 12.117451,6.71419102 12.117451,7.02823529 L12.117451,7.02823529 C12.117451,7.34227956 11.8628678,7.59686275 11.5488235,7.59686275 L11.5488235,7.59686275 C11.2347793,7.59686275 10.9801961,7.34227956 10.9801961,7.02823529 L10.9801961,7.02823529 Z M10.9801961,0.773333333 C10.9801961,0.459289064 11.2347793,0.204705882 11.5488235,0.204705882 L11.5488235,0.204705882 C11.8628678,0.204705882 12.117451,0.459289064 12.117451,0.773333333 L12.117451,0.773333333 C12.117451,1.0873776 11.8628678,1.34196078 11.5488235,1.34196078 L11.5488235,1.34196078 C11.2347793,1.34196078 10.9801961,1.0873776 10.9801961,0.773333333 L10.9801961,0.773333333 Z" id="Shape" fill="#FF5111"></path>
                <path d="M21.8182353,56.8627451 C21.8182353,56.5487008 22.0728185,56.2941176 22.3868627,56.2941176 L22.3868627,56.2941176 C22.700907,56.2941176 22.9554902,56.5487008 22.9554902,56.8627451 L22.9554902,56.8627451 C22.9554902,57.1767894 22.700907,57.4313725 22.3868627,57.4313725 L22.3868627,57.4313725 C22.0728185,57.4313725 21.8182353,57.1767894 21.8182353,56.8627451 L21.8182353,56.8627451 Z M21.8182353,50.6078431 C21.8182353,50.2937989 22.0728185,50.0392157 22.3868627,50.0392157 L22.3868627,50.0392157 C22.700907,50.0392157 22.9554902,50.2937989 22.9554902,50.6078431 L22.9554902,50.6078431 C22.9554902,50.9218874 22.700907,51.1764706 22.3868627,51.1764706 L22.3868627,51.1764706 C22.0728185,51.1764706 21.8182353,50.9218874 21.8182353,50.6078431 L21.8182353,50.6078431 Z M21.8182353,44.3529412 C21.8182353,44.0388969 22.0728185,43.7843137 22.3868627,43.7843137 L22.3868627,43.7843137 C22.700907,43.7843137 22.9554902,44.0388969 22.9554902,44.3529412 L22.9554902,44.3529412 C22.9554902,44.6669854 22.700907,44.9215686 22.3868627,44.9215686 L22.3868627,44.9215686 C22.0728185,44.9215686 21.8182353,44.6669854 21.8182353,44.3529412 L21.8182353,44.3529412 Z M21.8182353,38.0980392 C21.8182353,37.7839949 22.0728185,37.5294118 22.3868627,37.5294118 L22.3868627,37.5294118 C22.700907,37.5294118 22.9554902,37.7839949 22.9554902,38.0980392 L22.9554902,38.0980392 C22.9554902,38.4120835 22.700907,38.6666667 22.3868627,38.6666667 L22.3868627,38.6666667 C22.0728185,38.6666667 21.8182353,38.4120835 21.8182353,38.0980392 L21.8182353,38.0980392 Z M21.8182353,31.8431373 C21.8182353,31.529093 22.0728185,31.2745098 22.3868627,31.2745098 L22.3868627,31.2745098 C22.700907,31.2745098 22.9554902,31.529093 22.9554902,31.8431373 L22.9554902,31.8431373 C22.9554902,32.1571815 22.700907,32.4117647 22.3868627,32.4117647 L22.3868627,32.4117647 C22.0728185,32.4117647 21.8182353,32.1571815 21.8182353,31.8431373 L21.8182353,31.8431373 Z M21.8182353,25.5882353 C21.8182353,25.274191 22.0728185,25.0196078 22.3868627,25.0196078 L22.3868627,25.0196078 C22.700907,25.0196078 22.9554902,25.274191 22.9554902,25.5882353 L22.9554902,25.5882353 C22.9554902,25.9022796 22.700907,26.1568627 22.3868627,26.1568627 L22.3868627,26.1568627 C22.0728185,26.1568627 21.8182353,25.9022796 21.8182353,25.5882353 L21.8182353,25.5882353 Z M21.8182353,19.3333333 C21.8182353,19.0192891 22.0728185,18.7647059 22.3868627,18.7647059 L22.3868627,18.7647059 C22.700907,18.7647059 22.9554902,19.0192891 22.9554902,19.3333333 L22.9554902,19.3333333 C22.9554902,19.6473776 22.700907,19.9019608 22.3868627,19.9019608 L22.3868627,19.9019608 C22.0728185,19.9019608 21.8182353,19.6473776 21.8182353,19.3333333 L21.8182353,19.3333333 Z M21.8182353,13.0784314 C21.8182353,12.7643871 22.0728185,12.5098039 22.3868627,12.5098039 L22.3868627,12.5098039 C22.700907,12.5098039 22.9554902,12.7643871 22.9554902,13.0784314 L22.9554902,13.0784314 C22.9554902,13.3924756 22.700907,13.6470588 22.3868627,13.6470588 L22.3868627,13.6470588 C22.0728185,13.6470588 21.8182353,13.3924756 21.8182353,13.0784314 L21.8182353,13.0784314 Z M21.8182353,6.82352941 C21.8182353,6.50948514 22.0728185,6.25490196 22.3868627,6.25490196 L22.3868627,6.25490196 C22.700907,6.25490196 22.9554902,6.50948514 22.9554902,6.82352941 L22.9554902,6.82352941 C22.9554902,7.13757368 22.700907,7.39215686 22.3868627,7.39215686 L22.3868627,7.39215686 C22.0728185,7.39215686 21.8182353,7.13757368 21.8182353,6.82352941 L21.8182353,6.82352941 Z M21.8182353,0.568627451 C21.8182353,0.254583181 22.0728185,5.76889964e-17 22.3868627,0 L22.3868627,0 C22.700907,1.92296655e-17 22.9554902,0.254583181 22.9554902,0.568627451 L22.9554902,0.568627451 C22.9554902,0.88267172 22.700907,1.1372549 22.3868627,1.1372549 L22.3868627,1.1372549 C22.0728185,1.1372549 21.8182353,0.88267172 21.8182353,0.568627451 L21.8182353,0.568627451 Z" id="Shape" fill="#FF5111"></path>
                <path d="M27.3282353,54.1276471 C27.3282353,53.8136028 27.5828185,53.5590196 27.8968627,53.5590196 L27.8968627,53.5590196 C28.210907,53.5590196 28.4654902,53.8136028 28.4654902,54.1276471 L28.4654902,54.1276471 C28.4654902,54.4416913 28.210907,54.6962745 27.8968627,54.6962745 L27.8968627,54.6962745 C27.5828185,54.6962745 27.3282353,54.4416913 27.3282353,54.1276471 L27.3282353,54.1276471 Z M27.3282353,47.8727451 C27.3282353,47.5587008 27.5828185,47.3041176 27.8968627,47.3041176 L27.8968627,47.3041176 C28.210907,47.3041176 28.4654902,47.5587008 28.4654902,47.8727451 L28.4654902,47.8727451 C28.4654902,48.1867894 28.210907,48.4413725 27.8968627,48.4413725 L27.8968627,48.4413725 C27.5828185,48.4413725 27.3282353,48.1867894 27.3282353,47.8727451 L27.3282353,47.8727451 Z M27.3282353,41.6178431 C27.3282353,41.3037989 27.5828185,41.0492157 27.8968627,41.0492157 L27.8968627,41.0492157 C28.210907,41.0492157 28.4654902,41.3037989 28.4654902,41.6178431 L28.4654902,41.6178431 C28.4654902,41.9318874 28.210907,42.1864706 27.8968627,42.1864706 L27.8968627,42.1864706 C27.5828185,42.1864706 27.3282353,41.9318874 27.3282353,41.6178431 L27.3282353,41.6178431 Z M27.3282353,35.3629412 C27.3282353,35.0488969 27.5828185,34.7943137 27.8968627,34.7943137 L27.8968627,34.7943137 C28.210907,34.7943137 28.4654902,35.0488969 28.4654902,35.3629412 L28.4654902,35.3629412 C28.4654902,35.6769854 28.210907,35.9315686 27.8968627,35.9315686 L27.8968627,35.9315686 C27.5828185,35.9315686 27.3282353,35.6769854 27.3282353,35.3629412 L27.3282353,35.3629412 Z M27.3282353,29.1080392 C27.3282353,28.7939949 27.5828185,28.5394118 27.8968627,28.5394118 L27.8968627,28.5394118 C28.210907,28.5394118 28.4654902,28.7939949 28.4654902,29.1080392 L28.4654902,29.1080392 C28.4654902,29.4220835 28.210907,29.6766667 27.8968627,29.6766667 L27.8968627,29.6766667 C27.5828185,29.6766667 27.3282353,29.4220835 27.3282353,29.1080392 L27.3282353,29.1080392 Z M27.3282353,22.8531373 C27.3282353,22.539093 27.5828185,22.2845098 27.8968627,22.2845098 L27.8968627,22.2845098 C28.210907,22.2845098 28.4654902,22.539093 28.4654902,22.8531373 L28.4654902,22.8531373 C28.4654902,23.1671815 28.210907,23.4217647 27.8968627,23.4217647 L27.8968627,23.4217647 C27.5828185,23.4217647 27.3282353,23.1671815 27.3282353,22.8531373 L27.3282353,22.8531373 Z M27.3282353,16.5982353 C27.3282353,16.284191 27.5828185,16.0296078 27.8968627,16.0296078 L27.8968627,16.0296078 C28.210907,16.0296078 28.4654902,16.284191 28.4654902,16.5982353 L28.4654902,16.5982353 C28.4654902,16.9122796 28.210907,17.1668627 27.8968627,17.1668627 L27.8968627,17.1668627 C27.5828185,17.1668627 27.3282353,16.9122796 27.3282353,16.5982353 L27.3282353,16.5982353 Z M27.3282353,10.3433333 C27.3282353,10.0292891 27.5828185,9.77470588 27.8968627,9.77470588 L27.8968627,9.77470588 C28.210907,9.77470588 28.4654902,10.0292891 28.4654902,10.3433333 L28.4654902,10.3433333 C28.4654902,10.6573776 28.210907,10.9119608 27.8968627,10.9119608 L27.8968627,10.9119608 C27.5828185,10.9119608 27.3282353,10.6573776 27.3282353,10.3433333 L27.3282353,10.3433333 Z M27.3282353,4.08843137 C27.3282353,3.7743871 27.5828185,3.51980392 27.8968627,3.51980392 L27.8968627,3.51980392 C28.210907,3.51980392 28.4654902,3.7743871 28.4654902,4.08843137 L28.4654902,4.08843137 C28.4654902,4.40247564 28.210907,4.65705882 27.8968627,4.65705882 L27.8968627,4.65705882 C27.5828185,4.65705882 27.3282353,4.40247564 27.3282353,4.08843137 L27.3282353,4.08843137 Z" id="Shape" fill="#FF5111"></path>
                <path d="M32.832549,50.9319608 C32.832549,50.6179165 33.0871322,50.3633333 33.4011765,50.3633333 L33.4011765,50.3633333 C33.7152207,50.3633333 33.9698039,50.6179165 33.9698039,50.9319608 L33.9698039,50.9319608 C33.9698039,51.2460051 33.7152207,51.5005882 33.4011765,51.5005882 L33.4011765,51.5005882 C33.0871322,51.5005882 32.832549,51.2460051 32.832549,50.9319608 L32.832549,50.9319608 Z M32.832549,44.6770588 C32.832549,44.3630146 33.0871322,44.1084314 33.4011765,44.1084314 L33.4011765,44.1084314 C33.7152207,44.1084314 33.9698039,44.3630146 33.9698039,44.6770588 L33.9698039,44.6770588 C33.9698039,44.9911031 33.7152207,45.2456863 33.4011765,45.2456863 L33.4011765,45.2456863 C33.0871322,45.2456863 32.832549,44.9911031 32.832549,44.6770588 L32.832549,44.6770588 Z M32.832549,38.4221569 C32.832549,38.1081126 33.0871322,37.8535294 33.4011765,37.8535294 L33.4011765,37.8535294 C33.7152207,37.8535294 33.9698039,38.1081126 33.9698039,38.4221569 L33.9698039,38.4221569 C33.9698039,38.7362011 33.7152207,38.9907843 33.4011765,38.9907843 L33.4011765,38.9907843 C33.0871322,38.9907843 32.832549,38.7362011 32.832549,38.4221569 L32.832549,38.4221569 Z M32.832549,32.1672549 C32.832549,31.8532106 33.0871322,31.5986275 33.4011765,31.5986275 L33.4011765,31.5986275 C33.7152207,31.5986275 33.9698039,31.8532106 33.9698039,32.1672549 L33.9698039,32.1672549 C33.9698039,32.4812992 33.7152207,32.7358824 33.4011765,32.7358824 L33.4011765,32.7358824 C33.0871322,32.7358824 32.832549,32.4812992 32.832549,32.1672549 L32.832549,32.1672549 Z M32.832549,25.9123529 C32.832549,25.5983087 33.0871322,25.3437255 33.4011765,25.3437255 L33.4011765,25.3437255 C33.7152207,25.3437255 33.9698039,25.5983087 33.9698039,25.9123529 L33.9698039,25.9123529 C33.9698039,26.2263972 33.7152207,26.4809804 33.4011765,26.4809804 L33.4011765,26.4809804 C33.0871322,26.4809804 32.832549,26.2263972 32.832549,25.9123529 L32.832549,25.9123529 Z M32.832549,19.657451 C32.832549,19.3434067 33.0871322,19.0888235 33.4011765,19.0888235 L33.4011765,19.0888235 C33.7152207,19.0888235 33.9698039,19.3434067 33.9698039,19.657451 L33.9698039,19.657451 C33.9698039,19.9714952 33.7152207,20.2260784 33.4011765,20.2260784 L33.4011765,20.2260784 C33.0871322,20.2260784 32.832549,19.9714952 32.832549,19.657451 L32.832549,19.657451 Z M32.832549,13.402549 C32.832549,13.0885048 33.0871322,12.8339216 33.4011765,12.8339216 L33.4011765,12.8339216 C33.7152207,12.8339216 33.9698039,13.0885048 33.9698039,13.402549 L33.9698039,13.402549 C33.9698039,13.7165933 33.7152207,13.9711765 33.4011765,13.9711765 L33.4011765,13.9711765 C33.0871322,13.9711765 32.832549,13.7165933 32.832549,13.402549 L32.832549,13.402549 Z M32.832549,7.14764706 C32.832549,6.83360279 33.0871322,6.57901961 33.4011765,6.57901961 L33.4011765,6.57901961 C33.7152207,6.57901961 33.9698039,6.83360279 33.9698039,7.14764706 L33.9698039,7.14764706 C33.9698039,7.46169133 33.7152207,7.71627451 33.4011765,7.71627451 L33.4011765,7.71627451 C33.0871322,7.71627451 32.832549,7.46169133 32.832549,7.14764706 L32.832549,7.14764706 Z" id="Shape" fill="#FF5111"></path>
                <path d="M38.1662745,47.5543137 C38.1662745,47.2402695 38.4208577,46.9856863 38.734902,46.9856863 L38.734902,46.9856863 C39.0489462,46.9856863 39.3035294,47.2402695 39.3035294,47.5543137 L39.3035294,47.5543137 C39.3035294,47.868358 39.0489462,48.1229412 38.734902,48.1229412 L38.734902,48.1229412 C38.4208577,48.1229412 38.1662745,47.868358 38.1662745,47.5543137 L38.1662745,47.5543137 Z M38.1662745,41.2994118 C38.1662745,40.9853675 38.4208577,40.7307843 38.734902,40.7307843 L38.734902,40.7307843 C39.0489462,40.7307843 39.3035294,40.9853675 39.3035294,41.2994118 L39.3035294,41.2994118 C39.3035294,41.613456 39.0489462,41.8680392 38.734902,41.8680392 L38.734902,41.8680392 C38.4208577,41.8680392 38.1662745,41.613456 38.1662745,41.2994118 L38.1662745,41.2994118 Z M38.1662745,35.0445098 C38.1662745,34.7304655 38.4208577,34.4758824 38.734902,34.4758824 L38.734902,34.4758824 C39.0489462,34.4758824 39.3035294,34.7304655 39.3035294,35.0445098 L39.3035294,35.0445098 C39.3035294,35.3585541 39.0489462,35.6131373 38.734902,35.6131373 L38.734902,35.6131373 C38.4208577,35.6131373 38.1662745,35.3585541 38.1662745,35.0445098 L38.1662745,35.0445098 Z M38.1662745,28.7896078 C38.1662745,28.4755636 38.4208577,28.2209804 38.734902,28.2209804 L38.734902,28.2209804 C39.0489462,28.2209804 39.3035294,28.4755636 39.3035294,28.7896078 L39.3035294,28.7896078 C39.3035294,29.1036521 39.0489462,29.3582353 38.734902,29.3582353 L38.734902,29.3582353 C38.4208577,29.3582353 38.1662745,29.1036521 38.1662745,28.7896078 L38.1662745,28.7896078 Z M38.1662745,22.5347059 C38.1662745,22.2206616 38.4208577,21.9660784 38.734902,21.9660784 L38.734902,21.9660784 C39.0489462,21.9660784 39.3035294,22.2206616 39.3035294,22.5347059 L39.3035294,22.5347059 C39.3035294,22.8487502 39.0489462,23.1033333 38.734902,23.1033333 L38.734902,23.1033333 C38.4208577,23.1033333 38.1662745,22.8487502 38.1662745,22.5347059 L38.1662745,22.5347059 Z M38.1662745,16.2798039 C38.1662745,15.9657597 38.4208577,15.7111765 38.734902,15.7111765 L38.734902,15.7111765 C39.0489462,15.7111765 39.3035294,15.9657597 39.3035294,16.2798039 L39.3035294,16.2798039 C39.3035294,16.5938482 39.0489462,16.8484314 38.734902,16.8484314 L38.734902,16.8484314 C38.4208577,16.8484314 38.1662745,16.5938482 38.1662745,16.2798039 L38.1662745,16.2798039 Z M38.1662745,10.024902 C38.1662745,9.71085769 38.4208577,9.45627451 38.734902,9.45627451 L38.734902,9.45627451 C39.0489462,9.45627451 39.3035294,9.71085769 39.3035294,10.024902 L39.3035294,10.024902 C39.3035294,10.3389462 39.0489462,10.5935294 38.734902,10.5935294 L38.734902,10.5935294 C38.4208577,10.5935294 38.1662745,10.3389462 38.1662745,10.024902 L38.1662745,10.024902 Z" id="Shape" fill="#FF5111"></path>
                <path d="M43.6762745,44.534902 C43.6762745,44.2208577 43.9308577,43.9662745 44.244902,43.9662745 L44.244902,43.9662745 C44.5589462,43.9662745 44.8135294,44.2208577 44.8135294,44.534902 L44.8135294,44.534902 C44.8135294,44.8489462 44.5589462,45.1035294 44.244902,45.1035294 L44.244902,45.1035294 C43.9308577,45.1035294 43.6762745,44.8489462 43.6762745,44.534902 L43.6762745,44.534902 Z M43.6762745,38.28 C43.6762745,37.9659557 43.9308577,37.7113725 44.244902,37.7113725 L44.244902,37.7113725 C44.5589462,37.7113725 44.8135294,37.9659557 44.8135294,38.28 L44.8135294,38.28 C44.8135294,38.5940443 44.5589462,38.8486275 44.244902,38.8486275 L44.244902,38.8486275 C43.9308577,38.8486275 43.6762745,38.5940443 43.6762745,38.28 L43.6762745,38.28 Z M43.6762745,32.025098 C43.6762745,31.7110538 43.9308577,31.4564706 44.244902,31.4564706 L44.244902,31.4564706 C44.5589462,31.4564706 44.8135294,31.7110538 44.8135294,32.025098 L44.8135294,32.025098 C44.8135294,32.3391423 44.5589462,32.5937255 44.244902,32.5937255 L44.244902,32.5937255 C43.9308577,32.5937255 43.6762745,32.3391423 43.6762745,32.025098 L43.6762745,32.025098 Z M43.6762745,25.7701961 C43.6762745,25.4561518 43.9308577,25.2015686 44.244902,25.2015686 L44.244902,25.2015686 C44.5589462,25.2015686 44.8135294,25.4561518 44.8135294,25.7701961 L44.8135294,25.7701961 C44.8135294,26.0842403 44.5589462,26.3388235 44.244902,26.3388235 L44.244902,26.3388235 C43.9308577,26.3388235 43.6762745,26.0842403 43.6762745,25.7701961 L43.6762745,25.7701961 Z M43.6762745,19.5152941 C43.6762745,19.2012498 43.9308577,18.9466667 44.244902,18.9466667 L44.244902,18.9466667 C44.5589462,18.9466667 44.8135294,19.2012498 44.8135294,19.5152941 L44.8135294,19.5152941 C44.8135294,19.8293384 44.5589462,20.0839216 44.244902,20.0839216 L44.244902,20.0839216 C43.9308577,20.0839216 43.6762745,19.8293384 43.6762745,19.5152941 L43.6762745,19.5152941 Z M43.6762745,13.2603922 C43.6762745,12.9463479 43.9308577,12.6917647 44.244902,12.6917647 L44.244902,12.6917647 C44.5589462,12.6917647 44.8135294,12.9463479 44.8135294,13.2603922 L44.8135294,13.2603922 C44.8135294,13.5744364 44.5589462,13.8290196 44.244902,13.8290196 L44.244902,13.8290196 C43.9308577,13.8290196 43.6762745,13.5744364 43.6762745,13.2603922 L43.6762745,13.2603922 Z" id="Shape" fill="#FF5111"></path>
                <path d="M5.22,47.5543137 C5.22,47.0047363 5.66552057,46.5592157 6.21509804,46.5592157 L6.21509804,46.5592157 C6.76467551,46.5592157 7.21019608,47.0047363 7.21019608,47.5543137 L7.21019608,47.5543137 C7.21019608,48.1038912 6.76467551,48.5494118 6.21509804,48.5494118 L6.21509804,48.5494118 C5.66552057,48.5494118 5.22,48.1038912 5.22,47.5543137 L5.22,47.5543137 Z M5.22,41.2994118 C5.22,40.7498343 5.66552057,40.3043137 6.21509804,40.3043137 L6.21509804,40.3043137 C6.76467551,40.3043137 7.21019608,40.7498343 7.21019608,41.2994118 L7.21019608,41.2994118 C7.21019608,41.8489892 6.76467551,42.2945098 6.21509804,42.2945098 L6.21509804,42.2945098 C5.66552057,42.2945098 5.22,41.8489892 5.22,41.2994118 L5.22,41.2994118 Z M5.22,35.0445098 C5.22,34.4949323 5.66552057,34.0494118 6.21509804,34.0494118 L6.21509804,34.0494118 C6.76467551,34.0494118 7.21019608,34.4949323 7.21019608,35.0445098 L7.21019608,35.0445098 C7.21019608,35.5940873 6.76467551,36.0396078 6.21509804,36.0396078 L6.21509804,36.0396078 C5.66552057,36.0396078 5.22,35.5940873 5.22,35.0445098 L5.22,35.0445098 Z M5.22,28.7896078 C5.22,28.2400304 5.66552057,27.7945098 6.21509804,27.7945098 L6.21509804,27.7945098 C6.76467551,27.7945098 7.21019608,28.2400304 7.21019608,28.7896078 L7.21019608,28.7896078 C7.21019608,29.3391853 6.76467551,29.7847059 6.21509804,29.7847059 L6.21509804,29.7847059 C5.66552057,29.7847059 5.22,29.3391853 5.22,28.7896078 L5.22,28.7896078 Z M5.22,22.5347059 C5.22,21.9851284 5.66552057,21.5396078 6.21509804,21.5396078 L6.21509804,21.5396078 C6.76467551,21.5396078 7.21019608,21.9851284 7.21019608,22.5347059 L7.21019608,22.5347059 C7.21019608,23.0842834 6.76467551,23.5298039 6.21509804,23.5298039 L6.21509804,23.5298039 C5.66552057,23.5298039 5.22,23.0842834 5.22,22.5347059 L5.22,22.5347059 Z M5.22,16.2798039 C5.22,15.7302264 5.66552057,15.2847059 6.21509804,15.2847059 L6.21509804,15.2847059 C6.76467551,15.2847059 7.21019608,15.7302264 7.21019608,16.2798039 L7.21019608,16.2798039 C7.21019608,16.8293814 6.76467551,17.274902 6.21509804,17.274902 L6.21509804,17.274902 C5.66552057,17.274902 5.22,16.8293814 5.22,16.2798039 L5.22,16.2798039 Z M5.22,10.024902 C5.22,9.47532449 5.66552057,9.02980392 6.21509804,9.02980392 L6.21509804,9.02980392 C6.76467551,9.02980392 7.21019608,9.47532449 7.21019608,10.024902 L7.21019608,10.024902 C7.21019608,10.5744794 6.76467551,11.02 6.21509804,11.02 L6.21509804,11.02 C5.66552057,11.02 5.22,10.5744794 5.22,10.024902 L5.22,10.024902 Z" id="Shape" fill="#FF5111"></path>
                <path d="M10.1272549,50.9319608 C10.1272549,50.1468501 10.7637129,49.5103922 11.5488235,49.5103922 L11.5488235,49.5103922 C12.3339342,49.5103922 12.9703922,50.1468501 12.9703922,50.9319608 L12.9703922,50.9319608 C12.9703922,51.7170715 12.3339342,52.3535294 11.5488235,52.3535294 L11.5488235,52.3535294 C10.7637129,52.3535294 10.1272549,51.7170715 10.1272549,50.9319608 L10.1272549,50.9319608 Z M10.1272549,44.6770588 C10.1257358,44.2995717 10.2750199,43.9371069 10.5419458,43.6701811 C10.8088716,43.4032552 11.1713364,43.2539711 11.5488235,43.2554902 L11.5488235,43.2554902 C11.9263106,43.2539711 12.2887754,43.4032552 12.5557013,43.6701811 C12.8226271,43.9371069 12.9719112,44.2995717 12.9703922,44.6770588 L12.9703922,44.6770588 C12.9703922,45.4621695 12.3339342,46.0986275 11.5488235,46.0986275 L11.5488235,46.0986275 C11.1718001,46.0986275 10.8102185,45.9488555 10.5436227,45.6822596 C10.2770269,45.4156638 10.1272549,45.0540823 10.1272549,44.6770588 L10.1272549,44.6770588 Z M10.1272549,38.4221569 C10.1272549,37.6370462 10.7637129,37.0005882 11.5488235,37.0005882 L11.5488235,37.0005882 C12.3339342,37.0005882 12.9703922,37.6370462 12.9703922,38.4221569 L12.9703922,38.4221569 C12.9703922,39.2072675 12.3339342,39.8437255 11.5488235,39.8437255 L11.5488235,39.8437255 C10.7637129,39.8437255 10.1272549,39.2072675 10.1272549,38.4221569 L10.1272549,38.4221569 Z M10.1272549,32.1672549 C10.1272549,31.3821442 10.7637129,30.7456863 11.5488235,30.7456863 L11.5488235,30.7456863 C12.3339342,30.7456863 12.9703922,31.3821442 12.9703922,32.1672549 L12.9703922,32.1672549 C12.9703922,32.9523656 12.3339342,33.5888235 11.5488235,33.5888235 L11.5488235,33.5888235 C10.7637129,33.5888235 10.1272549,32.9523656 10.1272549,32.1672549 L10.1272549,32.1672549 Z M10.1272549,25.9123529 C10.1272549,25.1272423 10.7637129,24.4907843 11.5488235,24.4907843 L11.5488235,24.4907843 C12.3339342,24.4907843 12.9703922,25.1272423 12.9703922,25.9123529 L12.9703922,25.9123529 C12.9703922,26.6974636 12.3339342,27.3339216 11.5488235,27.3339216 L11.5488235,27.3339216 C10.7637129,27.3339216 10.1272549,26.6974636 10.1272549,25.9123529 L10.1272549,25.9123529 Z M10.1272549,19.657451 C10.1272549,18.8723403 10.7637129,18.2358824 11.5488235,18.2358824 L11.5488235,18.2358824 C12.3339342,18.2358824 12.9703922,18.8723403 12.9703922,19.657451 L12.9703922,19.657451 C12.9703922,20.4425617 12.3339342,21.0790196 11.5488235,21.0790196 L11.5488235,21.0790196 C10.7637129,21.0790196 10.1272549,20.4425617 10.1272549,19.657451 L10.1272549,19.657451 Z M10.1272549,13.402549 C10.1272549,12.6174383 10.7637129,11.9809804 11.5488235,11.9809804 L11.5488235,11.9809804 C12.3339342,11.9809804 12.9703922,12.6174383 12.9703922,13.402549 L12.9703922,13.402549 C12.9703922,14.1876597 12.3339342,14.8241176 11.5488235,14.8241176 L11.5488235,14.8241176 C10.7637129,14.8241176 10.1272549,14.1876597 10.1272549,13.402549 L10.1272549,13.402549 Z M10.1272549,7.14764706 C10.1272549,6.36253639 10.7637129,5.72607843 11.5488235,5.72607843 L11.5488235,5.72607843 C12.3339342,5.72607843 12.9703922,6.36253639 12.9703922,7.14764706 L12.9703922,7.14764706 C12.9703922,7.93275773 12.3339342,8.56921569 11.5488235,8.56921569 L11.5488235,8.56921569 C10.7637129,8.56921569 10.1272549,7.93275773 10.1272549,7.14764706 L10.1272549,7.14764706 Z" id="Shape" fill="#FF5111"></path>
                <path d="M4.06255399e-14,44.534902 C-0.00153025102,44.3459253 0.0728642441,44.164244 0.206495319,44.030613 C0.340126393,43.8969819 0.521807631,43.8225874 0.710784314,43.8241176 L0.710784314,43.8241176 C1.10205126,43.8272108 1.41847546,44.143635 1.42156863,44.534902 L1.42156863,44.534902 C1.41847546,44.9261689 1.10205126,45.2425931 0.710784314,45.2456863 L0.710784314,45.2456863 C0.521807631,45.2472165 0.340126393,45.172822 0.206495319,45.039191 C0.0728642441,44.9055599 -0.00153025102,44.7238786 4.07038193e-14,44.534902 L4.06255399e-14,44.534902 Z M4.06231919e-14,38.28 C-0.00153025102,38.0910233 0.0728642441,37.9093421 0.206495319,37.775711 C0.340126393,37.6420799 0.521807631,37.5676854 0.710784314,37.5692157 L0.710784314,37.5692157 C1.10205126,37.5723089 1.41847546,37.8887331 1.42156863,38.28 L1.42156863,38.28 C1.41847546,38.6712669 1.10205126,38.9876911 0.710784314,38.9907843 L0.710784314,38.9907843 C0.521807631,38.9923146 0.340126393,38.9179201 0.206495319,38.784289 C0.0728642441,38.6506579 -0.00153025102,38.4689767 4.07014679e-14,38.28 L4.06231919e-14,38.28 Z M4.06255399e-14,32.025098 C-0.00153025102,31.8361214 0.0728642441,31.6544401 0.206495319,31.520809 C0.340126393,31.387178 0.521807631,31.3127835 0.710784314,31.3143137 L0.710784314,31.3143137 C1.10205126,31.3174069 1.41847546,31.6338311 1.42156863,32.025098 L1.42156863,32.025098 C1.41847546,32.416365 1.10205126,32.7327892 0.710784314,32.7358824 L0.710784314,32.7358824 C0.521807631,32.7374126 0.340126393,32.6630181 0.206495319,32.529387 C0.0728642441,32.395756 -0.00153025102,32.2140747 4.06255399e-14,32.025098 L4.06255399e-14,32.025098 Z M4.06959114e-14,25.7701961 C-0.00153025102,25.5812194 0.0728642441,25.3995382 0.206495319,25.2659071 C0.340126393,25.132276 0.521807631,25.0578815 0.710784314,25.0594118 L0.710784314,25.0594118 C1.10205126,25.0625049 1.41847546,25.3789291 1.42156863,25.7701961 L1.42156863,25.7701961 C1.41847546,26.161463 1.10205126,26.4778872 0.710784314,26.4809804 L0.710784314,26.4809804 C0.521807631,26.4825106 0.340126393,26.4081161 0.206495319,26.2744851 C0.0728642441,26.140854 -0.00153025102,25.9591728 4.06959114e-14,25.7701961 L4.06959114e-14,25.7701961 Z M4.06959114e-14,19.5152941 C-0.00153025102,19.3263174 0.0728642441,19.1446362 0.206495319,19.0110051 C0.340126393,18.877374 0.521807631,18.8029796 0.710784314,18.8045098 L0.710784314,18.8045098 C0.899296034,18.8045098 1.08008681,18.8793958 1.21338472,19.0126937 C1.34668264,19.1459916 1.42156863,19.3267824 1.42156863,19.5152941 L1.42156863,19.5152941 C1.41847546,19.9065611 1.10205126,20.2229853 0.710784314,20.2260784 L0.710784314,20.2260784 C0.522272593,20.2260784 0.341481822,20.1511924 0.208183906,20.0178945 C0.0748859895,19.8845966 4.00492661e-14,19.7038058 4.06959114e-14,19.5152941 L4.06959114e-14,19.5152941 Z M4.06959114e-14,13.2603922 C-0.00153025102,13.0714155 0.0728642441,12.8897342 0.206495319,12.7561032 C0.340126393,12.6224721 0.521807631,12.5480776 0.710784314,12.5496078 L0.710784314,12.5496078 C1.10205126,12.552701 1.41847546,12.8691252 1.42156863,13.2603922 L1.42156863,13.2603922 C1.41847546,13.6516591 1.10205126,13.9680833 0.710784314,13.9711765 L0.710784314,13.9711765 C0.521807631,13.9727067 0.340126393,13.8983122 0.206495319,13.7646812 C0.0728642441,13.6310501 -0.00153025102,13.4493688 4.07741908e-14,13.2603922 L4.06959114e-14,13.2603922 Z" id="Shape" fill="#FF5111"></path>
                <path d="M14.7843137,53.775098 C14.7843137,52.518921 15.8026465,51.5005882 17.0588235,51.5005882 L17.0588235,51.5005882 C18.3150006,51.5005882 19.3333333,52.518921 19.3333333,53.775098 L19.3333333,53.775098 C19.3333333,55.0312751 18.3150006,56.0496078 17.0588235,56.0496078 L17.0588235,56.0496078 C15.8026465,56.0496078 14.7843137,55.0312751 14.7843137,53.775098 L14.7843137,53.775098 Z M14.7843137,47.5201961 C14.7843137,46.264019 15.8026465,45.2456863 17.0588235,45.2456863 L17.0588235,45.2456863 C18.3150006,45.2456863 19.3333333,46.264019 19.3333333,47.5201961 L19.3333333,47.5201961 C19.3333333,48.7763732 18.3150006,49.7947059 17.0588235,49.7947059 L17.0588235,49.7947059 C15.8026465,49.7947059 14.7843137,48.7763732 14.7843137,47.5201961 L14.7843137,47.5201961 Z M14.7843137,41.2652941 C14.7843137,40.009117 15.8026465,38.9907843 17.0588235,38.9907843 L17.0588235,38.9907843 C18.3150006,38.9907843 19.3333333,40.009117 19.3333333,41.2652941 L19.3333333,41.2652941 C19.3333333,42.5214712 18.3150006,43.5398039 17.0588235,43.5398039 L17.0588235,43.5398039 C15.8026465,43.5398039 14.7843137,42.5214712 14.7843137,41.2652941 L14.7843137,41.2652941 Z M14.7843137,35.0103922 C14.7843137,33.7542151 15.8026465,32.7358824 17.0588235,32.7358824 L17.0588235,32.7358824 C18.3150006,32.7358824 19.3333333,33.7542151 19.3333333,35.0103922 L19.3333333,35.0103922 C19.3333333,36.2665692 18.3150006,37.284902 17.0588235,37.284902 L17.0588235,37.284902 C15.8026465,37.284902 14.7843137,36.2665692 14.7843137,35.0103922 L14.7843137,35.0103922 Z M14.7843137,28.7554902 C14.7843137,27.4993131 15.8026465,26.4809804 17.0588235,26.4809804 L17.0588235,26.4809804 C18.3150006,26.4809804 19.3333333,27.4993131 19.3333333,28.7554902 L19.3333333,28.7554902 C19.3333333,30.0116673 18.3150006,31.03 17.0588235,31.03 L17.0588235,31.03 C15.8026465,31.03 14.7843137,30.0116673 14.7843137,28.7554902 L14.7843137,28.7554902 Z M14.7843137,22.5005882 C14.7843137,21.2444112 15.8026465,20.2260784 17.0588235,20.2260784 L17.0588235,20.2260784 C18.3150006,20.2260784 19.3333333,21.2444112 19.3333333,22.5005882 L19.3333333,22.5005882 C19.3333333,23.7567653 18.3150006,24.775098 17.0588235,24.775098 L17.0588235,24.775098 C15.8026465,24.775098 14.7843137,23.7567653 14.7843137,22.5005882 L14.7843137,22.5005882 Z M14.7843137,16.2456863 C14.7843137,14.9895092 15.8026465,13.9711765 17.0588235,13.9711765 L17.0588235,13.9711765 C18.3150006,13.9711765 19.3333333,14.9895092 19.3333333,16.2456863 L19.3333333,16.2456863 C19.3333333,17.5018634 18.3150006,18.5201961 17.0588235,18.5201961 L17.0588235,18.5201961 C15.8026465,18.5201961 14.7843137,17.5018634 14.7843137,16.2456863 L14.7843137,16.2456863 Z M14.7843137,9.99078431 C14.7843137,8.73460724 15.8026465,7.71627451 17.0588235,7.71627451 L17.0588235,7.71627451 C18.3150006,7.71627451 19.3333333,8.73460724 19.3333333,9.99078431 L19.3333333,9.99078431 C19.3333333,11.2469614 18.3150006,12.2652941 17.0588235,12.2652941 L17.0588235,12.2652941 C15.8026465,12.2652941 14.7843137,11.2469614 14.7843137,9.99078431 L14.7843137,9.99078431 Z M14.7843137,3.73588235 C14.7843137,2.47970527 15.8026465,1.46137255 17.0588235,1.46137255 L17.0588235,1.46137255 C18.3150006,1.46137255 19.3333333,2.47970527 19.3333333,3.73588235 L19.3333333,3.73588235 C19.3333333,4.99205943 18.3150006,6.01039216 17.0588235,6.01039216 L17.0588235,6.01039216 C15.8026465,6.01039216 14.7843137,4.99205943 14.7843137,3.73588235 L14.7843137,3.73588235 Z" id="Shape" fill="#FF5111"></path>
                <path d="M37.284902,18.2984314 C36.2094764,17.6498001 35.8632835,16.2523009 36.5115686,15.1766667 L36.5115686,15.1766667 C37.1601999,14.1012411 38.5576991,13.7550482 39.6333333,14.4033333 L39.6333333,14.4033333 C40.7087589,15.0519646 41.0549518,16.4494638 40.4066667,17.525098 L40.4066667,17.525098 C39.9939197,18.2075756 39.2538543,18.6239973 38.4562745,18.622549 L38.4562745,18.622549 C38.0433715,18.6248025 37.6379174,18.5126137 37.284902,18.2984314 L37.284902,18.2984314 Z M31.9227451,15.0686275 C31.4056892,14.7561747 31.0341791,14.2508563 30.8901674,13.6641416 C30.7461556,13.0774269 30.8414747,12.4575232 31.155098,11.9411765 L31.155098,11.9411765 C31.8037293,10.8657509 33.2012285,10.519558 34.2768627,11.1678431 L34.2768627,11.1678431 C35.3522883,11.8164744 35.6984812,13.2139736 35.0501961,14.2896078 L35.0501961,14.2896078 C34.6374492,14.9720854 33.8973837,15.3885071 33.0998039,15.3870588 L33.0998039,15.3870588 C32.6857816,15.3900244 32.2788028,15.2799239 31.9227451,15.0686275 L31.9227451,15.0686275 Z M26.5662745,11.8388235 C25.490849,11.1901923 25.1446561,9.7926931 25.7929412,8.71705882 L25.7929412,8.71705882 C26.4472902,7.64772708 27.8435177,7.30947889 28.9147059,7.96078431 L28.9147059,7.96078431 C29.9901314,8.60941559 30.3363243,10.0069147 29.6880392,11.082549 L29.6880392,11.082549 C29.2763401,11.7632916 28.5388874,12.1794564 27.7433333,12.18 L27.7433333,12.18 C27.3271553,12.1761072 26.9200231,12.0580979 26.5662745,11.8388235 L26.5662745,11.8388235 Z M21.2098039,8.60901961 C20.1343784,7.96038833 19.7881855,6.56288918 20.4364706,5.4872549 L20.4364706,5.4872549 C21.0851019,4.41182935 22.482601,4.06563648 23.5582353,4.71392157 L23.5582353,4.71392157 C24.6336609,5.36255285 24.9798537,6.760052 24.3315686,7.83568627 L24.3315686,7.83568627 C23.9188217,8.51816385 23.1787563,8.9345855 22.3811765,8.93313725 L22.3811765,8.93313725 C21.9685475,8.93335009 21.5636333,8.82131071 21.2098039,8.60901961 L21.2098039,8.60901961 Z" id="Shape" fill="#FF5111"></path>
                <path d="M20.4705882,26.68 C20.1782071,26.1515319 20.108013,25.5284759 20.2754822,24.9482007 C20.4429513,24.3679255 20.8343316,23.8780812 21.3633333,23.5866667 L21.3633333,23.5866667 C22.4641019,22.9825262 23.8461968,23.3846827 24.4509804,24.485098 L24.4509804,24.485098 C25.0551209,25.5858666 24.6529643,26.9679615 23.552549,27.5727451 L23.552549,27.5727451 C23.2171561,27.7600349 22.83924,27.8579406 22.455098,27.8570588 L22.455098,27.8570588 C21.6289134,27.8542505 20.8692199,27.4036586 20.4705882,26.68 L20.4705882,26.68 Z M25.9464706,23.6605882 C25.3423301,22.5598197 25.7444866,21.1777248 26.844902,20.5729412 L26.844902,20.5729412 C27.9456705,19.9688007 29.3277654,20.3709572 29.932549,21.4713725 L29.932549,21.4713725 C30.2200259,22.0041485 30.2832477,22.6295472 30.1082143,23.2090785 C29.9331809,23.7886097 29.5343357,24.2744523 29,24.5590196 L29,24.5590196 C28.6640435,24.7448999 28.2864994,24.8427093 27.902549,24.8433333 L27.902549,24.8433333 C27.0792454,24.8352689 26.324577,24.3829028 25.9294118,23.6605882 L25.9464706,23.6605882 Z M31.4280392,20.6468627 C30.8229926,19.5475897 31.2224618,18.165986 32.3207843,17.5592157 L32.3207843,17.5592157 C32.8492524,17.2668345 33.4723084,17.1966405 34.0525836,17.3641096 C34.6328588,17.5315787 35.1227031,17.9229591 35.4141176,18.4519608 L35.4141176,18.4519608 C35.7064988,18.9804288 35.7766929,19.6034849 35.6092237,20.1837601 C35.4417546,20.7640353 35.0503742,21.2538796 34.5213725,21.5452941 L34.5213725,21.5452941 C34.1840095,21.7269409 33.8070766,21.822639 33.4239216,21.8239216 L33.4239216,21.8239216 C32.5875602,21.8315171 31.8145069,21.3794775 31.4109804,20.6468627 L31.4280392,20.6468627 Z" id="Shape" fill="#FF5111"></path>
                <path d="M20.9198039,20.0270588 C20.548637,19.3390354 20.8026654,18.4804194 21.4884314,18.105098 L21.4884314,18.105098 C21.8186275,17.9252589 22.2067954,17.884141 22.5673409,17.9908112 C22.9278864,18.0974815 23.2311977,18.3431791 23.4103922,18.6737255 L23.4103922,18.6737255 C23.5902313,19.0039216 23.6313492,19.3920896 23.524679,19.752635 C23.4180087,20.1131805 23.1723111,20.4164918 22.8417647,20.5956863 L22.8417647,20.5956863 C22.6349862,20.704779 22.4045746,20.7614056 22.1707843,20.7605882 L22.1707843,20.7605882 C21.6513827,20.7619202 21.1722612,20.4809807 20.9198039,20.0270588 L20.9198039,20.0270588 Z M26.4411765,17.0588235 C26.0700095,16.3708001 26.3240379,15.5121841 27.0098039,15.1368627 L27.0098039,15.1368627 C27.34,14.9570236 27.728168,14.9159057 28.0887135,15.0225759 C28.4492589,15.1292462 28.7525703,15.3749438 28.9317647,15.7054902 L28.9317647,15.7054902 C29.1116039,16.0356863 29.1527218,16.4238543 29.0460515,16.7843997 C28.9393812,17.1449452 28.6936837,17.4482566 28.3631373,17.627451 L28.3631373,17.627451 C28.158734,17.7380539 27.9302474,17.7966402 27.6978431,17.7980392 L27.6978431,17.7980392 C27.1745313,17.8028118 26.6912619,17.5185357 26.4411765,17.0588235 L26.4411765,17.0588235 Z" id="Shape" fill="#FF5111"></path>
                <path d="M37.3815686,43.3294118 C36.8618956,43.0226377 36.4854348,42.5219212 36.3350615,41.9374913 C36.1846881,41.3530615 36.2727295,40.7328289 36.5798039,40.2133333 L36.5798039,40.2133333 C37.2205765,39.1331843 38.6155411,38.7768064 39.6958824,39.4172549 L39.6958824,39.4172549 C40.2155554,39.724029 40.5920161,40.2247455 40.7423895,40.8091753 C40.8927629,41.3936052 40.8047215,42.0138377 40.4976471,42.5333333 L40.4976471,42.5333333 C40.0927806,43.2345942 39.3456202,43.6677307 38.5358824,43.6705882 L38.5358824,43.6705882 C38.1274546,43.6625847 37.7287204,43.5447322 37.3815686,43.3294118 L37.3815686,43.3294118 Z M31.9966667,40.145098 C31.4769936,39.838324 31.1005329,39.3376075 30.9501595,38.7531776 C30.7997861,38.1687478 30.8878275,37.5485152 31.194902,37.0290196 L31.194902,37.0290196 C31.8356745,35.9488705 33.2306391,35.5924927 34.3109804,36.2329412 L34.3109804,36.2329412 C34.8306534,36.5397153 35.2071142,37.0404317 35.3574876,37.6248616 C35.5078609,38.2092915 35.4198196,38.829524 35.1127451,39.3490196 L35.1127451,39.3490196 C34.7078787,40.0502805 33.9607183,40.4834169 33.1509804,40.4862745 L33.1509804,40.4862745 C32.7425527,40.4782709 32.3438185,40.3604185 31.9966667,40.145098 L31.9966667,40.145098 Z M26.6117647,36.9607843 C26.0920917,36.6540102 25.7156309,36.1532938 25.5652575,35.5688639 C25.4148842,34.984434 25.5029255,34.3642015 25.81,33.8447059 L25.81,33.8447059 C26.1167741,33.3250328 26.6174906,32.9485721 27.2019204,32.7981987 C27.7863503,32.6478253 28.4065828,32.7358667 28.9260784,33.0429412 L28.9260784,33.0429412 C29.4457515,33.3497153 29.8222122,33.8504317 29.9725856,34.4348616 C30.122959,35.0192915 30.0349176,35.639524 29.7278431,36.1590196 L29.7278431,36.1590196 C29.3229767,36.8602805 28.5758163,37.2934169 27.7660784,37.2962745 L27.7660784,37.2962745 C27.3581836,37.2899836 26.9594879,37.1741065 26.6117647,36.9607843 L26.6117647,36.9607843 Z M21.232549,33.7764706 C20.712876,33.4696965 20.3364152,32.96898 20.1860419,32.3845502 C20.0356685,31.8001203 20.1237099,31.1798878 20.4307843,30.6603922 L20.4307843,30.6603922 C20.7375584,30.1407191 21.2382749,29.7642584 21.8227047,29.613885 C22.4071346,29.4635116 23.0273671,29.551553 23.5468627,29.8586275 L23.5468627,29.8586275 C24.0671324,30.1663673 24.4435058,30.6685462 24.5928712,31.2542718 C24.7422365,31.8399973 24.652307,32.4610876 24.3429412,32.9803922 L24.3429412,32.9803922 C23.9390967,33.6799052 23.1945663,34.1127717 22.3868627,34.1176471 L22.3868627,34.1176471 C21.9789679,34.1113561 21.5802722,33.995479 21.232549,33.7821569 L21.232549,33.7764706 Z" id="Shape" fill="#FF5111"></path>
                <path d="M20.4990196,51.6882353 C19.8873671,50.5921348 20.2792712,49.2077462 21.3747059,48.594902 L21.3747059,48.594902 C22.4668738,47.9947752 23.8385946,48.3852466 24.4509804,49.4705882 L24.4509804,49.4705882 C25.0626329,50.5666888 24.6707288,51.9510774 23.5752941,52.5639216 L23.5752941,52.5639216 C23.2393583,52.7556119 22.8589323,52.8556208 22.4721569,52.8539216 L22.4721569,52.8539216 C21.6524424,52.849305 20.8986237,52.4039654 20.4990196,51.6882353 L20.4990196,51.6882353 Z M25.9578431,48.6347059 C25.3461906,47.5386054 25.7380947,46.1542167 26.8335294,45.5413725 L26.8335294,45.5413725 C27.9296299,44.92972 29.3140185,45.3216241 29.9268627,46.4170588 L29.9268627,46.4170588 C30.5385153,47.5131593 30.1466112,48.897548 29.0511765,49.5103922 L29.0511765,49.5103922 C28.7151392,49.7018341 28.3347808,49.8018252 27.9480392,49.8003922 L27.9480392,49.8003922 C27.1222151,49.8019414 26.3604316,49.3557539 25.9578431,48.6347059 L25.9578431,48.6347059 Z M31.4166667,45.5811765 C30.8050141,44.485076 31.1969182,43.1006873 32.2923529,42.4878431 L32.2923529,42.4878431 C32.8192771,42.1922958 33.4421349,42.1185257 34.0235203,42.2828071 C34.6049057,42.4470885 35.0970461,42.8359222 35.3913725,43.3635294 L35.3913725,43.3635294 C36.0030251,44.4596299 35.611121,45.8440185 34.5156863,46.4568627 L34.5156863,46.4568627 C34.1684982,46.651353 33.7763583,46.7513486 33.3784314,46.7468627 L33.3784314,46.7468627 C32.5627973,46.7381719 31.8142645,46.2933916 31.4166667,45.5811765 L31.4166667,45.5811765 Z" id="Shape" fill="#FF5111"></path>
                <path d="M20.9198039,45.0466667 C20.5519575,44.3583015 20.8052655,43.5021206 21.4884314,43.1247059 L21.4884314,43.1247059 C22.1764548,42.7535389 23.0350708,43.0075673 23.4103922,43.6933333 L23.4103922,43.6933333 C23.7815591,44.3813567 23.5275307,45.2399728 22.8417647,45.6152941 L22.8417647,45.6152941 C22.6349862,45.7243868 22.4045746,45.7810134 22.1707843,45.7801961 L22.1707843,45.7801961 C21.6513827,45.781528 21.1722612,45.5005886 20.9198039,45.0466667 L20.9198039,45.0466667 Z M26.4411765,42.0784314 C26.0700095,41.390408 26.3240379,40.5317919 27.0098039,40.1564706 L27.0098039,40.1564706 C27.34,39.9766314 27.728168,39.9355135 28.0887135,40.0421838 C28.4492589,40.148854 28.7525703,40.3945516 28.9317647,40.725098 L28.9317647,40.725098 C29.3029317,41.4131215 29.0489033,42.2717375 28.3631373,42.6470588 L28.3631373,42.6470588 C28.1589952,42.7583267 27.9303384,42.8169567 27.6978431,42.8176471 L27.6978431,42.8176471 C27.1745313,42.8224197 26.6912619,42.5381436 26.4411765,42.0784314 L26.4411765,42.0784314 Z" id="Shape" fill="#FF5111"></path>
            </g>
        </g>
    </g>
</svg>