<?xml version="1.0" encoding="utf-8"?>
<!-- Generator: Adobe Illustrator 20.1.0, SVG Export Plug-In . SVG Version: 6.00 Build 0)  -->
<svg version="1.1" id="Laag_1" xmlns="http://www.w3.org/2000/svg" xmlns:xlink="http://www.w3.org/1999/xlink" x="0px" y="0px"
	 viewBox="0 0 29 35.8" style="enable-background:new 0 0 29 35.8;" xml:space="preserve">
<style type="text/css">
	.st0{fill:#844693;}
</style>
<g>
	<path class="st0" d="M24.2,14.7l0,0.4c0.2,1.5,0.3,3.1,0.3,4.8c0,0.3,0,0.7,0,1l0,0.3H27l2-1l0-0.2c0,0,0-0.3,0-0.4
		c0-1.1-0.1-2.2-0.2-3.2v0c0-0.1-0.1-0.4-0.1-0.4l0-0.2l-2.1-1.2H24.2z M26.8,20.6h-1.6c0-0.2,0-0.5,0-0.7c0-1.6-0.1-3.1-0.2-4.5
		h1.4l1.6,1c0,0.1,0,0.2,0,0.2v0c0.1,1,0.2,2,0.2,3.1c0,0.1,0,0.1,0,0.2L26.8,20.6z"/>
	<path class="st0" d="M24.1,13.9l0,0.3h2.2l0.1-0.1l1.4-1.5l-0.1-0.2c0,0-0.1-0.3-0.1-0.4c-0.5-1.4-1.1-2.7-1.8-3.9l-0.1-0.2h-3.1
		l0.2,0.4C23.4,10,23.8,11.8,24.1,13.9z M27.1,12.2c0,0,0,0.1,0.1,0.2l-1,1.1h-1.4c-0.3-1.8-0.7-3.4-1.1-4.9h1.8
		C26.1,9.7,26.6,10.9,27.1,12.2z"/>
	<path class="st0" d="M16.9,28.3h6.2l0.1-0.3c0.4-1.8,0.7-3.8,0.8-6l0-0.3h-0.3h-6.7V28.3z M17.6,22.4h5.7c-0.1,1.9-0.3,3.6-0.7,5.2
		h-5V22.4z"/>
	<path class="st0" d="M24,20.9c0-0.3,0-0.7,0-1.1v0c0-1.7-0.1-3.3-0.3-4.9l0-0.3h-6.8v6.6H24L24,20.9z M17.6,15.3h5.5
		c0.2,1.4,0.2,2.9,0.2,4.5v0c0,0.2,0,0.5,0,0.7h-5.8V15.3z"/>
	<path class="st0" d="M27.9,27.4c0,0,0-0.1,0.1-0.2c0.3-1.1,0.6-2.3,0.7-3.5l0,0c0-0.1,0-0.2,0-0.2l0-0.2L27,21.7h-2.5l0,0.3
		c-0.1,2.1-0.4,4.1-0.7,5.9l-0.1,0.4h2.2l2-0.8L27.9,27.4z M25.8,27.6l-1.3,0c0.3-1.6,0.5-3.4,0.6-5.2h1.6l1.4,1.1c0,0,0,0,0,0
		c-0.2,1.2-0.4,2.3-0.7,3.4c0,0,0,0,0,0.1L25.8,27.6z"/>
	<path class="st0" d="M16.4,14.7H9.6l0,0.3c-0.2,1.5-0.3,3.2-0.3,4.9v0l0,0c0,0.4,0,0.7,0,1.1l0,0.3h7.1V14.7z M15.7,20.6H9.9
		c0-0.2,0-0.5,0-0.7v0v0v0c0-1.6,0.1-3.1,0.2-4.5h5.5V20.6z"/>
	<path class="st0" d="M16.4,21.7h-7l0,0.3c0.1,2.1,0.4,4.1,0.8,6l0.1,0.3h0.3h5.9V21.7z M15.7,27.6h-5c-0.3-1.6-0.6-3.4-0.7-5.2h5.7
		V27.6z"/>
	<path class="st0" d="M9.1,14.2l0-0.3c0.3-2,0.7-3.9,1.3-5.5l0.2-0.4H7.5L7.4,8.1C6.7,9.3,6.1,10.6,5.6,12c0,0.1-0.1,0.4-0.1,0.4
		l-0.1,0.2l1.5,1.6H9.1z M7.9,8.6h1.8c-0.5,1.5-0.9,3.1-1.1,4.9H7.2l-1-1.1c0-0.1,0-0.1,0.1-0.2C6.7,10.9,7.2,9.7,7.9,8.6z"/>
	<path class="st0" d="M4.3,20l0,0.2l2,1h2.5l0-0.3c0-0.3,0-0.7,0-1c0-1.7,0.1-3.3,0.3-4.8l0-0.4H6.7l-2.1,1.2l0,0.2
		c0,0,0,0.2-0.1,0.4l0,0c-0.1,1-0.2,2.1-0.2,3.2C4.3,19.7,4.3,20,4.3,20z M6.9,15.3h1.4c-0.2,1.4-0.2,3-0.2,4.5c0,0.2,0,0.5,0,0.7
		H6.5L5,19.8c0-0.1,0-0.2,0-0.2c0-1.1,0.1-2.1,0.2-3.1l0,0c0-0.1,0-0.1,0-0.2L6.9,15.3z"/>
	<path class="st0" d="M4.6,23.6L4.6,23.6C4.7,24.9,5,26,5.3,27.1c0,0.1,0.1,0.2,0.1,0.2l0,0.2l2,0.8h2.2l-0.1-0.4
		c-0.4-1.8-0.6-3.8-0.7-5.9l0-0.3H6.3l-1.8,1.5l0,0.2C4.5,23.4,4.6,23.6,4.6,23.6z M6.6,22.4h1.6c0.1,1.9,0.3,3.6,0.6,5.2H7.5L6,27
		c0,0,0,0,0-0.1c-0.3-1.1-0.6-2.2-0.7-3.4l0,0c0,0,0,0,0,0L6.6,22.4z"/>
	<path class="st0" d="M2,20C4,13.9,5.7,9.8,7,7.3C7.6,6,8.1,5.1,8.4,4.5C8.6,4.3,8.7,4.1,8.8,4l3.5,1.7h0.8v2.3h-1.9l-0.1,0.2
		c-0.6,1.6-1.1,3.5-1.4,5.6l-0.1,0.4H10h6.3V7.9h-2.6V5.6h5.7v2.3h-2.6v6.2h6.7l-0.1-0.4c-0.3-2.1-0.8-4-1.4-5.6l-0.1-0.2h-0.2h-1.7
		V5.6h1l-0.4-5.5h-0.3H6.9L6.8,0.3C4.2,4.8,2.5,9.6,1.5,13.4c-1,3.8-1.4,6.5-1.4,6.5L0,20.3h1.9L2,20z M15.7,13.5h-5.3
		c0.3-1.8,0.7-3.5,1.2-4.9h4.1V13.5z M22.9,13.5h-5.3V8.6h4.1C22.2,10,22.6,11.7,22.9,13.5z M7.2,0.8h12.9L20.5,5h-8L8.6,3.1
		L8.4,3.3c0,0-3.1,4.1-7,16.2H0.8C1.1,17.7,2.9,8.5,7.2,0.8z"/>
	<path class="st0" d="M16.9,35.8h2.8l0.1-0.1c0.8-0.8,1.5-2.1,2.1-3.6c0.3-0.9,0.7-1.8,0.9-2.9l0.1-0.4h-6.1V35.8z M17.6,29.5h4.6
		c-0.2,0.9-0.5,1.7-0.8,2.4c-0.6,1.4-1.2,2.6-1.9,3.3h-1.9V29.5z"/>
	<path class="st0" d="M13.6,35.8h0.1h2.7v-7h-6.1l0.1,0.4c0.3,1,0.6,2,0.9,2.9c0.6,1.5,1.4,2.8,2.1,3.6L13.6,35.8z M11.1,29.5h4.6
		v5.7h-1.9c-0.7-0.8-1.4-1.9-1.9-3.3C11.6,31.1,11.4,30.3,11.1,29.5z"/>
	<path class="st0" d="M10.8,35.7L10.8,35.7l0.2,0.1h1.9l-0.4-0.5c-0.1-0.1-0.2-0.2-0.3-0.4l0,0c-1-1.5-1.8-3.5-2.4-5.9l-0.1-0.2h-2
		l-1.4,1l0.1,0.2c0,0,0.1,0.1,0.1,0.2l0,0C7.6,32.6,9.1,34.5,10.8,35.7z M7.9,29.5h1.3c0.6,2.3,1.4,4.2,2.3,5.7h-0.5
		c-1.6-1.2-2.9-3-3.9-5.1L7.9,29.5z"/>
	<path class="st0" d="M26.9,30.1l0.1-0.2l-1.4-1h-0.1h-1.9l-0.1,0.2c-0.6,2.4-1.4,4.4-2.4,5.9c-0.1,0.1-0.2,0.2-0.3,0.4l-0.4,0.5h2
		l0.1-0.1c1.7-1.3,3.2-3.2,4.2-5.5l0,0C26.8,30.2,26.9,30.1,26.9,30.1z M22.2,35.2h-0.5c1-1.5,1.7-3.4,2.3-5.7h1.3l0.8,0.6
		C25.1,32.2,23.8,34,22.2,35.2z"/>
</g>
</svg>
