<?xml version="1.0" encoding="utf-8"?>
<!-- Generator: Adobe Illustrator 20.1.0, SVG Export Plug-In . SVG Version: 6.00 Build 0)  -->
<svg version="1.1" id="Laag_1" xmlns="http://www.w3.org/2000/svg" xmlns:xlink="http://www.w3.org/1999/xlink" x="0px" y="0px"
	 viewBox="0 0 39.9 27.9" style="enable-background:new 0 0 39.9 27.9;" xml:space="preserve">
<style type="text/css">
	.st0{fill:#48BAC0;}
</style>
<g>
	<path class="st0" d="M36.3,11.4C36.3,11.4,36.2,11.4,36.3,11.4c0-0.5,0.1-1,0.1-1.5c0-4-3.2-7.2-7.2-7.2c-3.2,0-5.9,2.1-6.8,5
		c-0.5-0.2-1.1-0.3-1.7-0.3c-1.2,0-2.3,0.4-3.1,1.1c1.1-3.7,4.2-6.5,8-7.2l0-0.6C24.3,0.2,22.9,0,21.4,0C13.8,0,7.6,6.2,7.6,13.8
		c0,1.8,0.3,3.4,0.9,5c-1,0.5-1.7,1.4-2.1,2.4c-0.3-0.1-0.6-0.1-0.9-0.1c-1.5,0-2.7,1-3,2.4c-0.1,0-0.2,0-0.3,0
		c-1.2,0-2.2,1-2.2,2.2c0,1.2,1,2.2,2.2,2.2h12.9v0c0.6-0.1,1.2-0.5,1.5-1c1.5,0.5,3.1,0.8,4.8,0.8c5.3,0,10-3,12.3-7.5l-0.4-0.4
		c-1.7,1.2-3.7,1.8-5.9,1.8c-2.8,0-5.4-1.2-7.3-3c0,0-0.1-0.1-0.1-0.1h16.8v0c1.7-0.2,3.1-1.7,3.1-3.5C39.9,13,38.3,11.4,36.3,11.4z
		 M14.9,27.3L14.9,27.3l-12.6,0c-0.5,0-0.9-0.2-1.2-0.5c-0.3-0.3-0.5-0.7-0.5-1.2c0-0.5,0.2-0.9,0.5-1.2C1.4,24.2,1.8,24,2.2,24
		c0.1,0,0.1,0,0.2,0c0,0,0,0.1,0,0.2c0,0.3,0,0.7,0.2,1.1l0.5-0.2C3,24.8,3,24.4,3,24.2c0-0.1,0-0.2,0-0.3c0,0,0-0.1,0-0.1l0,0l0,0
		c0.2-1.2,1.2-2.2,2.5-2.2c0.3,0,0.5,0,0.8,0.1c-0.1,0.3-0.1,0.6-0.1,0.9c0,0.4,0.1,0.8,0.2,1.2l0.6-0.2c-0.1-0.3-0.1-0.7-0.1-1
		c0-0.3,0-0.7,0.1-1l0,0c0.4-1.6,1.9-2.8,3.6-2.8c1,0,2,0.4,2.7,1.1c0.7,0.7,1.1,1.6,1.1,2.7c0,0.3,0,0.7-0.1,1l-0.1,0.4l0.4-0.1
		c0.1,0,0.2,0,0.2,0c0.5,0,0.9,0.2,1.2,0.5c0.3,0.3,0.5,0.7,0.5,1.2C16.4,26.6,15.7,27.3,14.9,27.3z M27.4,22.2
		c1.9,0,3.7-0.5,5.2-1.3c-2.3,3.7-6.5,6.2-11.2,6.2c-1.6,0-3.1-0.3-4.5-0.8c0.1-0.2,0.1-0.4,0.1-0.6c0-1.2-0.9-2.2-2.1-2.2
		c0-0.3,0.1-0.5,0.1-0.8c0-2.4-2-4.4-4.4-4.4c-0.5,0-1,0.1-1.5,0.3c-0.6-1.5-0.9-3.1-0.9-4.8c0-3.7,1.5-7,3.9-9.4
		c2.4-2.4,5.7-3.9,9.4-3.9c1,0,2,0.1,2.9,0.3c-3.8,1.1-6.8,4.3-7.6,8.2c0,0,0,0-0.1,0.1l0,0c-0.1,0.7-0.2,1.4-0.2,2.1
		C16.5,17.4,21.4,22.2,27.4,22.2z M36.5,17.9L36.5,17.9l-16.9,0V18c-1.5-1.8-2.4-4.1-2.4-6.6c0-0.7,0.1-1.3,0.2-1.9
		c0.8-0.9,2-1.5,3.4-1.5c0.5,0,1.1,0.1,1.5,0.3C22.1,8.7,22,9.3,22,9.9c0,0.7,0.1,1.3,0.3,1.9l0.6-0.2c-0.2-0.6-0.2-1.1-0.2-1.7
		c0-0.6,0.1-1.2,0.2-1.7l0,0c0.8-2.8,3.3-4.8,6.4-4.8c1.8,0,3.5,0.7,4.7,1.9C35,6.4,35.8,8,35.8,9.9c0,0.6-0.1,1.2-0.2,1.7L35.4,12
		l0.4-0.1c0.1,0,0.3,0,0.4,0c0.8,0,1.6,0.3,2.1,0.9c0.5,0.5,0.9,1.3,0.9,2.1C39.3,16.5,38,17.8,36.5,17.9z"/>
</g>
</svg>
