<?xml version="1.0" encoding="utf-8"?>
<!-- Generator: Adobe Illustrator 20.1.0, SVG Export Plug-In . SVG Version: 6.00 Build 0)  -->
<svg version="1.1" id="Laag_1" xmlns="http://www.w3.org/2000/svg" xmlns:xlink="http://www.w3.org/1999/xlink" x="0px" y="0px"
	 viewBox="0 0 405.9 170.2" style="enable-background:new 0 0 405.9 170.2;" xml:space="preserve">
<style type="text/css">
	.st0{fill:#1D1D1B;}
</style>
<g>
	<path class="st0" d="M172.4,85.7c0,47.7-36.4,84.5-85.5,84.5c-49,0-85.5-36.8-85.5-84.5C1.5,38,37.9,1.2,86.9,1.2
		C136,1.2,172.4,38,172.4,85.7z M155.9,85.7c0-40-29-70-69-70c-40,0-69,30-69,70c0,40,29,70,69,70
		C126.9,155.7,155.9,125.7,155.9,85.7z"/>
	<path class="st0" d="M198.2,155c0-8.4,6.8-15.2,15.2-15.2c8.1,0,14.8,6.8,14.8,15.2c0,8.4-6.8,15.2-14.8,15.2
		C205,170.2,198.2,163.4,198.2,155z"/>
	<path class="st0" d="M254,85.7c0-47.7,35.5-84.5,84.8-84.5c28.7,0,52.9,12.6,67.1,31v1.3l-10,8.1h-1.3
		c-13.2-15.8-32.2-25.8-55.5-25.8c-40.3,0-68.7,30-68.7,70.3c0,39.3,27.4,69.7,69.3,69.7c21.9,0,41.6-8.7,54.8-25.8h1.3l10,7.7v1.6
		c-14.2,18.4-38.4,31-67.1,31C289.4,170.2,254,133.4,254,85.7z"/>
</g>
</svg>
