<?xml version="1.0" encoding="utf-8"?>
<!-- Generator: Adobe Illustrator 20.1.0, SVG Export Plug-In . SVG Version: 6.00 Build 0)  -->
<svg version="1.1" id="Laag_1" xmlns="http://www.w3.org/2000/svg" xmlns:xlink="http://www.w3.org/1999/xlink" x="0px" y="0px"
	 viewBox="0 0 34.8 35.8" style="enable-background:new 0 0 34.8 35.8;" xml:space="preserve">
<style type="text/css">
	.st0{fill:#EB6524;}
</style>
<g>
	<polygon class="st0" points="17.4,18.2 17.4,18.2 17.4,18.2 	"/>
	<path class="st0" d="M15.6,0.3l1.1,17.1l0,0c0,0.1,0,0.3,0,0.4c0,0,0,0.1,0,0.1v0c0,0.1,0,0.1,0,0.2l0,0l0,0c0,0.1,0,0.1,0,0.2l0,0
		l0,0c-0.1,0.5-0.3,0.9-0.5,1.2c-0.2,0.3-0.5,0.6-0.7,0.7l0,0l0,0c0,0,0,0-0.1,0l0,0l0,0l0,0l0,0l0,0l0,0c0,0-0.1,0-0.1,0l-3.4,1.2
		l-5.4,1.8c-0.1,0-0.5,0.1-1,0.3v0l-0.5,0.2l0,0l0,0c-0.1,0-0.1,0-0.2,0.1l0,0l0,0l0,0c-0.1,0-0.1,0-0.2,0.1l0,0l0,0l0,0
		c-0.9,0.4-2.1,0.9-3,1.7c-0.5,0.4-0.9,0.9-1.1,1.4c-0.3,0.6-0.5,1.2-0.5,1.9c0,1.3,0.4,2.4,0.9,3.2c0.4,0.6,0.9,1.1,1.5,1.4
		c0.8,0.5,1.6,0.8,2.3,1c0.6,0.2,1.1,0.2,1.1,0.2h0l0.6,0l5.8,0.2v0l4.5,0.2l4.9,0.2l1.5,0.1h0c1.8,0,3.3-0.4,4.6-0.9l0,0l0.4-0.2
		c0.1,0,0.1-0.1,0.2-0.1l0,0c0,0,0.1,0,0.1-0.1l0.2-0.1l0,0c1-0.6,1.8-1.4,2.4-2.2c1-1.3,1.5-2.6,1.8-3.7c0.3-1,0.3-1.8,0.3-1.8v0
		l1.9-26.2h-0.4H15.6z M34.1,0.9l-0.4,5.6L16.6,4.8l-0.3-3.9H34.1z M16.6,5.5l17.1,1.7l-0.3,4.5l-16.2,2.6L16.6,5.5z M17.3,18.7
		c0-0.1,0.1-0.2,0.1-0.3l0,0l0,0c0-0.1,0-0.2,0-0.2l0,0l0,0c0-0.1,0-0.2,0-0.2v0c0-0.1,0-0.1,0-0.2c0-0.1,0-0.3,0-0.5h0l-0.2-2.4
		l16.1-2.6l-0.7,9.4L17.3,18.7z M15.9,20.8L15.9,20.8C15.9,20.8,15.9,20.8,15.9,20.8l0.1-0.1l0,0l0,0c0.2-0.2,0.5-0.5,0.8-0.8
		c0.1-0.1,0.2-0.3,0.3-0.5l5.4,1.1l-2,14.4l-3.7-0.2L15.9,20.8L15.9,20.8L15.9,20.8z M6.4,24.1C6.5,24.1,6.5,24,6.4,24.1L6.4,24.1
		L6.4,24.1l0.1,0l3.8-1.3L9.7,34.3l-3-0.1l-1.9-9.7c0,0,0.1,0,0.1,0l0,0l0,0l0,0c0.1,0,0.1,0,0.2-0.1l0,0l0.1,0
		c0.4-0.1,0.7-0.2,1-0.3C6.3,24.1,6.4,24.1,6.4,24.1z M3.1,33.4c-0.6-0.3-1.3-0.8-1.7-1.5c-0.5-0.7-0.8-1.6-0.8-2.8
		c0-0.6,0.1-1.1,0.4-1.6c0.4-0.7,1-1.3,1.6-1.8c0.5-0.4,1.1-0.7,1.6-0.9l1.8,9.4l-0.4,0l0,0C5.6,34.2,4.3,34.1,3.1,33.4z M11.4,34.4
		L11.4,34.4l-1,0L11,22.6l1.1-0.4l3.2-1.1l1,13.5L11.4,34.4z M21.5,34.8l-0.3,0l2-14.3l3.1,0.6l1.2,12.8c-1.2,0.6-2.6,1-4.5,1
		L21.5,34.8z M32.3,26.4L32.3,26.4c0,0.1-0.1,1.3-0.7,2.8c-0.3,0.8-0.7,1.6-1.3,2.4c-0.6,0.7-1.3,1.4-2.2,2l-1.2-12.3l5.7,1.1
		L32.3,26.4L32.3,26.4z"/>
	<polygon class="st0" points="17.4,18.4 17.4,18.4 17.4,18.4 	"/>
</g>
</svg>
