<?xml version="1.0" encoding="utf-8"?>
<!-- Generator: Adobe Illustrator 20.1.0, SVG Export Plug-In . SVG Version: 6.00 Build 0)  -->
<svg version="1.1" id="Laag_1" xmlns="http://www.w3.org/2000/svg" xmlns:xlink="http://www.w3.org/1999/xlink" x="0px" y="0px"
	 viewBox="0 0 50.5 31.4" style="enable-background:new 0 0 50.5 31.4;" xml:space="preserve">
<style type="text/css">
	.st0{fill:#FCCD04;}
</style>
<g>
	<path class="st0" d="M49.3,21.5c0-0.1-0.3-1.9-1.9-3.4l-6.1-6.7l0,0c0,0-0.3-0.3-0.7-0.6c-0.2-0.2-0.4-0.3-0.6-0.5
		c-0.2-0.2-0.4-0.3-0.6-0.4c-1-0.7-2.7-1.3-5.3-1.3c-0.9,0-11.3,0-11.3,0h-0.2l-4,7c-0.9,0-1.8,0-2.7,0c0-0.3,0.1-0.6,0.1-1
		c0-1.2-0.3-2.8-1.2-4.6c-0.6-1.1-0.9-1.9-1.1-2.4c-0.1-0.4-0.2-0.8-0.2-1.1c0-0.3,0-0.5,0.1-0.7c0.1-0.2,0.2-0.5,0.4-0.8l0.4-0.6
		l-0.7,0.2c-0.7,0.2-1.4,0.6-1.9,1.2c-0.4,0.5-0.6,1-0.7,1.7c0-0.1-0.1-0.1-0.1-0.2c-0.2-0.4-0.3-1-0.3-1.6
		c-0.1-0.6-0.1-1.3-0.3-1.9l0,0c0,0,0,0,0,0c0,0,0,0,0,0h0c-0.3-1-0.8-1.8-1.5-2.4c-0.6-0.6-1.4-0.9-2.1-1L6.5,0.6
		c0.3,0.2,0.6,0.5,0.7,0.9c0.2,0.3,0.2,0.7,0.2,1.1c0,0.7-0.2,1.4-0.5,2l0,0C6.6,5.2,6.2,5.7,5.8,6.3C5.5,6.7,5.3,7.1,5.1,7.6
		C5.1,7.5,5,7.5,5,7.4C4.8,6.9,4.6,6.3,4.6,5.6c0-0.6,0.1-1.2,0.6-1.9l0.6-0.9l-1,0.4C4.1,3.6,3.5,4.1,3.1,4.9
		C2.7,5.7,2.4,6.7,2.4,8.1c0,0.2,0,0.4,0,0.6h0c0,0.6,0.1,1.1,0.1,1.5c0,0.3,0,0.5-0.1,0.7c-0.1-0.3-0.3-0.6-0.4-0.8
		C1.8,9.8,1.6,9.6,1.3,9.4C1,9.2,0.7,9.1,0.4,9L-0.2,9l0.3,0.5c0.5,0.8,0.7,1.9,0.7,3c0,0.8-0.1,1.7-0.2,2.5l0,0c0,0.2,0,0.5,0,0.7
		c0,1.7,0.6,3.2,1.7,4.4c1,1.1,2.3,1.8,3.9,2.1l-0.8,5h5.3h1.2c0.5,2.4,2.7,4.2,5.2,4.2c2.6,0,4.7-1.8,5.2-4.2h12.9
		c0.5,2.4,2.7,4.2,5.2,4.2c2.6,0,4.7-1.8,5.2-4.2l4.8,0L49.3,21.5z M23,9.1c0.4,0,1.6,0,3.1,0l-3.7,6.4h-3.1L23,9.1z M5.5,8.2
		L5.5,8.2L5.5,8.2L5.5,8.2z M2.8,19.7c-1-1-1.5-2.4-1.5-4c0-0.2,0-0.4,0-0.6l0,0c0.1-0.8,0.2-1.7,0.2-2.6c0-0.9-0.1-1.8-0.4-2.6
		c0.3,0.2,0.5,0.5,0.7,0.9c0.2,0.4,0.3,0.8,0.3,1.1l0.1,1L2.7,12c0.2-0.3,0.3-0.6,0.4-1c0.1-0.3,0.1-0.6,0.1-0.9
		c0-0.5-0.1-1-0.1-1.5v0l0,0c0-0.2,0-0.4,0-0.6c0-1.3,0.2-2.2,0.6-2.9c0.1-0.3,0.3-0.5,0.5-0.7C4,4.8,4,5.2,4,5.6
		c0,0.9,0.3,1.6,0.5,2.1C4.7,8.2,5,8.6,5,8.6l0.5,0.6l0.1-0.8c0.1-0.7,0.4-1.2,0.7-1.8c0.4-0.5,0.9-1.1,1.2-1.8v0
		c0.4-0.7,0.6-1.5,0.6-2.3c0-0.5-0.1-1-0.3-1.4c0-0.1-0.1-0.2-0.1-0.2C8,1.1,8.2,1.3,8.5,1.5C9,2,9.5,2.8,9.8,3.7l0,0l0,0
		c0.2,0.7,0.3,1.6,0.4,2.4c0.1,0.4,0.1,0.8,0.3,1.2c0.1,0.4,0.4,0.7,0.7,1l0.5,0.4l0-0.6l0,0c0-0.8,0.3-1.5,0.7-2
		c0.2-0.3,0.5-0.5,0.8-0.7c0,0,0,0.1-0.1,0.1C13,5.6,12.9,6,12.9,6.3c0,0.4,0.1,0.8,0.2,1.3c0.2,0.6,0.5,1.5,1.1,2.6
		c0.9,1.6,1.1,3.1,1.1,4.3c0,0.8-0.1,1.4-0.2,1.9c-0.1,0.2-0.1,0.4-0.2,0.5c0,0.1,0,0.1,0,0.1l0,0l0,0c-0.5,1.2-1.3,2-2.1,2.6
		l-0.4,0.3c0.1-0.4,0.2-0.8,0.2-1.2c0-0.6-0.1-1.1-0.4-1.6c-0.3-0.5-0.7-1-1.3-1.4l-0.1-0.1l-0.1,0c-1,0.3-1.8,0.8-2.4,1.4
		c-0.9,1-1.4,2.2-1.6,3.1c-0.2,0.7-0.3,1.2-0.3,1.5C4.9,21.3,3.6,20.6,2.8,19.7z M20.5,29.4c-0.9,0.9-2,1.4-3.4,1.4
		c-1.3,0-2.5-0.5-3.4-1.4c-0.9-0.9-1.4-2-1.4-3.4c0-1.3,0.5-2.5,1.4-3.4c0.9-0.9,2-1.4,3.4-1.4c1.3,0,2.5,0.5,3.4,1.4
		c0.9,0.9,1.4,2,1.4,3.4C21.9,27.4,21.3,28.6,20.5,29.4z M43.8,29.4c-0.9,0.9-2,1.4-3.4,1.4c-1.3,0-2.5-0.5-3.4-1.4
		c-0.9-0.9-1.4-2-1.4-3.4c0-1.3,0.5-2.5,1.4-3.4c0.9-0.9,2-1.4,3.4-1.4c1.3,0,2.5,0.5,3.4,1.4c0.9,0.9,1.4,2,1.4,3.4
		c0,0.2,0,0.4,0,0.6h0v0.2C45,27.8,44.5,28.7,43.8,29.4z M40.5,20.7c-3,0-5.4,2.4-5.4,5.4c0,0.2,0,0.4,0,0.6H22.4c0-0.2,0-0.4,0-0.6
		c0-3-2.4-5.4-5.4-5.4c-3,0-5.4,2.4-5.4,5.4c0,0.2,0,0.4,0,0.6h-1.1H6.1l0.8-4.8l-0.3,0l0,0l0.3,0v0l0,0c0-0.1,0.1-1.4,0.7-2.6
		c0.3-0.6,0.7-1.3,1.2-1.8c0.5-0.5,1.1-0.9,1.9-1.1c0.5,0.3,0.8,0.7,1,1c0.2,0.4,0.3,0.9,0.3,1.4c0,0.7-0.2,1.4-0.5,1.9l0.4,0.4
		l1.3-0.8l0,0c0.7-0.6,1.5-1.3,2.1-2.3l0,0l0.2-0.5c0,0,0.2-0.4,0.4-1.2c1.1,0,2.1,0,3,0H19h19.1v-0.6h-15l3.7-6.4
		c3.1,0,6.9,0,7.4,0c2.5,0,4.1,0.6,5,1.2c0.1,0.1,0.3,0.2,0.5,0.4c0.3,0.2,0.6,0.5,0.8,0.7c0.1,0.1,0.2,0.2,0.3,0.3
		c0.1,0,0.1,0.1,0.1,0.1l6.1,6.7l0,0c0.7,0.7,1.2,1.5,1.4,2.1c0.1,0.3,0.2,0.5,0.2,0.7c0,0.1,0,0.2,0,0.2c0,0,0,0,0,0l0,0l0,0h0l0,0
		l1,5.1h-3.9c0-0.2,0-0.4,0-0.6C45.8,23.1,43.4,20.7,40.5,20.7z"/>
	<path class="st0" d="M40.5,24c-1.1,0-2.1,0.9-2.1,2.1c0,1.1,0.9,2.1,2.1,2.1c1.1,0,2.1-0.9,2.1-2.1C42.5,24.9,41.6,24,40.5,24z
		 M41.5,27.1c-0.3,0.3-0.6,0.4-1,0.4c-0.4,0-0.8-0.2-1-0.4c-0.3-0.3-0.4-0.6-0.4-1c0-0.4,0.2-0.8,0.4-1c0.3-0.3,0.6-0.4,1-0.4
		c0.4,0,0.8,0.2,1,0.4c0.3,0.3,0.4,0.6,0.4,1C41.9,26.5,41.7,26.8,41.5,27.1z"/>
	<path class="st0" d="M17.1,24C16,24,15,24.9,15,26.1c0,1.1,0.9,2.1,2.1,2.1c1.1,0,2.1-0.9,2.1-2.1C19.2,24.9,18.2,24,17.1,24z
		 M18.1,27.1c-0.3,0.3-0.6,0.4-1,0.4c-0.4,0-0.8-0.2-1-0.4c-0.3-0.3-0.4-0.6-0.4-1c0-0.4,0.2-0.8,0.4-1c0.3-0.3,0.6-0.4,1-0.4
		c0.4,0,0.8,0.2,1,0.4c0.3,0.3,0.4,0.6,0.4,1C18.6,26.5,18.4,26.8,18.1,27.1z"/>
</g>
</svg>
