<svg id="Layer_1" xmlns="http://www.w3.org/2000/svg" viewBox="0 0 72 52"><style>.st1{fill:#22a6e4}</style><path d="M7.3 17.6H64c1.5 0 2-2.3.7-3.2L38.6.6c-1.5-.8-3.1-.8-4.6 0L6.6 14.4c-1.3.8-.8 3.2.7 3.2z" fill="#7cd4f4"/><path class="st1" d="M12 18.5c0 1 .8 1.9 1.9 1.9h.1V38h-.2c-1 0-1.9.9-1.9 1.9v1h9.5v-1c0-1-.8-1.9-1.9-1.9h-.3V20.4h.3c1 0 1.9-.9 1.9-1.9v-1H12v1zM23.5 18.5c0 1 .8 1.9 1.9 1.9h.3V38h-.3c-1 0-1.9.9-1.9 1.9v1H33v-1c0-1-.8-1.9-1.9-1.9h-.3V20.4h.3c1 0 1.9-.9 1.9-1.9v-1h-9.5v1zM36 18.5c0 1 .8 1.9 1.9 1.9h.3V38h-.3c-1 0-1.9.9-1.9 1.9v1h9.5v-1c0-1-.8-1.9-1.9-1.9h-.3V20.4h.3c1 0 1.9-.9 1.9-1.9v-1H36v1zM55.8 20.6v-.2h.3c1 0 1.9-.9 1.9-1.9v-1h-9.5v1c0 1 .8 1.9 1.9 1.9h.3V38h-.3c-1 0-1.9.9-1.9 1.9v1H58v-1c0-1-.8-1.9-1.9-1.9h-.3V20.6z"/><path d="M36.3 0c.8 0 1.6.2 2.3.6l26.2 13.8c1.3.9.8 3.2-.7 3.2H36.3V0z" fill="#4eb8ea"/><path d="M64.8 43H6.6C2.7 43-.2 45.4 0 50v2h72v-.1-2.2c-.3-3.7-2.7-6.7-7.2-6.7z" fill="#417dc0"/><path class="st1" d="M6.6 43H65c-.4-1.2-1.6-2.2-2.9-2.2H9.3c-1.4 0-2.5.9-2.9 2.2h.2z"/></svg>