<svg id="Layer_1" xmlns="http://www.w3.org/2000/svg" viewBox="0 0 72 58"><style>.st2{fill:#9d85c1}</style><path d="M71.9 55.6L68 46.9c-.5-1.3-1.5-2-2.6-2H8c-1.7 0-2.5.8-3.2 2L.1 55.4c-.3.6-.3 1.3 0 1.8.4.5 1 .8 1.6.8H70c.9 0 1.7-.6 1.9-1.5.1-.3.1-.6 0-.9z" fill="#705a9b"/><path d="M2.9 33.6c.2 1.3 1.4 2.2 2.7 2l4.6-.7c1.1-.2 1.3.1 1.5.5L15.2 58h46.5c.3-1.4.4-3 .3-4.6-.3-4.5-1.6-7.9-4-10.2-1.4-1.3-3-2.3-4.9-2.9 2-2.9 2.5-6.6 1.4-10.7-.5-2.2-1.5-4-2.8-5.5-1-1.1-2.2-2.1-3.5-2.8-.4-.2-.9-.4-1.4-.6-1.8-.7-3.6-1.1-5.6-1.3-1.3-.1-2.7-.2-4.2-.1l-1.3-8.4c-.2-1.3-1.4-2.2-2.7-2l-17.9 2.7c-1.3.2-2.2 1.4-2 2.7l1.3 8.2c-.5.1-1.1.2-1.7.3L3.8 24c-.6.1-1.2.4-1.5.9-.4.5-.5 1.1-.4 1.8l1 6.9z" fill="#ae95ce"/><path class="st2" d="M61.6 58c.3-1.4.4-3 .3-4.6-.3-4.5-1.6-7.9-4-10.2-1.4-1.3-3-2.3-4.9-2.9 2-2.9 2.5-6.6 1.4-10.7-.5-2.2-1.5-4-2.8-5.5-1-1.1-2.2-2.1-3.5-2.8-.4-.2-.9-.4-1.4-.6-1.8-.7-3.6-1.1-5.6-1.3-1.3-.1-2.7-.2-4.2-.1l-1.3-8.4c-.2-1.3-1.4-2.2-2.7-2l-8.8 1.4L31.5 58h30.1zM60.5 22c-1.8 0-3.2-1.4-3.2-3.2v-3.4c0-.7-.5-1.2-1.2-1.2h-3.4c-1.8 0-3.2-1.4-3.2-3.2s1.4-3.2 3.2-3.2h3.4c.7 0 1.2-.5 1.2-1.2V3.2c0-1.8 1.4-3.2 3.2-3.2s3.2 1.4 3.2 3.2v3.4c0 .7.5 1.2 1.2 1.2h3.4c1.8 0 3.2 1.4 3.2 3.2s-1.4 3.2-3.2 3.2H65c-.7 0-1.2.5-1.2 1.2v3.4c-.1 1.8-1.5 3.2-3.3 3.2z"/></svg>