<svg id="Layer_1" xmlns="http://www.w3.org/2000/svg" viewBox="0 0 72 50"><style>.st0{fill:#705a9b}.st3{fill:#ede5f4}</style><path class="st0" d="M65.4 50H9.5c-2.4 0-4.3-1.9-4.3-4.3V11.2c0-2.4 1.9-4.3 4.3-4.3h58.2c2.4 0 4.3 1.9 4.3 4.3v32.2c0 3.6-3 6.6-6.6 6.6z"/><path d="M60.8 41.9H4.2C1.9 41.9 0 40 0 37.7V4.2C0 1.9 1.9 0 4.2 0h56.6C63.1 0 65 1.9 65 4.2v33.6c-.1 2.3-1.9 4.1-4.2 4.1z" fill="#9d85c1"/><circle class="st0" cx="16.8" cy="16.2" r="9"/><circle cx="28.1" cy="16.2" r="9" fill="#d3c1e7"/><path class="st3" d="M56.1 36.1H38.8c-.8 0-1.5-.7-1.5-1.5s.7-1.5 1.5-1.5h17.3c.8 0 1.5.7 1.5 1.5s-.7 1.5-1.5 1.5zM18.7 36.1h-7.6c-.8 0-1.5-.7-1.5-1.5s.7-1.5 1.5-1.5h7.6c.8 0 1.5.7 1.5 1.5s-.7 1.5-1.5 1.5z"/></svg>