<svg id="Layer_1" xmlns="http://www.w3.org/2000/svg" viewBox="0 0 72 46"><style>.st3{fill:#b1e7f8}</style><path d="M69.3 46h-55c-1.5 0-2.7-1.2-2.7-2.7V18.1c0-1.5 1.2-2.7 2.7-2.7h55c1.5 0 2.7 1.2 2.7 2.7v25.2c0 1.5-1.2 2.7-2.7 2.7z" fill="#417dc0"/><path d="M63.5 38.6h-55c-1.5 0-2.7-1.2-2.7-2.7V10.6c0-1.5 1.2-2.7 2.7-2.7h55c1.5 0 2.7 1.2 2.7 2.7v25.2c0 1.5-1.2 2.8-2.7 2.8z" fill="#7acaef"/><path d="M57.8 30.7h-55C1.2 30.7 0 29.5 0 28V2.8C0 1.3 1.2 0 2.7 0h55c1.5 0 2.7 1.2 2.7 2.7V28c.1 1.5-1.1 2.7-2.6 2.7z" fill="#39afe8"/><ellipse class="st3" cx="29.2" cy="15.4" rx="12.6" ry="15.3"/><path d="M37.2 19.2c.6.4.8 1.1.6 1.7-1.2 2.9-4.6 6.5-8.6 6.5-4.2 0-7.5-3.5-8.6-6.3-.2-.6 0-1.2.6-1.6 1.1-.7 2.6-1.5 3.9-2 .5-.2 1.1-.1 1.4.3.6.5 1.3 1 2.7 1 1.2 0 2.2-.5 3-1.2.4-.4 1-.5 1.5-.3 1.2.5 2.6 1.2 3.5 1.9zm-4.1-8.4c0-3-1.8-5.5-3.9-5.5s-3.9 2.5-3.9 5.5 1.8 5.5 3.9 5.5 3.9-2.5 3.9-5.5z" fill="#22a6e4"/><path class="st3" d="M0 22.4V28c0 1.5 1.2 2.8 2.7 2.8h5.5c.1-4.7-3.6-8.4-8.2-8.4zM60.5 28v-5.5c-4.6 0-8.3 3.7-8.3 8.3h5.5c1.6-.1 2.8-1.3 2.8-2.8zM0 8.3V2.8C0 1.3 1.2 0 2.7 0h5.5C8.3 4.6 4.6 8.3 0 8.3zm60.5-5.5v5.5c-4.6 0-8.3-3.7-8.3-8.3h5.5c1.6 0 2.8 1.3 2.8 2.8z"/></svg>