<svg id="Layer_1" xmlns="http://www.w3.org/2000/svg" viewBox="0 0 100 100"><style>.st0{fill:#d3c1e7}.st1{fill:#ae95ce}.st2{fill:#fff}.st3{fill:#9d85c1}.st4{fill:#836aaa}</style><ellipse class="st0" cx="73.5" cy="61.3" rx="26.5" ry="26.5"/><ellipse class="st1" cx="73.5" cy="61.3" rx="20.5" ry="20.5"/><path class="st2" d="M84.6 61.4c-.4-.6-1-1-1.7-1.4.9-1 1.3-2.4 1.2-4-.1-.9-.3-1.6-.7-2.3-.4-.7-1-1.2-1.7-1.6-.6-.4-1.3-.6-2.1-.8-.5-.1-1-.2-1.6-.3v-3.3c0-.5-.4-.9-.9-.9h-7c-.5 0-.9.4-.9.9v3.2H65c-.2 0-.5.1-.6.3-.2.2-.3.4-.3.6v2.7c0 .5.4.9.9.9h1.8c.4 0 .5.1.5.3v11.1h-1.8c-.4 0-.8.3-.9.8l-.5 3c0 .3 0 .5.2.7.2.2.4.3.7.3h4.2v3.2c0 .5.4.9.9.9h7c.5 0 .9-.4.9-.9v-3.3c.6 0 1.1-.1 1.6-.2.8-.1 1.5-.3 2.2-.6.7-.3 1.3-.7 1.8-1.1.5-.5.9-1 1.3-1.7.3-.7.5-1.5.6-2.3.2-1.8-.1-3.2-.9-4.2z"/><path class="st3" d="M100 61.3c0-14.6-11.9-26.5-26.5-26.5v53c14.6 0 26.5-11.9 26.5-26.5z"/><path class="st4" d="M94 61.3c0-11.3-9.2-20.5-20.5-20.5v41.1C84.8 81.8 94 72.6 94 61.3z"/><path class="st0" d="M84.6 61.4c-.4-.6-1-1-1.7-1.4.9-1 1.3-2.4 1.2-4-.1-.9-.3-1.6-.7-2.3-.4-.7-1-1.2-1.7-1.6-.6-.4-1.3-.6-2.1-.8-.5-.1-1-.2-1.6-.3v-3.3c0-.5-.4-.9-.9-.9h-3.6v29h3.6c.5 0 .9-.4.9-.9v-3.3c.6 0 1.1-.1 1.6-.2.8-.1 1.5-.3 2.2-.6.7-.3 1.3-.7 1.8-1.1.5-.5.9-1 1.3-1.7.3-.7.5-1.5.6-2.3.2-1.9-.1-3.3-.9-4.3z"/><g><ellipse class="st0" cx="17.3" cy="82.7" rx="17.3" ry="17.3"/><ellipse class="st1" cx="17.3" cy="82.7" rx="13.4" ry="13.4"/><path class="st2" d="M24.6 82.7c-.3-.4-.7-.7-1.1-.9.6-.7.9-1.5.8-2.6-.1-.6-.2-1.1-.5-1.5-.3-.4-.6-.8-1.1-1-.4-.2-.9-.4-1.4-.5-.3-.1-.7-.1-1-.2v-2.2c0-.3-.3-.6-.6-.6h-4.6c-.3 0-.6.3-.6.6v2.1H11.8c-.2 0-.3.1-.4.2-.1.1-.2.3-.2.4v1.7c0 .3.3.6.6.6H13c.3 0 .3.1.4.2v7.2h-1.2c-.3 0-.5.2-.6.5l-.3 1.9c0 .2 0 .4.1.5.1.1.3.2.5.2h2.7v2.1c0 .3.3.6.6.6h4.6c.3 0 .6-.3.6-.6v-2.2c.4 0 .7-.1 1.1-.1.5-.1 1-.2 1.4-.4.5-.2.9-.4 1.2-.7.3-.3.6-.7.8-1.1.2-.4.3-1 .4-1.5 0-1.1-.2-2-.7-2.7z"/><path class="st3" d="M34.6 82.7c0-9.6-7.8-17.3-17.3-17.3V100c9.6 0 17.3-7.8 17.3-17.3z"/><path class="st4" d="M30.7 82.7c0-7.4-6-13.4-13.4-13.4v26.8c7.4 0 13.4-6 13.4-13.4z"/><path class="st0" d="M24.6 82.7c-.3-.4-.7-.7-1.1-.9.6-.7.9-1.5.8-2.6-.1-.6-.2-1.1-.5-1.5-.3-.4-.6-.8-1.1-1-.4-.2-.9-.4-1.4-.5-.3-.1-.7-.1-1-.2v-2.2c0-.3-.3-.6-.6-.6h-2.3v18.9h2.3c.3 0 .6-.3.6-.6v-2.2c.4 0 .7-.1 1.1-.1.5-.1 1-.2 1.4-.4.5-.2.9-.4 1.2-.7.3-.3.6-.7.8-1.1.2-.4.3-1 .4-1.5.1-1.2-.1-2.1-.6-2.8z"/></g><g><ellipse class="st0" cx="47.9" cy="34.5" rx="34.5" ry="34.5"/><ellipse class="st1" cx="47.9" cy="34.5" rx="26.7" ry="26.7"/><path class="st2" d="M62.3 34.6c-.6-.7-1.3-1.3-2.2-1.8 1.2-1.3 1.7-3.1 1.5-5.2-.1-1.1-.4-2.1-1-3-.5-.9-1.3-1.5-2.2-2.1-.8-.5-1.7-.8-2.7-1.1-.6-.2-1.3-.3-2.1-.4v-4.3c0-.7-.5-1.2-1.2-1.2h-9.1c-.7 0-1.2.5-1.2 1.2V21h-5.4c-.3 0-.6.1-.8.3-.2.2-.3.5-.3.8v3.5c0 .7.5 1.2 1.2 1.2h2.4c.5 0 .6.1.7.4v14.4h-2.4c-.6 0-1.1.4-1.2 1l-.7 3.9c-.1.3 0 .7.3 1 .2.3.6.4.9.4H42.1v4.2c0 .7.5 1.2 1.2 1.2h9.1c.7 0 1.2-.5 1.2-1.2v-4.3c.8-.1 1.5-.2 2.1-.3 1-.2 1.9-.4 2.8-.8.9-.4 1.8-.9 2.4-1.5.7-.6 1.2-1.4 1.6-2.3.4-.9.7-1.9.8-3 .4-2.2 0-4-1-5.3z"/><path class="st3" d="M82.3 34.5C82.3 15.4 66.9 0 47.9 0v69c19 0 34.4-15.5 34.4-34.5z"/><path class="st4" d="M74.6 34.5c0-14.7-11.9-26.7-26.7-26.7v53.4c14.7 0 26.7-12 26.7-26.7z"/><path class="st0" d="M62.3 34.6c-.6-.7-1.3-1.3-2.2-1.8 1.2-1.3 1.7-3.1 1.5-5.2-.1-1.1-.4-2.1-1-3-.5-.9-1.3-1.5-2.2-2.1-.8-.5-1.7-.8-2.7-1.1-.6-.2-1.3-.3-2.1-.4v-4.3c0-.7-.5-1.2-1.2-1.2h-4.7v37.7h4.7c.7 0 1.2-.5 1.2-1.2v-4.3c.8-.1 1.5-.1 2.1-.3 1-.2 1.9-.4 2.8-.8.9-.4 1.8-.9 2.4-1.5.7-.6 1.2-1.4 1.6-2.3.4-.9.7-1.9.8-3 .4-2.1 0-3.9-1-5.2z"/></g></svg>