<svg id="Layer_1" xmlns="http://www.w3.org/2000/svg" viewBox="0 0 72 50"><style>.st0{fill:#d3c1e7}.st1{fill:#836aaa}.st2{fill:#ae95ce}</style><path class="st0" d="M57.3 26.4c.7 1.9 2.6 3.2 4.8 2.9 1.8-.3 3.2-1.6 3.6-3.4.6-2.8-1.5-5.3-4.3-5.3-1.9 0-3.5 1.2-4.1 3h-3.9c.1.7.1 1.3.1 2v.8h3.8zM3.9 8.6c2.2.3 4.1-1 4.8-2.9h8.2l7 7.8c.7-.7 1.4-1.2 2.2-1.8l-7.5-8.4c-.1-.1-.3-.2-.5-.3H8.7C8.1 1.3 6.5.1 4.6.1 1.9.1-.3 2.6.3 5.3c.4 1.7 1.8 3 3.6 3.3zM48.6 13.7l7.2-8h7.6c.7 1.9 2.6 3.2 4.8 2.9 1.8-.3 3.2-1.6 3.6-3.3.7-2.8-1.5-5.3-4.2-5.3-1.9 0-3.5 1.2-4.1 2.9h-8.2c-.2 0-.4 0-.5.1-.2.1-.3.2-.5.3l-7.7 8.6c.7.5 1.4 1.1 2 1.8zM14.9 23.6c-.7-1.9-2.6-3.2-4.8-2.9-1.8.3-3.2 1.6-3.6 3.4-.6 2.8 1.5 5.3 4.3 5.3 1.9 0 3.5-1.2 4.1-3h3.9v-.9c0-.7 0-1.3.1-1.9h-4zM71.9 44.7c-.4-1.7-1.8-3-3.6-3.3-2.2-.3-4.1 1-4.8 2.9h-7.6l-6.6-7.5c-.6.7-1.3 1.3-2 1.9l7.1 7.9c.1.1.3.2.5.3.2.1.4.1.5.1h8.2c.6 1.7 2.2 2.9 4.1 2.9 2.7 0 4.8-2.4 4.2-5.2zM23.3 37l-6.4 7.3H8.5c-.7-1.9-2.6-3.2-4.8-2.9-1.8.3-3.2 1.6-3.6 3.3-.6 2.8 1.6 5.3 4.3 5.3 1.9 0 3.5-1.2 4.1-2.9h8.9c.2 0 .4 0 .5-.1.2-.1.3-.2.5-.3l6.9-7.8c-.7-.6-1.4-1.2-2-1.9z"/><path class="st1" d="M21.1 34.3c-4.8-8.3-1.9-19 6.4-23.8 8.3-4.8 19-1.9 23.8 6.4s1.9 19-6.4 23.8c-8.4 4.7-19 1.9-23.8-6.4z"/><path class="st2" d="M36.1 8.2c-2.9 0-5.9.7-8.6 2.3-8.3 4.8-11.2 15.5-6.4 23.8 3.2 5.6 9 8.7 15 8.7V8.2z"/><path d="M36.1 35.3c-5.4 0-9.7-4.4-9.7-9.7 0-5.4 4.4-9.7 9.7-9.7s9.7 4.4 9.7 9.7c.1 5.3-4.3 9.7-9.7 9.7z" fill="#fff"/><path class="st1" d="M36.1 31.6c-3.2 0-5.9-2.6-5.9-5.9 0-3.2 2.6-5.9 5.9-5.9s5.9 2.6 5.9 5.9c0 3.2-2.7 5.9-5.9 5.9z"/><path class="st2" d="M30.2 25.7c0 3.2 2.6 5.9 5.9 5.9V19.8c-3.2 0-5.9 2.6-5.9 5.9z"/></svg>