<svg width="354" height="416" viewBox="0 0 354 416" xmlns="http://www.w3.org/2000/svg"><defs><linearGradient x1="50%" y1="100.005%" x2="50%" y2=".005%" id="a"><stop stop-color="#8B66B6" offset="0%"/><stop stop-color="#623598" offset="74.44%"/><stop stop-color="#623598" offset="100%"/></linearGradient></defs><g fill="none" fill-rule="evenodd"><path fill="url(#a)" d="M375 .6L10 206.5 0 435.9h375z" transform="translate(-9 -7)"/><path d="M74.2 192.2v71.3c0 1.8 1 3.4 2.5 4.3l61.7 35.6c1.5.9 3.4.9 5 0l61.7-35.6c1.5-.9 2.5-2.5 2.5-4.3v-71.3c0-1.8-1-3.4-2.5-4.3l-61.7-35.6c-1.5-.9-3.4-.9-5 0l-61.7 35.6c-1.5.9-2.5 2.5-2.5 4.3z" fill="#FFF" opacity=".09"/><path d="M84.4 200.9v56.9c0 2.4 1.3 4.5 3.3 5.7L137 292c2 1.2 4.6 1.2 6.6 0l49.3-28.4c2-1.2 3.3-3.4 3.3-5.7V201c0-2.4-1.3-4.5-3.3-5.7l-49.3-28.4c-2-1.2-4.6-1.2-6.6 0l-49.3 28.4c-2 1.1-3.3 3.3-3.3 5.6z" fill="#FFF"/><path d="M218.4 188.4v80c0 2.9-1.6 5.6-4.1 7.1l-69.3 40c-2.5 1.5-5.7 1.5-8.2 0l-69.3-40c-2.5-1.5-4.1-4.2-4.1-7.1v-80c0-2.9 1.6-5.6 4.1-7.1l69.3-40c2.5-1.5 5.7-1.5 8.2 0l69.3 40c2.6 1.5 4.1 4.2 4.1 7.1z" stroke="#FFF" stroke-width="2" opacity=".55"/><path d="M168.7 209.9c0-2.1-1.7-3.9-3.9-3.9h-54.2c-2.1 0-3.9 1.7-3.9 3.9v12.2c0-2.1 1.7-3.8 3.9-3.8h58l.1-8.4z" fill="#623598"/><path d="M174.4 258.6h-63.7c-2.1 0-3.9-1.7-3.9-3.9v-35.6c0-2.1 1.7-3.9 3.9-3.9h63.7c2.1 0 3.9 1.7 3.9 3.9v35.6c-.1 2.1-1.8 3.9-3.9 3.9z" fill="#8B66B6"/><path d="M120.3 203.8h3.5c.8 0 1 .2 1 .5v10.9h32.9c-.8-1.1-1.9-2-3.2-2.7 1.8-1.9 2.5-4.5 2.2-7.7-.2-1.6-.6-3.1-1.4-4.3-.8-1.3-1.9-2.3-3.2-3-1.2-.7-2.5-1.2-4-1.6-.9-.2-1.9-.4-3.1-.6v-6.5c0-1-.8-1.8-1.7-1.8H130c-1 0-1.7.8-1.7 1.8v6.3H120.4c-.5 0-.9.2-1.2.5-.3.3-.5.8-.5 1.2v5.1c-.1 1.1.7 1.9 1.6 1.9z" fill="#AC87D3"/><path d="M178.2 228.6h-20c-2.5 0-4.5 2-4.5 4.5v7.3c0 2.5 2 4.5 4.5 4.5h20v-16.3z" fill="#683F9B"/><path d="M161.2 239.8c1.7 0 3.1-1.3 3.1-3s-1.4-3-3.1-3c-1.7 0-3.1 1.3-3.1 3 0 1.6 1.4 3 3.1 3zM146.5 229l-.1-.1-.1-.1-10-5.8c-.3-.2-.7-.3-1-.3-.3 0-.7.1-1 .3l-10 5.8c-.6.4-1 1-1 1.7v2.5h-16.5v6.5h16.5v2.5c0 .7.4 1.4 1 1.7l10 5.8c.3.2.7.3 1 .3.3 0 .7-.1 1-.3l10-5.8c.6-.4 1-1 1-1.7v-11.5c0-.5-.3-1.1-.8-1.5z" fill="#D3C1E7"/><path d="M140.3 233.1s-.1 0 0 0c-.1 0-.1 0 0 0l-4.5-2.6c-.1-.1-.3-.1-.4-.1-.2 0-.3 0-.4.1l-4.4 2.5c-.3.2-.4.5-.4.8v5.1c0 .3.2.6.4.8l4.4 2.5c.1.1.3.1.4.1.2 0 .3 0 .4-.1l4.4-2.5c.3-.2.4-.5.4-.8v-5.1c0-.3-.1-.5-.3-.7z" fill="#9371BA"/><path d="M143.4 187.2h-6.5v28.1h20.9c-.8-1.1-1.9-2-3.2-2.7 1.8-1.9 2.5-4.5 2.2-7.7-.2-1.6-.6-3.1-1.4-4.3-.8-1.3-1.9-2.3-3.2-3-1.2-.7-2.5-1.2-4-1.6-.9-.2-1.9-.4-3.1-.6v-6.5c.1-1-.7-1.7-1.7-1.7z" fill="#8B66B6"/><path d="M37 281.6h-3.1v-3.1c0-.7-.6-1.3-1.3-1.3-.7 0-1.3.6-1.3 1.3v3.1h-3.1c-.7 0-1.3.6-1.3 1.3 0 .7.6 1.3 1.3 1.3h3.1v3.1c0 .7.6 1.3 1.3 1.3.7 0 1.3-.6 1.3-1.3v-3.1H37c.7 0 1.3-.6 1.3-1.3 0-.8-.6-1.3-1.3-1.3z" fill="#FFF" opacity=".5"/><path d="M361.7 149.6l98.2 56.7c6.9 4 11.1 11.3 11.1 19.3v113.9c0 8-4.2 15.3-11.1 19.3l-98.6 56.9c-6.9 4-15.4 4-22.3 0l-98.6-56.9c-6.9-4-11.1-11.3-11.1-19.3V225.6c0-8 4.2-15.3 11.1-19.3l98.2-56.7c7.1-4.2 15.9-4.2 23.1 0zM342 190.5l-68.2 39.4c-5 2.9-8.1 8.2-8.1 14v78.7c0 5.8 3.1 11.1 8.1 14L342 376c5 2.9 11.2 2.9 16.2 0l68.2-39.4c5-2.9 8.1-8.2 8.1-14v-78.7c0-5.8-3.1-11.1-8.1-14l-68.2-39.4c-5-2.9-11.2-2.9-16.2 0z" fill="#FFF" fill-rule="nonzero" opacity=".12"/><path d="M407.9 258.9v53.6c0 4.1-2.2 7.8-5.7 9.9l-46.4 26.8c-3.5 2-7.9 2-11.4 0L298 322.4c-3.5-2-5.7-5.8-5.7-9.9v-53.6c0-4.1 2.2-7.8 5.7-9.9l46.4-26.8c3.5-2 7.9-2 11.4 0l46.4 26.8c3.5 2.1 5.7 5.8 5.7 9.9z" fill="#A082C2" opacity=".66"/><path d="M91.5 327l27.8 16.1c2 1.2 3.3 3.4 3.3 5.7v32.1c0 2.4-1.3 4.5-3.3 5.7l-27.8 16.1c-2 1.2-4.6 1.2-6.6 0l-27.8-16.1c-2-1.2-3.3-3.4-3.3-5.7v-32.1c0-2.4 1.3-4.5 3.3-5.7L84.9 327c2.1-1.2 4.6-1.2 6.6 0zm-5.2 16.1l-16 9.2c-1.2.7-1.9 1.9-1.9 3.3v18.5c0 1.4.7 2.6 1.9 3.3l16 9.2c1.2.7 2.6.7 3.8 0l16-9.2c1.2-.7 1.9-1.9 1.9-3.3v-18.5c0-1.4-.7-2.6-1.9-3.3l-16-9.2a3.7 3.7 0 0 0-3.8 0z" fill="#FFF" fill-rule="nonzero" opacity=".09"/><path d="M140.8 132.4v-3.3M140.8 158.4v-10.3" stroke="#FFF" stroke-width="4" opacity=".12" stroke-linecap="round" stroke-linejoin="round"/><path stroke="#FFF" stroke-width="4" opacity=".12" d="M362.1 450.5L140.8 322.7v-32.4"/><path d="M131.9 319.2v7.7c0 .8.4 1.5 1.1 1.9l6.7 3.9c.7.4 1.5.4 2.1 0l6.7-3.9c.7-.4 1.1-1.1 1.1-1.9v-7.7c0-.8-.4-1.5-1.1-1.9l-6.7-3.9c-.7-.4-1.5-.4-2.1 0l-6.7 3.9c-.7.5-1.1 1.2-1.1 1.9z" fill="#FFF" opacity=".06"/><path d="M135.4 320.8v4.7c0 .5.2.9.6 1.1l4 2.3c.4.2.9.2 1.3 0l4-2.3c.4-.2.6-.7.6-1.1v-4.7c0-.5-.2-.9-.6-1.1l-4-2.3c-.4-.2-.9-.2-1.3 0l-4 2.3c-.3.2-.6.6-.6 1.1z" fill="#FFF" opacity=".06"/><path d="M138.1 322v2.3c0 .2.1.4.3.6l2 1.2c.2.1.4.1.6 0l2-1.2c.2-.1.3-.3.3-.6V322c0-.2-.1-.4-.3-.6l-2-1.2c-.2-.1-.4-.1-.6 0l-2 1.2c-.1.1-.3.3-.3.6zM169 341.2v9.3c0 1.3.7 2.5 1.8 3.2l8.1 4.7c1.1.7 2.5.7 3.7 0l8.1-4.7c1.1-.7 1.8-1.9 1.8-3.2v-9.3c0-1.3-.7-2.5-1.8-3.2l-8.1-4.7c-1.1-.7-2.5-.7-3.7 0l-8.1 4.7c-1.1.7-1.8 1.9-1.8 3.2z" fill="#FFF" opacity=".06"/><g fill="#FFF"><path d="M217.6 193c-5.4 0-9.7-4.4-9.7-9.7 0-5.4 4.4-9.7 9.7-9.7 5.4 0 9.7 4.4 9.7 9.7.1 5.3-4.3 9.7-9.7 9.7z" stroke="#FFF" stroke-width="3" opacity=".11"/><path d="M217.6 185.3c-1.2 0-2.1-.9-2.1-2.1 0-1.2.9-2.1 2.1-2.1 1.2 0 2.1.9 2.1 2.1 0 1.2-.9 2.1-2.1 2.1z"/><path d="M217.6 187.8c-2.5 0-4.5-2-4.5-4.5s2-4.5 4.5-4.5 4.5 2 4.5 4.5c0 2.4-2 4.5-4.5 4.5z" stroke="#FFF" stroke-width="5" opacity=".35"/><path d="M217.6 151.9c-.6 0-1.1-.5-1.1-1.1 0-.6.5-1.1 1.1-1.1.6 0 1.1.5 1.1 1.1 0 .6-.5 1.1-1.1 1.1z" opacity=".11"/><path d="M217.6 156.4c-.6 0-1.1-.5-1.1-1.1 0-.6.5-1.1 1.1-1.1.6 0 1.1.5 1.1 1.1 0 .6-.5 1.1-1.1 1.1z" opacity=".26"/><path d="M217.6 161c-.6 0-1.1-.5-1.1-1.1 0-.6.5-1.1 1.1-1.1.6 0 1.1.5 1.1 1.1 0 .6-.5 1.1-1.1 1.1z" opacity=".44"/><path d="M217.6 165.5c-.6 0-1.1-.5-1.1-1.1 0-.6.5-1.1 1.1-1.1.6 0 1.1.5 1.1 1.1 0 .7-.5 1.1-1.1 1.1z" opacity=".7"/><path d="M217.6 170.1c-.6 0-1.1-.5-1.1-1.1 0-.6.5-1.1 1.1-1.1.6 0 1.1.5 1.1 1.1 0 .6-.5 1.1-1.1 1.1z"/></g><g fill="#FFF"><path d="M250.6 221.4c-1.7 0-3 1.4-3 3s1.4 3 3 3c1.7 0 3-1.4 3-3s-1.4-3-3-3z"/><path d="M250.6 210.4c-7.8 0-14.1 6.3-14.1 14.1s6.3 14.1 14.1 14.1 14.1-6.3 14.1-14.1-6.3-14.1-14.1-14.1z" stroke="#FFF" stroke-width="3" opacity=".11"/><path d="M250.6 217.9c-3.6 0-6.5 2.9-6.5 6.5s2.9 6.5 6.5 6.5 6.5-2.9 6.5-6.5c0-3.5-2.9-6.5-6.5-6.5z" stroke="#FFF" stroke-width="5" opacity=".35"/><g transform="translate(249 243)"><path d="M1.6 27c-.8 0-1.5.7-1.5 1.5S.8 30 1.6 30s1.5-.7 1.5-1.5S2.4 27 1.6 27z" opacity=".11"/><path d="M1.6 20.4c-.8 0-1.5.7-1.5 1.5s.7 1.5 1.5 1.5 1.5-.7 1.5-1.5-.7-1.5-1.5-1.5z" opacity=".26"/><circle opacity=".44" cx="1.6" cy="15.3" r="1.5"/><path d="M1.6 7.2C.8 7.2.1 7.9.1 8.7s.7 1.5 1.5 1.5 1.5-.7 1.5-1.5c0-.9-.7-1.5-1.5-1.5z" opacity=".7"/><path d="M1.6.6C.8.6.1 1.3.1 2.1s.7 1.5 1.5 1.5 1.5-.7 1.5-1.5c0-.9-.7-1.5-1.5-1.5z"/></g></g><g fill="#FFF"><path d="M32.5 219c-1.7 0-3 1.4-3 3s1.4 3 3 3c1.7 0 3-1.4 3-3s-1.3-3-3-3z"/><path d="M32.5 207.9c-7.8 0-14.1 6.3-14.1 14.1s6.3 14.1 14.1 14.1 14.1-6.3 14.1-14.1-6.3-14.1-14.1-14.1z" stroke="#FFF" stroke-width="3" opacity=".11"/><path d="M32.5 215.5c-3.6 0-6.5 2.9-6.5 6.5s2.9 6.5 6.5 6.5 6.5-2.9 6.5-6.5c.1-3.6-2.9-6.5-6.5-6.5z" stroke="#FFF" stroke-width="5" opacity=".35"/><g transform="translate(31 241)"><path d="M1.5 26.5c-.8 0-1.5.7-1.5 1.5s.7 1.5 1.5 1.5S3 28.8 3 28c.1-.8-.6-1.5-1.5-1.5z" opacity=".11"/><path d="M1.5 19.9c-.8 0-1.5.7-1.5 1.5s.7 1.5 1.5 1.5S3 22.2 3 21.4c.1-.8-.6-1.5-1.5-1.5z" opacity=".26"/><circle opacity=".44" cx="1.5" cy="14.8" r="1.5"/><path d="M1.5 6.7C.7 6.7 0 7.4 0 8.2s.7 1.5 1.5 1.5S3 9 3 8.2c.1-.8-.6-1.5-1.5-1.5z" opacity=".7"/><path d="M1.5.1C.7.1 0 .8 0 1.6s.7 1.5 1.5 1.5S3 2.4 3 1.6C3.1.8 2.4.1 1.5.1z"/></g></g><path stroke="#FFF" stroke-width="2" opacity=".12" stroke-linecap="round" stroke-linejoin="round" d="M250.6 386.1V225.2l146-84.3"/><g fill="#FFF"><path d="M63.5 315.5c-7.5 0-13.7-6.1-13.7-13.7 0-7.5 6.1-13.7 13.7-13.7 7.5 0 13.7 6.1 13.7 13.7s-6.1 13.7-13.7 13.7z" stroke="#FFF" stroke-width="3" opacity=".11"/><path d="M63.5 304.8c-1.6 0-2.9-1.3-2.9-2.9 0-1.6 1.3-2.9 2.9-2.9 1.6 0 2.9 1.3 2.9 2.9.1 1.6-1.2 2.9-2.9 2.9z"/><path d="M63.5 308.2c-3.5 0-6.3-2.8-6.3-6.3s2.8-6.3 6.3-6.3 6.3 2.8 6.3 6.3-2.8 6.3-6.3 6.3z" stroke="#FFF" stroke-width="5" opacity=".35"/><path d="M63.5 257.8c-.8 0-1.5-.7-1.5-1.5s.7-1.5 1.5-1.5 1.5.7 1.5 1.5-.6 1.5-1.5 1.5z" opacity=".11"/><path d="M63.5 264.2c-.8 0-1.5-.7-1.5-1.5s.7-1.5 1.5-1.5 1.5.7 1.5 1.5-.6 1.5-1.5 1.5z" opacity=".26"/><path d="M63.5 270.6c-.8 0-1.5-.7-1.5-1.5s.7-1.5 1.5-1.5 1.5.7 1.5 1.5-.6 1.5-1.5 1.5z" opacity=".44"/><path d="M63.5 277c-.8 0-1.5-.7-1.5-1.5s.7-1.5 1.5-1.5 1.5.7 1.5 1.5-.6 1.5-1.5 1.5z" opacity=".7"/><path d="M63.5 283.4c-.8 0-1.5-.7-1.5-1.5s.7-1.5 1.5-1.5 1.5.7 1.5 1.5-.6 1.5-1.5 1.5z"/></g><path d="M200.6 311.9h-3.2v-3.2c0-.7-.6-1.3-1.3-1.3-.7 0-1.3.6-1.3 1.3v3.2h-3.2c-.7 0-1.3.6-1.3 1.3 0 .7.6 1.3 1.3 1.3h3.2v3.2c0 .7.6 1.3 1.3 1.3.7 0 1.3-.6 1.3-1.3v-3.2h3.2c.7 0 1.3-.6 1.3-1.3.1-.7-.5-1.3-1.3-1.3zM143.7 371.2h-1.9v-1.9c0-.4-.4-.8-.8-.8s-.8.4-.8.8v1.9h-1.9c-.4 0-.8.4-.8.8s.4.8.8.8h1.9v1.9c0 .4.4.8.8.8s.8-.4.8-.8v-1.9h1.9c.4 0 .8-.4.8-.8s-.4-.8-.8-.8zM91 302.4h-2v-1.9c0-.4-.4-.8-.8-.8s-.8.4-.8.8v1.9h-1.9c-.4 0-.8.4-.8.8s.4.8.8.8h1.9v1.9c0 .4.4.8.8.8s.8-.4.8-.8V304h1.9c.4 0 .8-.4.8-.8.1-.4-.3-.8-.7-.8zM221.6 136.7h-3v-3c0-.7-.6-1.3-1.3-1.3-.7 0-1.3.6-1.3 1.3v3h-3c-.7 0-1.3.6-1.3 1.3 0 .7.6 1.3 1.3 1.3h3v3c0 .7.6 1.3 1.3 1.3.7 0 1.3-.6 1.3-1.3v-3h3c.7 0 1.3-.6 1.3-1.3-.1-.7-.6-1.3-1.3-1.3zM96.5 362.4h-5.8v-5.8c0-1.3-1.1-2.4-2.4-2.4-1.3 0-2.4 1.1-2.4 2.4v5.8H80c-1.3 0-2.4 1.1-2.4 2.4 0 1.3 1.1 2.4 2.4 2.4h5.8v5.8c0 1.3 1.1 2.4 2.4 2.4 1.3 0 2.4-1.1 2.4-2.4v-5.8h5.8c1.3 0 2.4-1.1 2.4-2.4.1-1.3-1-2.4-2.3-2.4z" fill="#FFF" opacity=".35"/><g fill="#FFF"><path d="M239.5 138.8v20c0 2.6 1.4 4.9 3.6 6.2l17.3 10c2.2 1.3 5 1.3 7.2 0l17.3-10c2.2-1.3 3.6-3.6 3.6-6.2v-20c0-2.6-1.4-4.9-3.6-6.2l-17.3-10c-2.2-1.3-5-1.3-7.2 0l-17.3 10c-2.2 1.3-3.6 3.6-3.6 6.2z" opacity=".06"/><path d="M272.6 146.4h-6.1v-6.1c0-1.4-1.1-2.6-2.5-2.6s-2.5 1.1-2.5 2.6v6.1h-6.1c-1.4 0-2.5 1.1-2.5 2.6 0 1.4 1.1 2.6 2.5 2.6h6.1v6.1c0 1.4 1.1 2.5 2.5 2.5s2.5-1.1 2.5-2.5v-6.1h6.1c1.4 0 2.5-1.1 2.5-2.6s-1.1-2.6-2.5-2.6z" opacity=".35"/></g><path d="M250.6 383.4c-1.5 0-2.7 1.2-2.7 2.7 0 1.5 1.2 2.7 2.7 2.7 1.5 0 2.7-1.2 2.7-2.7 0-1.5-1.2-2.7-2.7-2.7z" fill="#FFF" opacity=".5"/></g></svg>