<svg xmlns="http://www.w3.org/2000/svg" viewBox="0 0 72 50"><path d="M65.4 50H9.5c-2.4 0-4.3-1.9-4.3-4.3V11.2c0-2.4 1.9-4.3 4.3-4.3h58.2c2.4 0 4.3 1.9 4.3 4.3v32.2c0 3.6-3 6.6-6.6 6.6z" fill="#417dc0"/><path d="M60.7 41.9H4.2C1.9 41.9 0 40 0 37.7V4.2C0 1.9 1.9 0 4.2 0h56.6C63.1 0 65 1.9 65 4.2v33.6c-.1 2.3-2 4.1-4.3 4.1z" fill="#22a6e4"/><path d="M49.7 7.2c-.9-.5-8 2.2-10.9 3.9v-.2c0-.6-.5-1-1-1h-4.9v15.5l8.8 9.7 2.1-4.3 4.8-.6-10.8-11v-.1c.5 0 .9-.4.9-.9 2.6 1.5 8.5 3.4 10.6 3.4 1.1 0 1.8-2.5 2.1-5.4.2-2.3.2-7.9-1.7-9z" fill="#8ddbf5"/><path d="M32.9 9.9h-4.3c-.5 0-1 .4-1 1-2.9-1.7-10.2-4.4-11.1-3.8-1.8 1.2-1.8 6.7-1.6 9.1.3 2.9 1 5.4 2.1 5.4 2.1 0 8.1-2 10.6-3.6v.3c0 .3.2.6.5.8l-9.9 11.2 4.9.5 2.1 4.3 7.7-9.6V9.9z" fill="#c4edf9"/></svg>