<svg id="Layer_1" width="40" height="40" xmlns="http://www.w3.org/2000/svg" viewBox="0 0 54 54"><style>.st0{fill:none;stroke:gray;stroke-linecap:round;stroke-linejoin:round;stroke-miterlimit:10}</style><path class="st0" d="M38.2 24.9c-.5-.4-1.2-.7-1.9-.8-.6-.1-.8-.7-.6-1.3.6-1.1.6-2.3.1-3.7-.3-.7-.6-1.3-1.1-1.7-.5-.4-1.1-.8-1.7-.9-.7-.2-1.4-.3-2.1-.2-.5 0-1.1.1-1.7.1-.4.1-.8-.2-.9-.6l-.7-2.6c-.1-.4-.6-.7-1-.6l-.9.3c-.4.1-.7.6-.6 1l.7 2.5c.1.4-.1.9-.6 1-.1 0-.3.1-.4.1-.5.1-.9-.1-1-.6l-.8-2.6c-.1-.4-.6-.7-1-.6l-.9.3c-.4.1-.7.6-.6 1l.7 2.6c.1.4-.1.9-.6 1-.2.1-.5.1-.8.2l-2.7.7c-.4.1-.7.6-.6 1l.3 1.1c.1.4.6.7 1 .6l1-.3c.8-.2 1.4 0 1.8.7L23.7 34c.1.6-.2 1-.7 1.1l-1.2.3c-.4.1-.7.5-.6.9l.1 1.5c0 .5.5.9 1 .7l2.4-.6c.2-.1.5-.1.9-.2h.1c.4-.1.9.2 1 .6l.7 2.6c.1.4.6.7 1 .6l.9-.3c.4-.1.7-.6.6-1l-.7-2.5c-.1-.4.1-.9.6-1 .1 0 .3-.1.4-.1.4-.1.9.1 1 .6l.7 2.5c.1.4.6.7 1 .6L34 40c.4-.1.7-.6.6-1l-.7-2.7c-.1-.4.1-.9.5-1 .6-.2 1.1-.4 1.6-.6.7-.3 1.3-.7 1.9-1.1.6-.4 1-.9 1.3-1.4.3-.5.6-1.1.7-1.8.1-.7.1-1.4 0-2.2-.3-1.6-.9-2.7-1.7-3.3zm-13.4-4.4c.1 0 .3-.1.7-.2.4-.1.7-.2.9-.3.2-.1.6-.1 1-.2s.8-.1 1.1-.1h1c.4 0 .7.1.9.3.2.1.5.3.7.6.2.2.4.5.5.9.1.3.1.6.1.9 0 .3-.1.5-.3.8-.2.2-.3.4-.5.6-.2.2-.4.4-.7.5-.3.2-.6.3-.8.4-.2.1-.5.2-.9.3-.4.1-.6.2-.8.3-.2.1-.4.1-.8.2-.3.1-.5.1-.6.1l-1.5-5.1zm10 9.5c0 .3-.1.5-.2.8-.1.2-.3.5-.5.7-.2.2-.5.4-.7.6-.2.2-.5.3-.9.5-.3.2-.6.3-.9.4-.3.1-.6.2-1 .3-.4.1-.7.2-.9.3-.2.1-.5.1-.8.2-.3.1-.5.1-.6.2L27 29c-.1-.4.1-.9.6-1 .4-.1.8-.2 1.1-.3.3-.1.7-.2 1.2-.3.5-.1.9-.2 1.3-.2h1.2c.4 0 .8.1 1.1.2.3.1.6.3.8.6.2.3.4.6.5 1v1z"/><circle class="st0" cx="27" cy="27" r="26"/><path class="st0" d="M21.7 6.5C10.4 9.4 3.6 21 6.5 32.3S21 50.4 32.3 47.5"/></svg>