<svg id="Layer_1" width="49" height="42" xmlns="http://www.w3.org/2000/svg" viewBox="0 0 70 54"><style>.st0{fill:none;stroke:gray;stroke-linecap:round;stroke-linejoin:round;stroke-miterlimit:10}</style><path class="st0" d="M54.9 53c.5-1.5.6-2.8.6-4.7-.1-3.7-.9-6.4-2.7-8.2-1.1-1.1-2.4-1.9-4-2.5-1.2-.4-1.6-2-.8-3 1.7-2.2 2.2-5 1.5-8.4-.3-1.7-1-3.1-1.9-4.3s-2.1-2.1-3.5-2.7-3-1-4.6-1.3c-1.2-.2-2.5-.3-3.9-.3-.9 0-1.7-.7-1.8-1.7l-.7-6.3c-.1-1-1-1.8-2.1-1.7l-2.3.2c-1 .1-1.8 1-1.7 2.1l.6 5.9c.1 1-.6 2-1.6 2.1-.3 0-.6.1-1 .1-1 .1-2-.6-2.1-1.7l-.6-5.9c-.1-1-1-1.8-2.1-1.7l-2.2.4c-1 .1-1.8 1-1.7 2.1l.7 6.1c.1 1-.6 2-1.6 2.1-.6.1-1.2.1-1.9.2l-6.4.7c-1 .1-1.8 1-1.7 2.1l.3 2.7c.1 1 1 1.8 2.1 1.7l2.5-.3c2-.2 3.2.5 3.8 2.3l2.6 24m7.4-27.5c.2 0 .7-.1 1.5-.2s1.5-.2 2.1-.3c.6 0 1.3-.1 2.3-.1h2.4c.7.1 1.4.2 2.2.4.8.2 1.5.5 2 .9s1 .9 1.4 1.5.6 1.4.7 2.2c.1.7 0 1.4-.1 2-.2.6-.5 1.2-.9 1.6-.4.5-.9.9-1.3 1.2-.5.4-1.1.7-1.8.9-.7.3-1.4.5-2 .7s-1.3.3-2.1.5c-.9.1-1.5.2-1.9.3s-1 .1-1.8.2-1.2.1-1.3.1l-1.4-11.9zm3 27.4l-.8-7.5c-.1-1 .6-1.9 1.6-2.1 1-.1 1.9-.2 2.5-.3s1.5-.1 2.7-.2H36c.8.1 1.7.2 2.6.4 1 .2 1.7.5 2.4.9.6.4 1.2 1 1.6 1.6.5.7.8 1.5.9 2.4.1.7 0 1.4-.2 2s-.4 1.2-.8 1.7c-.2.2-.4.5-.6.7"/><path class="st0" d="M54.1 41.9h9.4L69 53H1l4.4-11.1h9.5M61.5 7.7h-3.6c-.5 0-1-.4-1-1V3.1c0-.9-.6-1.8-1.5-2-1.3-.4-2.5.7-2.5 1.9v3.7c0 .5-.4 1-1 1h-3.6c-.9 0-1.8.6-2 1.5-.4 1.3.6 2.6 1.9 2.6h3.7c.5 0 1 .4 1 1v3.6c0 .9.6 1.8 1.5 2 1.3.4 2.5-.7 2.5-1.9v-3.7c0-.5.4-1 1-1h3.7c1.3 0 2.3-1.2 1.9-2.6-.3-.9-1.1-1.5-2-1.5z"/></svg>