<svg id="Layer_1" width="41" height="41" xmlns="http://www.w3.org/2000/svg" viewBox="0 0 57 54"><style>.st0{fill:none;stroke:gray;stroke-linecap:round;stroke-linejoin:round;stroke-miterlimit:10}</style><path class="st0" d="M19.1 19.2H19v-1.3c0-2.6-2.1-4.8-4.7-4.8s-4.7 2.1-4.7 4.8v1.3c-.7 0-1.2.5-1.2 1.2v1.1c0 .7.5 1.2 1.2 1.2v.4c0 2.6 2.1 4.8 4.7 4.8s4.7-2.1 4.7-4.8v-.4h.1c.7 0 1.2-.5 1.2-1.2v-1.1c0-.7-.6-1.2-1.2-1.2zM21.8 29.9c-.2-.1-.5-.2-.7-.4-1.6 2.2-4 3.6-6.8 3.6S9 31.7 7.5 29.5c-3.3 1.7-6 3.2-6.5 8M47.5 19.2l-.1-1.3c0-2.6-2.1-4.8-4.7-4.8S38 15.2 38 17.9v1.3c-.7 0-1.2.5-1.2 1.2v1.1c0 .7.5 1.2 1.2 1.2v.4c0 2.6 2.1 4.8 4.7 4.8s4.7-2.1 4.7-4.8v-.4h.1c.7 0 1.2-.5 1.2-1.2v-1.1c0-.7-.6-1.2-1.2-1.2zM56 37.5c-.7-4.4-3.2-6.3-6.5-8-1.6 2.2-4 3.6-6.8 3.6s-5.3-1.4-6.8-3.6l-1.2.6"/><g><path class="st0" d="M34.7 29.7c-.1 0-.1 0 0 0l-.1-1.4c0-3.5-2.8-6.3-6.3-6.3-3.4 0-6.3 2.8-6.3 6.3v1.4c-.9 0-1.6.7-1.6 1.6v1.4c0 .9.7 1.6 1.6 1.6v.5c0 3.5 2.8 6.3 6.3 6.3 3.4 0 6.3-2.8 6.3-6.3v-.5h.1c.9 0 1.6-.7 1.6-1.6v-1.4c0-.9-.7-1.6-1.6-1.6z"/><path class="st0" d="M45.7 53c-.9-5.8-4-10.3-8.3-12.5-2.1 2.9-5.3 4.8-9 4.8s-7-1.9-9-4.8C15 42.7 11.7 46.7 11 53"/></g><g><path class="st0" d="M32.2 6c-.1 0-.1 0 0 0l-.1-1.2c0-2.1-1.7-3.8-3.7-3.8-2.1 0-3.7 1.7-3.7 3.8V6c-.5 0-1 .4-1 1v.9c0 .5.4 1 1 1V9c0 2.1 1.7 3.8 3.7 3.8 2.1 0 3.7-1.7 3.7-3.8v-.3h.1c.5 0 1-.4 1-1v-.8c-.1-.5-.5-.9-1-.9zM37.6 18.2c-.7-2-1.9-3.1-3.8-4-1.2 1.7-3.2 2.8-5.4 2.8s-4.2-1.1-5.4-2.8c-1.9 1-3.2 1.9-3.9 3.9"/></g></svg>