<svg id="Layer_1" width="34" height="42" xmlns="http://www.w3.org/2000/svg" viewBox="0 0 44 54"><style>.st0{fill:none;stroke:gray;stroke-linecap:round;stroke-linejoin:round;stroke-miterlimit:10}</style><path class="st0" d="M42.9 10.4c0-1.7-1.4-3.1-3.1-3.1H4.2c-1.7 0-3.1 1.4-3.1 3.1C1.1 20.8-.4 35 7.8 43.3c6 6 14.2 9.7 14.2 9.7s8.2-3.7 14.2-9.7c8.2-8.3 6.7-22.5 6.7-32.9zM38.1 7.3V3.5C38 2.1 37 1 35.7 1H8.3C7 1 6 2.1 6 3.4v3.9"/><path class="st0" d="M29.6 24.9H25l3.1-5.6c.6-1-.2-2.3-1.3-2.3h-7.1c-.8 0-1.5.4-1.9 1.1l-3.5 10.2c-.3.7.2 1.7 1.1 1.7h4.2l-3.2 8.5c-.3.6.4 1.2.9.8l13-12.6c.7-.6.3-1.8-.7-1.8z"/></svg>