<svg xmlns="http://www.w3.org/2000/svg" viewBox="0 0 89 100"><path d="M86.2 22.8c-.1-.1-.3-.2-.4-.3-.1-.1-.3-.2-.4-.3L48.3 1c-1.1-.7-2.4-1-3.7-1-1.3 0-2.6.3-3.7 1l-37 21.3C1.6 23.6.2 26.1.2 28.8v42.5c0 2.7 1.4 5.1 3.7 6.5l37 21.3c1.2.7 2.4 1 3.7 1 1.3 0 2.6-.3 3.7-1l37-21.3c2.3-1.3 3.7-3.8 3.7-6.5V28.8c.1-2.4-1-4.6-2.8-6z" fill="#d3c1e7"/><path d="M79.3 27.3c-.1-.1-.2-.2-.3-.2-.1-.1-.2-.2-.3-.2l-31-17.8c-1-.6-2-.8-3.1-.8s-2.2.3-3.1.8L10.6 26.8c-1.9 1.1-3.1 3.2-3.1 5.4v35.5c0 2.2 1.2 4.3 3.1 5.4l30.9 17.8c1 .6 2 .8 3.1.8s2.2-.3 3.1-.8l30.9-17.8c1.9-1.1 3.1-3.2 3.1-5.4V32.2c.1-1.9-.9-3.7-2.4-4.9z" fill="#836aaa"/><path d="M10.6 73.2L41.5 91c1 .6 2 .8 3.1.8s2.2-.3 3.1-.8l30.9-17.8c1.9-1.1 3.1-3.2 3.1-5.4V32.2c0-1-.2-1.9-.6-2.8L8.5 71.2c.5.8 1.2 1.5 2.1 2z" fill="#705a9b"/><path d="M89.1 64.4c-6.7-3.9-15.1-9-18.7-14.5-1.4-2-2.5-4-4.3-6.8-1-1.5-1.8-3.1-2.6-4.7-.7-1.4-1.1-3.3-2.1-4.5-.7-.9-1.9-1.5-2.7-2.3-3.4-3.1-7.7-6.7-8.8-11.4-.5-2.3-1.7-4.4-2-6.7-.1-1.2-.1-2.7-1.5-3-1.4-.3-2.6 1.1-3.2 2.1-2 3-2.1 7.3-2.1 10.8.1 3.1 3.4 8.4 1.8 11.1-.2.3-.5.5-.9.6-3.1 1.5-5.7 3.6-8.7 5.1-.1 0-.3.2-.5.3-.4.3-.7.5-1.1.8-.1 0-.1.1-.1.1l-.1.1-.8.8c-.8.8-1.2 1.5-1.6 2.6-.6 1.7-.8 3.6.2 5.2 1.2 2.1.8 3.2.8 5.6 0 2 1.3 3.8 1.6 5.8.2 1.3 0 2.6.2 3.9.4 2.1 1.7 3.9 2.2 5.9.5 2.1 1 3.3 3.2 3.9.8.2 2.9.5 5.1.5 1.5.1 3 .7 5.6 1.3 1.3.3 3 1.3 7.2 2.1 3.1.6 6.4 3.6 8.9 5.3 1.4 1 3 1.9 4.6 2.9l16.9-9.7c2.3-1.3 3.7-3.8 3.7-6.5v-6.7z" fill="#ae95ce"/><path d="M89.1 64.4c-2.6-1.5-5.5-3.2-8.2-5.1l-45.6 15c.4.4 1 .7 1.9.9.8.2 2.9.5 5.1.5 1.5.1 3 .7 5.6 1.3 1.3.3 3 1.3 7.2 2.1 3.1.6 6.4 3.6 8.9 5.3 1.4 1 3 1.9 4.6 2.9l16.9-9.7c2.3-1.3 3.7-3.8 3.7-6.5v-6.7z" fill="#9d85c1"/><path d="M89.1 64.4c-6.7-3.9-15.1-9-18.7-14.5-1.4-2-2.5-4-4.3-6.8-1-1.5-1.8-3.1-2.6-4.7-.7-1.4-1.1-3.3-2.1-4.5-.7-.9-1.9-1.5-2.7-2.3-3.4-3.1-7.7-6.7-8.8-11.4-.5-2.3-1.7-4.4-2-6.7-.1-1.2-.1-2.7-1.5-3-1.2-.2-2.2.8-2.9 1.7l26.4 74.4 15.4-8.9c2.3-1.3 3.7-3.8 3.7-6.5v-6.8z" fill="#ede5f4"/></svg>