<svg id="Layer_1" xmlns="http://www.w3.org/2000/svg" viewBox="0 0 170 32"><style>.st0{fill:#454c59}</style><path class="st0" d="M64.5 2.4h-5.7l7.4 10.3 2.3-3.3c.7-1 .7-2.4 0-3.5l-1.7-2.3c-.5-.8-1.3-1.2-2.3-1.2M73.1 22.3l3.2 4.4c.6.8 1.5 1.2 2.4 1.2h5.7l-8.6-12-2.5 2.6c-.9 1.2-1 2.7-.2 3.8"/><path d="M86.8 0L57.1 31.9c-.3.4-.9-.1-.6-.5L77.9 1.2C78.5.4 79.4 0 80.3 0h6.5z" fill="#00a5ef"/><path class="st0" d="M46.2 22.5H34.4L32.1 28H26L37.4 2.4h5.9L54.7 28h-6.2l-2.3-5.5zM44.4 18l-4.1-9.8-4 9.8h8.1zM98.3 7.2v6.7H110v4.8H98.3V28h-5.9V2.4h19.2v4.8zM119.6 16.7V2.4h5.9v14.1c0 4.9 2.1 6.9 5.7 6.9s5.6-2 5.6-6.9V2.4h5.9v14.3c0 7.5-4.3 11.7-11.6 11.7-7.2 0-11.5-4.1-11.5-11.7M150.8 2.4h5.9v20.8H170V28h-19.2zM22.2 11.7c0 5.7-4.3 9.2-11.1 9.2H5.9V28H0V2.4h11.1c6.8 0 11.1 3.5 11.1 9.3m-6 0c0-2.8-1.8-4.5-5.4-4.5H5.9v8.9h4.8c3.7 0 5.5-1.6 5.5-4.4"/></svg>