<svg id="Layer_1" xmlns="http://www.w3.org/2000/svg" viewBox="0 0 72 52"><style>.st0{fill:#705a9b}.st2{fill:#d3c1e7}</style><path class="st0" d="M38.7 44H3.4C1.5 44 0 42.5 0 40.7v-31c0-1.8 1.5-3.4 3.4-3.4h35.4c1.8 0 3.4 1.5 3.4 3.4v30.9c-.1 1.9-1.6 3.4-3.5 3.4z"/><path d="M58.7 52H3.4C1.5 52 0 50.5 0 48.6V17.7c0-1.8 1.5-3.4 3.4-3.4h55.4c1.8 0 3.4 1.5 3.4 3.4v30.9c-.1 1.9-1.6 3.4-3.5 3.4z" fill="#9d85c1"/><path class="st2" d="M71.7 27.5L63 4.9c-.8-2.1-3.2-3.2-5.3-2.3L27.1 14.4h31.6c1.8 0 3.4 1.5 3.4 3.4v17.9l7.3-2.8c2.1-.9 3.1-3.3 2.3-5.4z"/><path d="M47.5 1.8C46.3-.1 43.7-.6 41.8.6L21.1 14.4h6l22.8-8.8-2.4-3.8z" fill="#ae95ce"/><path class="st0" d="M62.1 26H44.7c-2.1 0-3.9 1.7-3.9 3.9v6.4c0 2.1 1.7 3.9 3.9 3.9h17.4V26z"/><path class="st2" d="M47.3 35.6c1.5 0 2.7-1.2 2.7-2.6 0-1.4-1.2-2.6-2.7-2.6-1.5 0-2.7 1.2-2.7 2.6 0 1.5 1.2 2.6 2.7 2.6z"/><path d="M25.1 23.5c-1.1-2.1-3.7-3-5.8-2-1.9.9-2.7 3-2.3 4.9L11.3 30H0v2.5h11.7c.1 0 .3 0 .4-.1 0 0 .1 0 .1-.1 0 0 .1 0 .1-.1l5.9-3.7c1.3 1.2 3.2 1.6 4.9.7 2.2-.9 3-3.5 2-5.7z" fill="#ede5f4"/><path class="st2" d="M31.6 36.8c-1.1-2.2-3.8-3.1-6-2-1.2.6-1.9 1.6-2.3 2.7H0V40h23.4c.1.2.2.5.3.7 1.1 2.2 3.8 3.1 6 2 2.1-1.1 3-3.7 1.9-5.9z"/></svg>