<svg xmlns="http://www.w3.org/2000/svg" viewBox="0 0 72 64"><path d="M0 32c0 .9.2 1.9.7 2.7L16 61.3c1 1.7 2.7 2.7 4.7 2.7h30.6c1.9 0 3.7-1 4.7-2.7 0 0 .6-1 .6-1.1.7-1.3.5-2.3-.2-3.5l-1.8-3.1-2.3-4c-.2-.3-.3-.6-.3-.9 0-.3.1-.6.2-.9l5.2-9s0-.1.1-.1c0 0 0-.1.1-.1.3-.4.9-.7 1.4-.7h6.6c.9 0 1.8.1 2.7 0 .4-.1.9-.3 1.2-.5.9-.7 1.3-1.7 1.9-2.6.5-.8.7-1.8.7-2.7 0-.9-.2-1.9-.7-2.7L56 2.7C55 1 53.2 0 51.3 0H20.7c-1.7 0-3.3.8-4.3 2.1-.1.1-.1.2-.2.3-.1.1-.1.2-.2.3L.7 29.3c-.5.8-.7 1.8-.7 2.7z" fill="#9d85c1"/><path d="M67.6 44c-.9.3-1.5 1.3-1.2 2.2l.3 1.2-5.5-3.3c-.9-.5-1.9-.2-2.4.7-.5.9-.2 1.9.7 2.4l5.5 3.3-1.2.3c-1 .2-1.6 1.2-1.3 2.1s1.2 1.6 2.1 1.3l5.6-1.3h.1s.1 0 .1-.1h.1c.1 0 .1-.1.2-.1h.1c.1 0 .1-.1.2-.1l.1-.1c.1-.1.1-.2.2-.3.1-.1.1-.2.1-.3v-.1-.2-.1-.2-.1-.1-.1l-1.7-5.5c-.1-1.2-1.1-1.7-2.1-1.5z" fill="#836aaa"/><path d="M71.3 34.7c.5-.8.7-1.8.7-2.7 0-.9-.2-1.9-.7-2.7L56 2.7c-.5-.8-1.2-1.5-2-2L17.9 63.2c.8.5 1.8.8 2.8.8h30.6c1.9 0 3.7-1 4.7-2.7 0 0 .6-1 .6-1.1.7-1.3.5-2.3-.2-3.5l-1.8-3.1-2.3-4c-.2-.3-.3-.6-.3-.9 0-.3.1-.6.2-.9l5.2-9s0-.1.1-.1c0 0 0-.1.1-.1.3-.4.9-.7 1.4-.7h6.6c.9 0 1.8.1 2.7 0 .4-.1.9-.3 1.2-.5.8-.8 1.3-1.8 1.8-2.7z" fill="#705a9b"/><path d="M50.5 32.1c-.6-.7-1.3-1.3-2.2-1.8 1.2-1.3 1.7-3.1 1.5-5.2-.1-1.1-.4-2.1-.9-2.9-.5-.8-1.3-1.5-2.2-2-.8-.5-1.7-.8-2.7-1.1-.6-.2-1.3-.3-2.1-.4v-4.3c0-.7-.5-1.2-1.2-1.2h-9.1c-.7 0-1.2.5-1.2 1.2v4.2H25c-.3 0-.6.1-.8.3-.2.2-.3.5-.3.8v3.5c0 .7.5 1.2 1.2 1.2h2.3c.5 0 .6.1.7.4v14.3h-2.3c-.6 0-1.1.4-1.2 1L24 44c-.1.3 0 .7.3 1 .2.3.6.4.9.4H30.5v4.2c0 .7.5 1.2 1.2 1.2h9.1c.7 0 1.2-.5 1.2-1.2v-4.3c.8-.1 1.5-.1 2.1-.3 1-.2 1.9-.4 2.8-.8.9-.4 1.7-.9 2.4-1.5s1.2-1.4 1.6-2.3c.4-.9.7-1.9.8-3 .2-2.2-.2-4-1.2-5.3z" fill="#ede5f4"/><path d="M50.5 32.1c-.6-.7-1.3-1.3-2.2-1.8 1.2-1.3 1.7-3.1 1.5-5.2-.1-1.1-.4-2.1-.9-2.9-.5-.8-1.3-1.5-2.2-2-.8-.5-1.7-.8-2.7-1.1-.6-.2-1.3-.3-2.1-.4v-4.3c0-.7-.5-1.2-1.2-1.2H36v37.5h4.7c.7 0 1.2-.5 1.2-1.2v-4.3c.8-.1 1.5-.1 2.1-.3 1-.2 1.9-.4 2.8-.8.9-.4 1.7-.9 2.4-1.5s1.2-1.4 1.6-2.3c.4-.9.7-1.9.8-3 .3-2.1-.1-3.9-1.1-5.2z" fill="#d3c1e7"/></svg>