<svg id="Layer_1" xmlns="http://www.w3.org/2000/svg" xmlns:xlink="http://www.w3.org/1999/xlink" viewBox="0 0 100 98"><style>.st0{fill:#d3c1e7}.st1{fill:#836aaa}</style><path class="st0" d="M45.7 56.9c-.1-.1-.1-.1-.2-.1s-.1-.1-.2-.1L25.6 45.3c-.6-.4-1.3-.5-2-.5s-1.4.2-2 .5L2 56.7c-1.2.7-2 2-2 3.4v22.6c0 1.4.8 2.7 2 3.4l19.7 11.3c.6.4 1.3.5 2 .5s1.4-.2 2-.5l19.7-11.3c1.2-.7 2-2 2-3.4V60.1c-.1-1.2-.7-2.4-1.7-3.2zM72.2 12.2c-.1-.1-.1-.1-.2-.1s-.1-.1-.2-.1L51.9.5C51.3.2 50.6 0 50 0c-.7 0-1.4.2-2 .5L28.1 11.9c-1.2.7-2 2-2 3.5v22.8c0 1.4.8 2.8 2 3.5l19.8 11.4c.6.4 1.3.5 2 .5s1.4-.2 2-.5l19.8-11.4c1.2-.7 2-2 2-3.5V15.4c.1-1.2-.5-2.4-1.5-3.2z"/><path class="st1" d="M66.5 16s-.1-.1-.2-.1-.1-.1-.2-.1L51.4 7.3c-.5-.3-1-.4-1.5-.4s-1 .1-1.5.4l-14.8 8.5c-.9.5-1.5 1.5-1.5 2.6v17c0 1.1.6 2 1.5 2.6l14.8 8.5c.5.3 1 .4 1.5.4s1-.1 1.5-.4L66.2 38c.9-.5 1.5-1.5 1.5-2.6v-17c0-1-.5-1.9-1.2-2.4z"/><defs><path id="SVGID_1_" d="M66.5 16s-.1-.1-.2-.1-.1-.1-.2-.1L51.4 7.3c-.5-.3-1-.4-1.5-.4s-1 .1-1.5.4l-14.8 8.5c-.9.5-1.5 1.5-1.5 2.6v17c0 1.1.6 2 1.5 2.6l14.8 8.5c.5.3 1 .4 1.5.4s1-.1 1.5-.4L66.2 38c.9-.5 1.5-1.5 1.5-2.6v-17c0-1-.5-1.9-1.2-2.4z"/></defs><clipPath id="SVGID_2_"><use xlink:href="#SVGID_1_" overflow="visible"/></clipPath><path d="M49.9 15.3c-.9 0-1.9.2-2.7.8-1.5 1-2.2 2.7-2 4.9-.5.2-.9.7-.9 1.2V24c0 .6.4 1.1.9 1.2v.5c.1 1 .6 2.1 1.4 3-.2.7-.7 1.3-1.3 1.7-.2.1-.3.2-.5.3v-.1l-.1-.1h-.1-.1-.1-.1-.1c-4.3 1.3-6.9 4.7-7.4 9.8 0 .2.1.4.3.4h.2l12.3 7.8V15.3z" clip-path="url(#SVGID_2_)" fill="#fff"/><path d="M62.8 40.2c0-.3-.1-.7-.1-1 0-.3-.1-.6-.2-.9-.2-1.2-.6-2.2-1.1-3.2-.1-.2-.3-.5-.4-.7-1-1.5-2.3-2.7-4-3.5-.5-.2-1-.4-1.6-.6h-.1-.1-.1-.1-.1c-1-.4-1.5-1-1.8-1.9.3-.3.5-.7.7-1 .1-.1.1-.2.2-.4.2-.5.4-1 .5-1.6V25c.5-.1.8-.5.9-1v-2-.2c-.1-.5-.4-.9-.9-1 .1-2.3-.8-4.1-2.5-5-.2-.1-.3-.2-.5-.2h-.1c-.2-.1-.3-.1-.5-.2h-.1c-.2 0-.3-.1-.5-.1h-.6v33l12.5-7.8h.4v-.1c.2-.1.2-.1.2-.2 0 .1 0 .1 0 0z" clip-path="url(#SVGID_2_)" fill="#9d85c1"/><path class="st1" d="M40.2 60.6s-.1-.1-.2-.1-.1-.1-.2-.1L25 51.9c-.5-.3-1-.4-1.5-.4s-1 .1-1.5.4L7.4 60.3c-.9.5-1.5 1.5-1.5 2.6v17c0 1.1.6 2 1.5 2.6L22.1 91c.5.3 1 .4 1.5.4s1-.1 1.5-.4l14.8-8.5c.9-.5 1.5-1.5 1.5-2.6v-17c0-.9-.5-1.8-1.2-2.3z"/><defs><path id="SVGID_3_" d="M40.2 60.6s-.1-.1-.2-.1-.1-.1-.2-.1L25 51.9c-.5-.3-1-.4-1.5-.4s-1 .1-1.5.4L7.4 60.3c-.9.5-1.5 1.5-1.5 2.6v17c0 1.1.6 2 1.5 2.6L22.1 91c.5.3 1 .4 1.5.4s1-.1 1.5-.4l14.8-8.5c.9-.5 1.5-1.5 1.5-2.6v-17c0-.9-.5-1.8-1.2-2.3z"/></defs><clipPath id="SVGID_4_"><use xlink:href="#SVGID_3_" overflow="visible"/></clipPath><path d="M23.6 59.9c-.9 0-1.9.2-2.7.8-1.5 1-2.2 2.7-2 4.9-.5.2-.9.7-.9 1.2v1.8c0 .6.4 1.1.9 1.2v.5c.1 1 .6 2.1 1.4 3-.2.7-.6 1.3-1.3 1.7-.2.1-.3.2-.5.3v-.1l-.1-.1h-.1-.1-.1-.1-.1c-4.3 1.3-6.9 4.7-7.4 9.8 0 .2.1.4.3.4h.2L23.6 93V59.9z" clip-path="url(#SVGID_4_)" fill="#fff"/><path d="M36.5 84.8c0-.3-.1-.7-.1-1 0-.3-.1-.6-.2-.9-.2-1.2-.6-2.2-1.1-3.2-.1-.2-.3-.5-.4-.7-1-1.5-2.3-2.7-4-3.5-.5-.2-1-.4-1.6-.6H29h-.1-.1-.1-.1c-1-.4-1.5-1-1.8-1.9.3-.3.5-.7.7-1 .1-.1.1-.2.2-.4.2-.5.4-1 .5-1.6v-.4c.5-.1.8-.5.9-1v-2-.2c-.1-.5-.4-.9-.9-1 .1-2.3-.8-4.1-2.5-5-.2-.1-.3-.2-.5-.2h-.1c-.2-.1-.3-.1-.5-.2h-.1c-.2 0-.3-.1-.5-.1h-.6v33l12.5-7.8h.4V85c.2-.1.2-.1.2-.2 0 .1 0 .1 0 0z" clip-path="url(#SVGID_4_)" fill="#9d85c1"/><path class="st0" d="M98.4 56.9c-.1-.1-.1-.1-.2-.1s-.1-.1-.2-.1L78.3 45.3c-.6-.4-1.3-.5-2-.5s-1.4.2-2 .5L54.7 56.7c-1.2.7-2 2-2 3.4v22.6c0 1.4.8 2.7 2 3.4l19.7 11.3c.6.4 1.3.5 2 .5s1.4-.2 2-.5L98 86.2c1.2-.7 2-2 2-3.4V60.2c0-1.3-.6-2.5-1.6-3.3z"/><path class="st1" d="M92.9 60.6s-.1-.1-.2-.1-.1-.1-.2-.1l-14.8-8.5c-.5-.3-1-.4-1.5-.4s-1 .1-1.5.4l-14.8 8.5c-.9.5-1.5 1.5-1.5 2.6v17c0 1.1.6 2 1.5 2.6L74.8 91c.5.3 1 .4 1.5.4s1-.1 1.5-.4l14.8-8.5c.9-.5 1.5-1.5 1.5-2.6v-17c0-.9-.5-1.8-1.2-2.3z"/><path class="st0" d="M64.8 45.2l-.1-.1-.1-.1-13.2-7.6c-.4-.2-.9-.4-1.3-.4-.5 0-.9.1-1.3.4L35.6 45c-.8.5-1.3 1.4-1.3 2.3v15.2c0 1 .5 1.8 1.3 2.3l13.2 7.6c.4.2.9.4 1.3.4.5 0 .9-.1 1.3-.4l13.2-7.6c.8-.5 1.3-1.4 1.3-2.3V47.3c0-.8-.4-1.6-1.1-2.1z"/><path d="M60.9 47.8l-.1-.1s-.1 0-.1-.1L50.9 42c-.3-.2-.6-.3-1-.3-.3 0-.7.1-1 .3l-9.8 5.6c-.6.4-1 1-1 1.7v11.3c0 .7.4 1.4 1 1.7l9.8 5.6c.3.2.6.3 1 .3.3 0 .7-.1 1-.3l9.8-5.6c.6-.4 1-1 1-1.7V49.3c0-.6-.3-1.1-.8-1.5z" fill="#9d85c1"/><g><defs><path id="SVGID_5_" d="M92.9 60.6s-.1-.1-.2-.1-.1-.1-.2-.1l-14.8-8.5c-.5-.3-1-.4-1.5-.4s-1 .1-1.5.4l-14.8 8.5c-.9.5-1.5 1.5-1.5 2.6v17c0 1.1.6 2 1.5 2.6L74.8 91c.5.3 1 .4 1.5.4s1-.1 1.5-.4l14.8-8.5c.9-.5 1.5-1.5 1.5-2.6v-17c0-.9-.5-1.8-1.2-2.3z"/></defs><clipPath id="SVGID_6_"><use xlink:href="#SVGID_5_" overflow="visible"/></clipPath><path d="M76.3 59.9c-.9 0-1.9.2-2.7.8-1.5 1-2.2 2.7-2 4.9-.5.2-.9.7-.9 1.2v1.8c0 .6.4 1.1.9 1.2v.5c.1 1 .6 2.1 1.4 3-.2.7-.7 1.3-1.3 1.7-.2.1-.3.2-.5.3v-.1l-.1-.1H71h-.1-.1-.1-.1c-4.3 1.3-6.9 4.7-7.4 9.8 0 .2.1.4.3.4h.2L76.3 93V59.9z" clip-path="url(#SVGID_6_)" fill="#fff"/><path d="M89.2 84.8c0-.3-.1-.7-.1-1 0-.3-.1-.6-.2-.9-.2-1.2-.6-2.2-1.1-3.2-.1-.2-.3-.5-.4-.7-1-1.5-2.3-2.7-4-3.5-.5-.2-1-.4-1.6-.6h-.1-.1-.1-.1-.1c-1-.4-1.5-1-1.8-1.9.3-.3.5-.7.7-1 .1-.1.1-.2.2-.4.2-.5.4-1 .5-1.6v-.4c.5-.1.8-.5.9-1v-2-.2c-.1-.5-.4-.9-.9-1 .1-2.3-.8-4.1-2.5-5-.2-.1-.3-.2-.5-.2h-.1c-.2-.1-.3-.1-.5-.2h-.1c-.2 0-.3-.1-.5-.1h-.6v33l12.5-7.8h.4V85c.2-.1.2-.1.2-.2 0 .1 0 .1 0 0z" clip-path="url(#SVGID_6_)" fill="#9d85c1"/></g><path class="st0" d="M55.4 50.1c-.6-.4-1.4-.3-1.8.3l-4.4 6.3-3-3.6c-.4-.5-1.3-.6-1.8-.2-.5.4-.6 1.3-.2 1.8l4 4.9.1.1.1.1h.1s.1 0 .1.1c0 0 .1 0 .1.1H49.5s.1 0 .1-.1c0 0 .1 0 .1-.1h.1l.1-.1.1-.1 5.4-7.7c.7-.6.6-1.4 0-1.8z"/></svg>