<svg id="Layer_1" xmlns="http://www.w3.org/2000/svg" viewBox="0 0 72 68"><style>.st0{fill:#ae95ce}.st2{fill:#d3c1e7}.st3{fill:#836aaa}.st4{fill:#ede5f4}</style><path class="st0" d="M31.6 15.4C25.1 21.9 20.8 32 18.1 40.7l2.7 2.6c.8-1.5 1.7-2.9 2.8-4 4.8-4.8 14.3-5.5 14.4-5.5 0 .1-.7 9.5-5.5 14.3-.3.3-.6.6-1 .9-.9.7-1.9 1.4-3 1.9l2.7 2.7c8.7-2.7 18.9-7 25.5-13.5C70.1 26.7 72 0 72 0S45.2 1.9 31.6 15.4z"/><path d="M72 0s-1.9 26.7-15.5 40.1C49.9 46.7 39.8 51 31.1 53.7l-6.5-6.5L72 0z" fill="#9d85c1"/><path class="st2" d="M61 23.5v-.1-.1l-2.4-8.8c-.1-.3-.2-.5-.4-.7-.2-.2-.4-.3-.7-.4L48.6 11c-.6-.1-1.1 0-1.5.4l-6.4 6.4c-.4.4-.6 1-.4 1.5l2.4 8.8c.1.3.2.5.4.7.2.2.4.3.7.4l8.8 2.4c.6.1 1.1 0 1.5-.4l6.4-6.4c.4-.3.6-.8.5-1.3z"/><path class="st0" d="M57.3 22.7v-.1l-1.5-5.7c0-.2-.1-.3-.3-.5-.1-.1-.3-.2-.5-.3l-5.7-1.5c-.4-.1-.7 0-1 .3L44.1 19c-.3.3-.4.6-.3 1l1.5 5.7c0 .2.1.3.3.5.1.1.3.2.5.3l5.7 1.5c.4.1.7 0 1-.3l4.2-4.1c.2-.2.4-.6.3-.9zM23.3 53c3.1-1 6.7-2.5 9.1-4.8 4.8-4.8 5.5-14.3 5.5-14.3L21 50.7l2.3 2.3z"/><path class="st3" d="M25.2 23.9c-3.1.5-8.7 1.9-12.1 5.2-2.3 2.3-3.9 5.9-4.8 9l4.6 4.6c1.7-.5 3.5-1.2 5.1-2.1 1.8-5.3 4.1-11.3 7.2-16.7zM47.9 46.6C42.5 49.7 36.5 52 31 53.7c0 0-1.6 3.4-2.1 5.1l4.6 4.6c3.1-1 6.7-2.5 9.1-4.8 3.4-3.4 4.8-8.9 5.3-12z"/><path class="st2" d="M23.5 39.4c-2.3 2.3-3.9 5.9-4.8 9l2.3 2.3 16.9-16.8s-9.6.7-14.4 5.5z"/><path class="st3" d="M57.3 22.7v-.1l-1.5-5.7c0-.2-.1-.3-.3-.5l-9.8 9.7c.1.1.3.2.5.3l5.7 1.5c.4.1.7 0 1-.3l4.2-4.1c.1-.1.3-.5.2-.8z"/><path class="st4" d="M29.2 68l4.4-4.6-4.6-4.7-8.8 9.3zM9 68l14.3-15-4.6-4.6L0 68zM0 56.4l12.9-13.6-4.6-4.7L0 46.9z"/></svg>