<svg id="Layer_1" xmlns="http://www.w3.org/2000/svg" viewBox="0 0 60 72"><style>.st2{fill:#836aaa}</style><path d="M30 6.3h25.7c.2 0 .5 0 .7.1 2.3.8 3.6 2.7 3.6 4.9v2.3c0 14.1 0 21.3-.1 21.7-1.7 24.8-29.3 36.4-29.5 36.6l-.4.1V6.3z" fill="#ae95ce"/><path d="M3.6 6.4c.2-.1.5-.1.7-.1H30V72l.2-.1-.2.1-.4-.2C29.3 71.7 1.7 59.5.1 35.2 0 34.8 0 27.4 0 13v-1.7c0-2.2 1.3-4.1 3.6-4.9z" fill="#d3c1e7"/><path class="st2" d="M52 6.3V3.8C52 1.7 50.3 0 48.3 0H11.8C9.7 0 8 1.7 8 3.8v2.6h44z"/><path d="M30 14.4H8c0 6 0 18.9.1 20.5C9.2 49.8 23.7 59.5 30 63V14.4z" fill="#9d85c1"/><path class="st2" d="M30 63c6.3-3.3 20.8-12.8 21.9-28.1 0-1.4 0-12.2.1-20.5H30V63z"/><path d="M36 28.7c0-3.3-2.7-6-6-6s-6 2.7-6 6c0 2.5 1.5 4.6 3.6 5.5L24 46.8h12l-3.6-12.6c2.1-.9 3.6-3 3.6-5.5z" fill="#ede5f4"/></svg>