<svg id="Layer_1" xmlns="http://www.w3.org/2000/svg" xmlns:xlink="http://www.w3.org/1999/xlink" viewBox="0 0 1320 456"><style>.st5{fill:#fff}.st11,.st5,.st9{clip-path:url(#SVGID_2_)}.st9{stroke:#fff;stroke-width:4;stroke-linecap:round;stroke-linejoin:round;stroke-miterlimit:10;opacity:.12;fill:none}.st11{opacity:6.000000e-02;fill:#fff}.st12{stroke:#fff;stroke-width:3;stroke-miterlimit:10}.st12,.st13,.st14,.st15,.st16{opacity:.11;clip-path:url(#SVGID_2_);fill:#fff}.st14,.st15,.st16{opacity:.26}.st15,.st16{opacity:.44}.st16{opacity:.7}.st17{stroke:#fff;stroke-width:5;stroke-miterlimit:10}.st17,.st21{opacity:.35;clip-path:url(#SVGID_2_);fill:#fff}.st23{fill:#8b66b6}.st26{fill:#d3c1e7}.st28{opacity:.45;fill:#fff}</style><path d="M987 394.5h-5.6v-5.6c0-1.3-1.1-2.4-2.3-2.4-1.3 0-2.4 1.1-2.4 2.4v5.6H971c-1.3 0-2.4 1.1-2.4 2.4 0 1.3 1.1 2.4 2.4 2.4h5.6v5.6c0 1.3 1.1 2.4 2.4 2.4 1.3 0 2.3-1.1 2.3-2.4v-5.6h5.6c1.3 0 2.4-1.1 2.4-2.4 0-1.3-1-2.4-2.3-2.4z" opacity=".35" fill="#fff"/><defs><path id="SVGID_1_" d="M1281.1 456.4H38.9C17.5 456.4 0 438.9 0 417.5v-379C0 17.1 17.5-.4 38.9-.4h1242.3c21.4 0 38.9 17.5 38.9 38.9v379c-.1 21.4-17.6 38.9-39 38.9z"/></defs><clipPath id="SVGID_2_"><use xlink:href="#SVGID_1_" overflow="visible"/></clipPath><linearGradient id="SVGID_3_" gradientUnits="userSpaceOnUse" x1="556.206" y1="612.471" x2="556.206" y2="-.397"><stop offset="0" stop-color="#441b81"/><stop offset="1" stop-color="#7237af"/></linearGradient><path clip-path="url(#SVGID_2_)" fill="#7237af" d="M1320-1.5h-169L420.4 456.4H1320z"/><path d="M881.8 226.1l20 11.6c1.5.8 2.4 2.4 2.4 4.1v23.1c0 1.7-.9 3.3-2.4 4.1l-20 11.6c-1.5.8-3.3.8-4.8 0L857 269c-1.5-.8-2.4-2.4-2.4-4.1v-23.1c0-1.7.9-3.3 2.4-4.1l20-11.6c1.6-.9 3.4-.9 4.8 0zm-4.2 5.5l-16 9.2c-1.2.7-1.9 1.9-1.9 3.3v18.4c0 1.4.7 2.6 1.9 3.3l16 9.2c1.2.7 2.6.7 3.8 0l16-9.2c1.2-.7 1.9-1.9 1.9-3.3v-18.4c0-1.4-.7-2.6-1.9-3.3l-16-9.2c-1.2-.7-2.7-.7-3.8 0zm1.1 13.3l-6.2 3.6c-.5.3-.7.7-.7 1.3v7.1c0 .5.3 1 .7 1.3l6.2 3.6c.5.3 1 .3 1.5 0l6.2-3.6c.5-.3.7-.7.7-1.3v-7.1c0-.5-.3-1-.7-1.3l-6.2-3.6c-.5-.2-1-.2-1.5 0z" opacity=".45" clip-path="url(#SVGID_2_)" fill="#fff"/><path d="M924.3 367.5h-2.4v2.4c0 .6-.5 1-1 1-.6 0-1-.5-1-1v-2.4h-2.4c-.6 0-1-.5-1-1 0-.6.5-1 1-1h2.4V363c0-.6.5-1 1-1 .6 0 1 .5 1 1v2.4h2.4c.6 0 1 .5 1 1 .1.6-.4 1.1-1 1.1z" opacity=".5" clip-path="url(#SVGID_2_)" fill="#fff"/><path class="st5" d="M1129.5 458.1c-1.5 0-2.6 1.2-2.6 2.6 0 1.5 1.2 2.6 2.6 2.6 1.5 0 2.6-1.2 2.6-2.6.1-1.5-1.1-2.6-2.6-2.6z"/><path d="M1303.7 294l112.5 65c7.9 4.6 12.8 13 12.8 22.1v130.6c0 9.1-4.9 17.6-12.8 22.1l-113.1 65.3c-7.9 4.6-17.6 4.6-25.5 0l-113.1-65.3c-7.9-4.6-12.8-13-12.8-22.1V381.1c0-9.1 4.9-17.6 12.8-22.1l112.5-65c8.3-4.7 18.5-4.7 26.7 0zm-22.6 47l-78.2 45.1c-5.8 3.3-9.3 9.5-9.3 16.1v90.3c0 6.6 3.5 12.8 9.3 16.1l78.2 45.1c5.8 3.3 12.8 3.3 18.6 0l78.2-45.1c5.8-3.3 9.3-9.5 9.3-16.1v-90.3c0-6.6-3.5-12.8-9.3-16.1l-78.2-45.1c-5.8-3.3-12.8-3.3-18.6 0z" opacity=".3" clip-path="url(#SVGID_2_)" fill="#fff"/><path d="M1340 426.2v46c0 3.5-1.9 6.7-4.9 8.5l-39.8 23c-3 1.7-6.7 1.7-9.8 0l-39.8-23c-3-1.7-4.9-5-4.9-8.5v-46c0-3.5 1.9-6.7 4.9-8.5l39.8-23c3-1.7 6.7-1.7 9.8 0l39.8 23c3 1.8 4.9 5 4.9 8.5z" opacity=".66" clip-path="url(#SVGID_2_)" fill="#a082c2"/><path d="M977.2 470.4l-15.5 8.9c-1.1.7-1.8 1.9-1.8 3.2v17.9c0 1.3.7 2.5 1.8 3.2l15.5 8.9c1.1.7 2.5.7 3.7 0l15.5-8.9c1.1-.7 1.8-1.9 1.8-3.2v-17.9c0-1.3-.7-2.5-1.8-3.2l-15.5-8.9c-1.2-.6-2.6-.6-3.7 0z" opacity=".33" clip-path="url(#SVGID_2_)" fill="#fff"/><path class="st9" d="M1072 111.4V66.2l286.5-171.5M1369 580.6l-297-171.5v-48.3"/><path d="M977.9 184.7v100.6c0 2.5 1.3 4.8 3.5 6.1l87.1 50.3c2.2 1.3 4.9 1.3 7 0l87.1-50.3c2.2-1.3 3.5-3.6 3.5-6.1V184.7c0-2.5-1.3-4.8-3.5-6.1l-87.1-50.3c-2.2-1.3-4.9-1.3-7 0l-87.1 50.3c-2.2 1.3-3.5 3.6-3.5 6.1z" opacity=".09" clip-path="url(#SVGID_2_)" fill="#fff"/><path class="st11" d="M1024.8 403v13.8c0 1.4.7 2.6 1.9 3.3l11.9 6.9c1.2.7 2.6.7 3.8 0l11.9-6.9c1.2-.7 1.9-1.9 1.9-3.3V403c0-1.4-.7-2.6-1.9-3.3l-11.9-6.9a3.7 3.7 0 0 0-3.8 0l-11.9 6.9c-1.2.6-1.9 1.9-1.9 3.3z"/><path class="st11" d="M1031 405.7v8.3c0 .8.4 1.6 1.2 2l7.2 4.2c.7.4 1.6.4 2.3 0l7.2-4.2c.7-.4 1.2-1.2 1.2-2v-8.3c0-.8-.4-1.6-1.2-2l-7.2-4.2c-.7-.4-1.6-.4-2.3 0l-7.2 4.2c-.8.4-1.2 1.2-1.2 2z"/><path class="st11" d="M1035.8 407.8v4.1c0 .4.2.8.6 1l3.6 2.1c.4.2.8.2 1.1 0l3.6-2.1c.4-.2.6-.6.6-1v-4.1c0-.4-.2-.8-.6-1l-3.6-2.1c-.4-.2-.8-.2-1.1 0l-3.6 2.1c-.4.2-.6.6-.6 1zM1169.8 61.7V96c0 4.4 2.3 8.4 6.1 10.6l29.7 17.1c3.8 2.2 8.5 2.2 12.3 0l29.7-17.1c3.8-2.2 6.1-6.2 6.1-10.6V61.7c0-4.4-2.3-8.4-6.1-10.6L1217.9 34c-3.8-2.2-8.5-2.2-12.3 0l-29.7 17.1c-3.8 2.2-6.1 6.2-6.1 10.6z"/><path class="st5" d="M992.3 197v80.3c0 3.3 1.8 6.4 4.7 8.1l69.6 40.2c2.9 1.7 6.4 1.7 9.3 0l69.5-40.2c2.9-1.7 4.7-4.7 4.7-8.1V197c0-3.3-1.8-6.4-4.7-8.1l-69.5-40.2c-2.9-1.7-6.4-1.7-9.3 0L997 188.9c-3 1.7-4.7 4.8-4.7 8.1z"/><path class="st11" d="M1116.9 453.8v14.5l12.6 7.3 12.6-7.3v-14.5l-12.6-7.3-12.6 7.3z"/><path class="st12" d="M1128.7 161.8c-10.8 0-19.5-8.7-19.5-19.5s8.7-19.5 19.5-19.5 19.5 8.7 19.5 19.5c0 10.7-8.8 19.5-19.5 19.5z"/><path class="st13" d="M1128.7 79.2c-1.2 0-2.1-.9-2.1-2.1 0-1.2.9-2.1 2.1-2.1 1.2 0 2.1.9 2.1 2.1 0 1.1-1 2.1-2.1 2.1z"/><path class="st14" d="M1128.7 88.3c-1.2 0-2.1-.9-2.1-2.1 0-1.2.9-2.1 2.1-2.1 1.2 0 2.1.9 2.1 2.1 0 1.2-1 2.1-2.1 2.1z"/><path class="st15" d="M1128.7 97.5c-1.2 0-2.1-.9-2.1-2.1 0-1.2.9-2.1 2.1-2.1 1.2 0 2.1.9 2.1 2.1 0 1.1-1 2.1-2.1 2.1z"/><path class="st16" d="M1128.7 106.6c-1.2 0-2.1-.9-2.1-2.1 0-1.2.9-2.1 2.1-2.1 1.2 0 2.1.9 2.1 2.1 0 1.2-1 2.1-2.1 2.1z"/><path class="st5" d="M1128.7 115.8c-1.2 0-2.1-.9-2.1-2.1 0-1.2.9-2.1 2.1-2.1 1.2 0 2.1.9 2.1 2.1 0 1.1-1 2.1-2.1 2.1z"/><path class="st12" d="M1219.8 393.8c-6.7 0-12.1 5.4-12.1 12.1 0 6.7 5.4 12.1 12.1 12.1s12.1-5.4 12.1-12.1c0-6.7-5.4-12.1-12.1-12.1z"/><path class="st5" d="M1219.8 403.3c-1.4 0-2.6 1.2-2.6 2.6s1.2 2.6 2.6 2.6c1.4 0 2.6-1.2 2.6-2.6s-1.2-2.6-2.6-2.6z"/><path class="st17" d="M1219.8 400.3c-3.1 0-5.6 2.5-5.6 5.6 0 3.1 2.5 5.6 5.6 5.6 3.1 0 5.6-2.5 5.6-5.6 0-3.1-2.5-5.6-5.6-5.6z"/><path class="st13" d="M1219.8 445c-.7 0-1.3.6-1.3 1.3 0 .7.6 1.3 1.3 1.3.7 0 1.3-.6 1.3-1.3 0-.8-.6-1.3-1.3-1.3z"/><path class="st14" d="M1219.8 439.3c-.7 0-1.3.6-1.3 1.3 0 .7.6 1.3 1.3 1.3.7 0 1.3-.6 1.3-1.3 0-.7-.6-1.3-1.3-1.3z"/><circle class="st15" cx="1219.8" cy="434.9" r="1.3"/><path class="st16" d="M1219.8 428c-.7 0-1.3.6-1.3 1.3 0 .7.6 1.3 1.3 1.3.7 0 1.3-.6 1.3-1.3 0-.7-.6-1.3-1.3-1.3z"/><path class="st5" d="M1219.8 422.3c-.7 0-1.3.6-1.3 1.3 0 .7.6 1.3 1.3 1.3.7 0 1.3-.6 1.3-1.3 0-.7-.6-1.3-1.3-1.3z"/><path opacity=".12" clip-path="url(#SVGID_2_)" fill="none" stroke="#fff" stroke-width="2" stroke-miterlimit="10" d="M1219.8 543.8V406.6"/><path class="st12" d="M879.6 420.3c-13.4 0-24.3-10.9-24.3-24.3s10.9-24.3 24.3-24.3 24.3 10.9 24.3 24.3-10.8 24.3-24.3 24.3z"/><path class="st5" d="M879.6 401.2c-2.9 0-5.2-2.3-5.2-5.2 0-2.9 2.3-5.2 5.2-5.2 2.9 0 5.2 2.3 5.2 5.2 0 2.9-2.3 5.2-5.2 5.2z"/><path class="st17" d="M879.6 407.2c-6.2 0-11.2-5-11.2-11.2 0-6.2 5-11.2 11.2-11.2 6.2 0 11.2 5 11.2 11.2.1 6.2-5 11.2-11.2 11.2z"/><path class="st13" d="M879.6 317.5c-1.5 0-2.6-1.2-2.6-2.6 0-1.5 1.2-2.6 2.6-2.6 1.5 0 2.6 1.2 2.6 2.6.1 1.5-1.1 2.6-2.6 2.6z"/><path class="st14" d="M879.6 328.9c-1.5 0-2.6-1.2-2.6-2.6 0-1.5 1.2-2.6 2.6-2.6 1.5 0 2.6 1.2 2.6 2.6.1 1.4-1.1 2.6-2.6 2.6z"/><path class="st15" d="M879.6 340.3c-1.5 0-2.6-1.2-2.6-2.6 0-1.5 1.2-2.6 2.6-2.6 1.5 0 2.6 1.2 2.6 2.6.1 1.4-1.1 2.6-2.6 2.6z"/><path class="st16" d="M879.6 351.7c-1.5 0-2.6-1.2-2.6-2.6 0-1.5 1.2-2.6 2.6-2.6 1.5 0 2.6 1.2 2.6 2.6.1 1.4-1.1 2.6-2.6 2.6z"/><path class="st5" d="M879.6 363c-1.5 0-2.6-1.2-2.6-2.6 0-1.5 1.2-2.6 2.6-2.6 1.5 0 2.6 1.2 2.6 2.6.1 1.5-1.1 2.6-2.6 2.6z"/><path d="M1181.4 179.4v113c0 4.1-2.2 7.9-5.8 10l-97.8 56.5c-3.6 2.1-8 2.1-11.5 0l-97.8-56.5c-3.6-2.1-5.8-5.9-5.8-10v-113c0-4.1 2.2-7.9 5.8-10l97.8-56.5c3.6-2.1 8-2.1 11.5 0l97.8 56.5c3.6 2.1 5.8 5.9 5.8 10z" opacity=".55" clip-path="url(#SVGID_2_)" fill="none" stroke="#fff" stroke-width="5" stroke-miterlimit="10"/><path d="M1204.3 165.7V306c0 3.8-2 7.4-5.4 9.3l-121.5 70.2c-3.3 1.9-7.4 1.9-10.7 0l-121.5-70.2c-3.3-1.9-5.4-5.5-5.4-9.3V165.7c0-3.8 2-7.4 5.4-9.3l121.5-70.2c3.3-1.9 7.4-1.9 10.7 0l121.5 70.2c3.4 1.9 5.4 5.5 5.4 9.3z" opacity=".12" clip-path="url(#SVGID_2_)" fill="none" stroke="#fff" stroke-width="3" stroke-miterlimit="10"/><path class="st21" d="M1226.4 74.7H1216V64.3c0-2.4-2-4.4-4.4-4.4-2.4 0-4.4 2-4.4 4.4v10.4h-10.4c-2.4 0-4.4 2-4.4 4.4 0 2.4 2 4.4 4.4 4.4h10.4v10.4c0 2.4 2 4.4 4.4 4.4 2.4 0 4.4-2 4.4-4.4V83.4h10.4c2.4 0 4.4-2 4.4-4.4 0-2.3-1.9-4.3-4.4-4.3zM1253.8 215.2h-5.6v-5.6c0-1.3-1.1-2.4-2.3-2.4-1.3 0-2.4 1.1-2.4 2.4v5.6h-5.6c-1.3 0-2.4 1.1-2.4 2.4 0 1.3 1.1 2.4 2.4 2.4h5.6v5.6c0 1.3 1.1 2.4 2.4 2.4 1.3 0 2.3-1.1 2.3-2.4V220h5.6c1.3 0 2.4-1.1 2.4-2.4-.1-1.4-1.1-2.4-2.4-2.4z"/><path class="st17" d="M1128.7 151.3c-5 0-9-4-9-9s4-9 9-9 9 4 9 9c0 4.9-4.1 9-9 9z"/><path class="st5" d="M1128.7 146.4c-2.3 0-4.2-1.9-4.2-4.2s1.9-4.2 4.2-4.2c2.3 0 4.2 1.9 4.2 4.2s-1.9 4.2-4.2 4.2z"/><g><path d="M1111.3 209.7c0-3-2.4-5.4-5.4-5.4h-76.5c-3 0-5.4 2.4-5.4 5.4v17.2c0-3 2.5-5.4 5.4-5.4h81.9v-11.8z" fill="#623598"/><path class="st23" d="M1119.3 278.4h-89.9c-3 0-5.4-2.5-5.4-5.4v-50.3c0-3 2.4-5.4 5.4-5.4h89.9c3 0 5.4 2.5 5.4 5.4V273c0 3-2.5 5.4-5.4 5.4z"/><path d="M1042.9 201.1h4.9c1.1 0 1.3.3 1.5.8v15.4h46.5c-1.2-1.5-2.7-2.8-4.6-3.8 2.5-2.7 3.6-6.4 3.1-10.9-.2-2.3-.9-4.4-2-6.1-1.1-1.8-2.6-3.2-4.5-4.3-1.7-1-3.6-1.7-5.6-2.2-1.3-.3-2.7-.6-4.3-.8v-9.1c0-1.4-1.1-2.5-2.5-2.5h-19c-1.4 0-2.5 1.1-2.5 2.5v8.9H1042.8c-.7 0-1.3.3-1.7.7-.5.5-.7 1.1-.7 1.8v7.2c.1 1.3 1.2 2.4 2.5 2.4z" fill="#ac87d3"/><path d="M1124.7 236.1h-28.3c-3.5 0-6.3 2.8-6.3 6.3v10.4c0 3.5 2.8 6.3 6.3 6.3h28.3v-23z" fill="#683f9b"/><path class="st26" d="M1100.6 251.8c2.4 0 4.3-1.9 4.3-4.2 0-2.3-1.9-4.2-4.3-4.2s-4.3 1.9-4.3 4.2c0 2.3 1.9 4.2 4.3 4.2zM1079.9 236.7s-.1-.1-.2-.1-.1-.1-.2-.1l-14.1-8.1c-.4-.3-.9-.4-1.4-.4-.5 0-1 .1-1.4.4l-14.1 8.1c-.9.5-1.4 1.5-1.4 2.5v3.6h-23.3v9.1h23.3v3.6c0 1 .5 2 1.4 2.5l14.1 8.1c.4.3.9.4 1.4.4.5 0 1-.1 1.4-.4l14.1-8.1c.9-.5 1.4-1.5 1.4-2.5V239c.2-1-.3-1.8-1-2.3z"/><path d="M1071.1 242.4l-.1-.1-6.2-3.6c-.2-.1-.4-.2-.6-.2-.2 0-.4.1-.6.2l-6.2 3.6c-.4.2-.6.6-.6 1.1v7.2c0 .4.2.9.6 1.1l6.2 3.6c.2.1.4.2.6.2.2 0 .4-.1.6-.2l6.2-3.6c.4-.2.6-.6.6-1.1v-7.2c0-.3-.2-.7-.5-1z" fill="#9371ba"/><path class="st23" d="M1075.5 177.6h-9.2v39.6h29.5c-1.2-1.5-2.7-2.8-4.6-3.8 2.5-2.7 3.6-6.4 3.1-10.9-.2-2.3-.9-4.4-2-6.1-1.1-1.8-2.6-3.2-4.5-4.3-1.7-1-3.6-1.7-5.6-2.2-1.3-.3-2.7-.6-4.3-.8V180c.1-1.3-1-2.4-2.4-2.4z"/></g><path class="st28" d="M684.5 355.4l21.5 12.4c1.6.9 2.6 2.6 2.6 4.4v24.7c0 1.8-1 3.5-2.6 4.4l-21.5 12.4c-1.6.9-3.5.9-5.1 0l-21.5-12.4c-1.6-.9-2.6-2.6-2.6-4.4v-24.7c0-1.8 1-3.5 2.6-4.4l21.5-12.4c1.5-.9 3.5-.9 5.1 0z"/><g opacity=".5"><path class="st28" d="M741.6 332.9l-9.5 5.5c-.7.4-1.1 1.1-1.1 2v11c0 .8.4 1.6 1.1 2l9.5 5.5c.7.4 1.6.4 2.3 0l9.5-5.5c.7-.4 1.1-1.1 1.1-2v-11c0-.8-.4-1.6-1.1-2l-9.5-5.5c-.7-.4-1.6-.4-2.3 0zm1.8 6l5.1 3c.4.2.6.6.6 1.1v5.9c0 .4-.2.8-.6 1.1l-5.1 3c-.4.2-.8.2-1.2 0l-5.1-3c-.4-.2-.6-.6-.6-1.1V343c0-.4.2-.8.6-1.1l5.1-3c.3-.2.8-.2 1.2 0z"/></g><path d="M843.2 288.5h-5.5V283c0-1.3-1-2.3-2.3-2.3-1.3 0-2.3 1-2.3 2.3v5.5h-5.5c-1.3 0-2.3 1-2.3 2.3 0 1.3 1 2.3 2.3 2.3h5.5v5.5c0 1.3 1 2.3 2.3 2.3 1.3 0 2.3-1 2.3-2.3v-5.5h5.5c1.3 0 2.3-1 2.3-2.3 0-1.2-1.1-2.3-2.3-2.3z" opacity=".5" fill="#fff"/><linearGradient id="SVGID_4_" gradientUnits="userSpaceOnUse" x1="664.322" y1="384.465" x2="699.518" y2="384.465"><stop offset="0" stop-color="#6b33a9"/><stop offset=".006" stop-color="#6d35a4"/><stop offset="1" stop-color="#3e1a73"/></linearGradient><path d="M695.5 388.5h-9.6v9.6c0 2.2-1.8 4-4 4s-4-1.8-4-4v-9.6h-9.6c-2.2 0-4-1.8-4-4s1.8-4 4-4h9.6v-9.6c0-2.2 1.8-4 4-4s4 1.8 4 4v9.6h9.6c2.2 0 4 1.8 4 4s-1.8 4-4 4z" opacity=".5" fill="url(#SVGID_4_)"/></svg>