<svg width="231" height="231" viewBox="0 0 231 231" xmlns="http://www.w3.org/2000/svg"><g fill="none" fill-rule="evenodd" opacity=".5"><circle fill="#8B66B6" cx="115.5" cy="115.6" r="115.1"/><path d="M115.5 230.7c63.6 0 115.1-51.5 115.1-115.1H.4c0 63.6 51.6 115.1 115.1 115.1z" fill="#683F9B"/><path d="M50.6 176.9c-15.1-16-24.4-37.6-24.4-61.3 0-28.7 13.6-54.2 34.6-70.6L45.3 24.4C18 45.4.4 78.4.4 115.5c0 30.5 11.9 58.1 31.2 78.7l19-17.3z" fill="#D3C1E7"/><path d="M174.1 116.2c-2.2-2.8-4.9-5.1-8.3-6.9 4.6-5 6.5-11.6 5.7-19.7-.4-4.2-1.6-8-3.6-11.1-2-3.2-4.8-5.8-8.2-7.8-3.1-1.8-6.5-3.1-10.2-4-2.4-.6-5-1.1-7.8-1.5V49.1c0-2.5-2-4.5-4.5-4.5h-17.9v142.1h17.9c2.5 0 4.5-2 4.5-4.5V166c2.9-.2 5.5-.6 7.9-1 3.7-.6 7.3-1.7 10.6-3 3.6-1.4 6.6-3.3 9.1-5.5 2.5-2.3 4.6-5.1 6.2-8.5 1.6-3.3 2.6-7.2 3-11.5 1-8.6-.6-15.4-4.4-20.3z" fill="#AC87D3"/><path d="M119.4 44.6h-16.5c-2.5 0-4.5 2-4.5 4.5v15.7h-3.3l-17-.1c-1.2 0-2.3.5-3.2 1.3-.8.8-1.3 2-1.3 3.2v13.1c0 2.5 2 4.5 4.5 4.5H87c2.1 0 2.4.5 2.6 1.4v54.3h-9.1c-2.2 0-4.1 1.6-4.4 3.7l-2.5 14.6c-.2 1.3.1 2.6 1 3.6s2.1 1.6 3.4 1.6h20.2v16c0 2.5 2 4.5 4.5 4.5h16.5V44.6h.2z" fill="#EDE5F4"/><path d="M.4 115.6c0 30.5 11.9 58.1 31.2 78.7l19-17.4c-15.1-16-24.4-37.6-24.4-61.3H.4z" fill="#AC87D3"/></g></svg>