<svg id="Layer_1" xmlns="http://www.w3.org/2000/svg" viewBox="0 0 72 72"><style>.st0{fill:#705a9b}.st1{fill:#9d85c1}.st3{fill:#d3c1e7}</style><path class="st0" d="M62.4 22.9c0-2.1-1.7-3.9-3.9-3.9H3.9C1.8 19 0 20.8 0 22.9v12.3c0-2.1 1.8-3.9 3.9-3.9h58.5v-8.4z"/><path class="st1" d="M68.1 72H3.9C1.8 72 0 70.3 0 68.1V32.2c0-2.1 1.7-3.9 3.9-3.9h64.2c2.1 0 3.9 1.7 3.9 3.9v35.9c0 2.2-1.7 3.9-3.9 3.9z"/><path d="M13.6 16.8h3.5c.8 0 1 .2 1 .6v11h33.2c-.8-1.1-1.9-2-3.3-2.7 1.8-1.9 2.6-4.6 2.2-7.7-.2-1.7-.6-3.1-1.4-4.4-.8-1.3-1.9-2.3-3.2-3.1-1.2-.7-2.6-1.2-4-1.6-.9-.2-2-.4-3.1-.6V1.8c0-1-.8-1.8-1.8-1.8H23.4c-1 0-1.8.8-1.8 1.8v6.4h-8c-.5 0-.9.2-1.2.5-.3.3-.5.8-.5 1.3v5c0 1 .8 1.8 1.7 1.8z" fill="#ae95ce"/><path class="st0" d="M72 41.8H51.8c-2.5 0-4.5 2-4.5 4.5v7.4c0 2.5 2 4.5 4.5 4.5H72V41.8z"/><path class="st3" d="M54.8 53c1.7 0 3.1-1.4 3.1-3 0-1.7-1.4-3-3.1-3-1.7 0-3.1 1.4-3.1 3 0 1.7 1.4 3 3.1 3zM40 42.2l-.1-.1-.1-.1-10.1-5.8c-.3-.2-.7-.3-1-.3-.4 0-.7.1-1 .3L17.6 42c-.6.4-1 1-1 1.8v2.5H0v6.5h16.6v2.5c0 .7.4 1.4 1 1.8L27.7 63c.3.2.7.3 1 .3.4 0 .7-.1 1-.3l10.1-5.8c.6-.4 1-1 1-1.8V43.8c0-.6-.3-1.2-.8-1.6z"/><path class="st1" d="M33.7 46.3l-4.6-2.6c-.1-.1-.3-.1-.4-.1-.2 0-.3 0-.4.1l-4.5 2.6c-.3.2-.5.5-.5.8v5.1c0 .3.2.6.5.8l4.5 2.6c.1.1.3.1.4.1.2 0 .3 0 .4-.1l4.5-2.6c.3-.2.5-.5.5-.8V47c0-.3-.1-.5-.4-.7zM36.9 0h-6.6v28.3h21c-.8-1.1-1.9-2-3.3-2.7 1.8-1.9 2.6-4.6 2.2-7.7-.2-1.7-.6-3.1-1.4-4.4-.8-1.3-1.9-2.3-3.2-3.1-1.2-.7-2.6-1.2-4-1.6-.9-.2-2-.4-3.1-.6V1.7c.2-.9-.6-1.7-1.6-1.7z"/></svg>