<svg id="Layer_1" xmlns="http://www.w3.org/2000/svg" viewBox="0 0 44 44"><style>.st0{fill:#fc932b}</style><path class="st0" d="M19.7 22.8L18.2 29c1.9.4 7.8 2.4 8.7-1.2.9-3.6-5.2-4.5-7.2-5zM21.9 14.3L20.5 20c1.6.4 6.5 2 7.3-1.2.7-3.3-4.3-4-5.9-4.5z"/><path class="st0" d="M27.3.7C15.5-2.3 3.6 5 .7 16.7c-2.9 11.8 4.2 23.7 16 26.7s23.7-4.2 26.7-16C46.3 15.6 39.1 3.7 27.3.7zm6.1 17.6c-.3 2.5-1.7 3.8-3.6 4.2 2.6 1.3 3.9 3.3 2.6 6.9-1.5 4.4-5.2 4.7-10 3.9L21.1 38l-2.8-.9 1.2-4.6c-.8-.2-1.5-.4-2.3-.5L16 36.6l-2.8-.8 1.2-4.7c-.6-.2-1.3-.3-2-.5l-3.6-1 1.4-3.2 2 .5c.8.2 1.2-.3 1.3-.6l3.1-12.7c0-.6-.2-1.4-1.3-1.6l-2-.5.8-3 3.9 1c.5.1 1.2.3 1.8.4L21 5.3l2.7.7-1.2 4.5c.8.2 1.5.3 2.3.5l1.1-4.5 2.8.8-1.2 4.6c3.7 1.2 6.4 3 5.9 6.4z"/></svg>